<svg xmlns="http://www.w3.org/2000/svg" width="16" height="16" focusable="false" viewBox="0 0 16 16">
  <path fill="currentColor" d="M15 0a1 1 0 011 1v14a1 1 0 01-1 1H1a1 1 0 01-1-1V1a1 1 0 011-1h14zm-.5 4h-3l-.09.008A.5.5 0 0011 4.5l.008.09A.5.5 0 0011.5 5h2.19l-.226.3-.238.297-.278.338-.318.376-.357.411-.395.444A.5.5 0 0012.25 8c1.197 0 1.612.398 1.719 1.25l.017.173.012.302L14 10c0 .117-.035.327-.135.526-.152.305-.405.474-.865.474-.724 0-1-.276-1-1a.5.5 0 10-1 0c0 1.276.724 2 2 2 .853 0 1.443-.394 1.76-1.026A2.22 2.22 0 0015 10l-.002-.308-.008-.243-.017-.215-.012-.109-.024-.164c-.158-.913-.65-1.547-1.561-1.817l-.116-.031.108-.122.351-.413.307-.374c.048-.059.093-.116.137-.173l.242-.32C14.809 5.156 15 4.77 15 4.5a.5.5 0 00-.5-.5zm-5 2c0-2.667-4-2.667-4 0a.5.5 0 101 0c0-1.333 2-1.333 2 0 0 .567-.24 1.064-.802 1.768l-.066.08-.758.91c-.765.948-1.171 1.678-1.364 2.644A.5.5 0 006 12h3l.09-.008a.5.5 0 00.41-.492l-.008-.09A.5.5 0 009 11H6.658l.055-.139c.197-.473.499-.93.95-1.49l.782-.938.199-.253C9.223 7.413 9.5 6.773 9.5 6zM2.502 4l-.044.002-.032.003-.054.012-.063.02-.059.03-.062.042-.042.037-1 1-.057.07a.5.5 0 00.765.638L2 5.706V11h-.5l-.09.008A.5.5 0 001.5 12h2l.09-.008A.5.5 0 003.5 11H3V4.5l-.002-.046-.015-.082-.02-.063-.03-.059-.042-.062-.037-.042-.032-.028-.055-.04-.076-.04-.063-.021-.061-.012L2.502 4z"/>
</svg>
