<svg xmlns="http://www.w3.org/2000/svg" width="16" height="16" focusable="false" viewBox="0 0 16 16">  <path fill="currentColor" d="M0 1a1 1 0 0 1 1-1h14a1 1 0 0 1 1 1v14a1 1 0 0 1-1 1H1a1 1 0 0 1-1-1V1Zm4.265 5.12a.404.404 0 0 0 0 .76l2.018.684a3.425 3.425 0 0 1 2.153 2.153l.685 2.018a.404.404 0 0 0 .758 0l.685-2.018a3.423 3.423 0 0 1 2.153-2.153l2.018-.685a.404.404 0 0 0 0-.758l-2.018-.685a3.424 3.424 0 0 1-2.153-2.153L9.88 1.265a.404.404 0 0 0-.758 0l-.685 2.018a3.425 3.425 0 0 1-2.153 2.153l-2.018.685Zm-2.02 5.3-1.1.373a.22.22 0 0 0 0 .414l1.1.373a1.868 1.868 0 0 1 1.175 1.175l.373 1.1a.22.22 0 0 0 .414 0l.373-1.1a1.869 1.869 0 0 1 1.175-1.175l1.1-.373a.22.22 0 0 0 0-.414l-1.1-.373a1.868 1.868 0 0 1-1.175-1.175l-.373-1.1a.22.22 0 0 0-.414 0l-.373 1.1a1.869 1.869 0 0 1-1.175 1.175Z"/>
</svg>
