<svg xmlns="http://www.w3.org/2000/svg" width="16" height="16" focusable="false" viewBox="0 0 16 16">
  <path fill="currentColor" d="M6.5 3h5a2.5 2.5 0 012.495 2.336L14 5.5v6.292l1.146-1.146a.5.5 0 01.638-.057l.07.057a.5.5 0 010 .708l-2 2a.5.5 0 01-.708 0l-2-2a.5.5 0 01.708-.708L13 11.792V5.5a1.5 1.5 0 00-1.356-1.493L11.5 4h-5a.5.5 0 010-1zm-3.78-.449l.08.049 2 1.5a.5.5 0 01-.523.847L4.2 4.9 3 4v6.5a1.5 1.5 0 001.356 1.493L4.5 12h4a.5.5 0 01.09.992L8.5 13h-4a2.5 2.5 0 01-2.495-2.336L2 10.5V4l-1.2.9a.5.5 0 01-.64-.033L.1 4.8a.5.5 0 01.033-.64L.2 4.1l2-1.5a.5.5 0 01.52-.049z"/>
</svg>
