<svg xmlns="http://www.w3.org/2000/svg" width="16" height="16" focusable="false" viewBox="0 0 16 16">
  <path fill="currentColor" d="M15 15.001 13 15V1l2 .001v14Zm.041-15L12.963 0C12.431-.001 12 .448 12 1.002v13.995c0 .554.431 1.002.963 1.003l2.074.001c.532 0 .963-.449.963-1.002V1.001c0-.552-.429-1-.959-1ZM3 15H1V8h2v7Zm6 0H7V5h2v10ZM.957 16h2.086c.529 0 .957-.446.957-.997V7.997C4 7.446 3.572 7 3.043 7H.957C.428 7 0 7.446 0 7.997v7.006c0 .551.428.997.957.997Zm6.001 0h2.084a.959.959 0 0 0 .958-.958V4.958A.959.959 0 0 0 9.042 4H6.958A.959.959 0 0 0 6 4.958v10.084c0 .53.429.958.958.958Z"/>
</svg>
