<svg xmlns="http://www.w3.org/2000/svg" width="16" height="16" focusable="false" viewBox="0 0 16 16">
  <path fill="currentColor" d="M15.037 16.001 12.963 16c-.532-.001-.963-.449-.963-1.003V1.002c0-.554.431-1.003.963-1.002l2.078.001c.53 0 .959.448.959 1v13.998c0 .553-.431 1.002-.963 1.002ZM3.043 16H.957C.428 16 0 15.554 0 15.003V7.997C0 7.446.428 7 .957 7h2.086c.529 0 .957.446.957.997v7.006c0 .551-.428.997-.957.997Zm5.999 0H6.958A.958.958 0 0 1 6 15.042V4.958C6 4.429 6.43 4 6.958 4h2.084c.529 0 .958.43.958.958v10.084c0 .529-.43.958-.958.958Z"/>
</svg>
