<svg xmlns="http://www.w3.org/2000/svg" width="16" height="16" focusable="false" viewBox="0 0 16 16">
  <path fill="currentColor" d="M15.2 1.2C11.81.51 8.84 1.8 8 2.22 7.16 1.8 4.19.51.8 1.2c-.46.09-.8.51-.8.99v11.7c0 .29.13.57.35.76.23.19.54.27.84.22 3.01-.54 5.64.61 6.37.97.14.07.29.1.44.1.15 0 .3-.03.44-.1.73-.36 3.36-1.51 6.37-.97.3.05.61-.03.84-.22.23-.19.35-.46.35-.76V2.19c0-.48-.34-.9-.8-.99zM3.01 3.75c1.09.02 2.19.2 3.29.53a.75.75 0 01-.22 1.47c-.07 0-.15-.01-.22-.03-.96-.3-1.93-.45-2.87-.47a.749.749 0 01-.74-.76c.01-.42.36-.72.76-.74zm0 3c1.09.02 2.19.2 3.29.53a.75.75 0 01-.22 1.47c-.07 0-.15-.01-.22-.03-.96-.3-1.93-.45-2.87-.47a.749.749 0 11.02-1.5zm3.79 4.47a.76.76 0 01-.94.5c-.96-.29-1.93-.45-2.87-.47a.762.762 0 01-.74-.76c.01-.41.36-.74.76-.74 1.09.02 2.19.2 3.29.53.39.12.62.54.5.94zm6.29.03c-.95.02-1.91.17-2.87.47a.76.76 0 01-.94-.5c-.12-.4.1-.82.5-.94 1.09-.33 2.2-.51 3.28-.53h.01c.41 0 .74.33.75.74.02.41-.31.75-.73.76zm0-3c-.94.02-1.91.17-2.87.47a.76.76 0 01-.94-.5c-.12-.4.1-.81.5-.94 1.1-.33 2.2-.51 3.28-.53h.01c.41 0 .74.33.75.74.02.41-.31.75-.73.76zm0-3c-.94.02-1.91.17-2.87.47a.76.76 0 01-.94-.5c-.12-.4.1-.81.5-.94 1.1-.33 2.2-.51 3.28-.53h.01c.41 0 .74.33.75.74.02.41-.31.75-.73.76z"/>
</svg>
