<svg xmlns="http://www.w3.org/2000/svg" width="16" height="16" focusable="false" viewBox="0 0 16 16">
  <path fill="currentColor" d="M.279 3.53A.398.398 0 0 0 0 3.914c0 .174.115.327.279.382l1.021.327c.46.158.83.53.984.988l.344 1.026a.4.4 0 0 0 .382.273c.17 0 .323-.114.377-.278a7.43 7.43 0 0 0 .12-.379c.134-.449.303-1.013.585-1.253.237-.282.784-.444 1.23-.577a6.26 6.26 0 0 0 .403-.127c.367-.104.367-.66 0-.764l-1.027-.323a1.575 1.575 0 0 1-.978-.982l-.333-1.043c-.104-.365-.66-.365-.765 0L2.3 2.21c-.222.767-1.004 1.007-1.7 1.22-.11.033-.218.066-.321.1ZM7 4h-.003c-.031.483-.322 1.043-.955 1.244a7.837 7.837 0 0 1-.416.131l-.013.004c-.153.046-.292.087-.424.133a2.198 2.198 0 0 0-.301.124.579.579 0 0 0-.05.029l-.034.041-.042.036a.597.597 0 0 0-.032.053c-.037.071-.08.172-.127.305a9.677 9.677 0 0 0-.133.423l-.008.026c-.039.13-.084.282-.131.413a1.403 1.403 0 0 1-1.32.947 1.401 1.401 0 0 1-1.332-.956L1.5 6.418v.037a1.5 1.5 0 0 0 0 3V15a1 1 0 0 0 1 1h11a1 1 0 0 0 1-1V9.545a1.5 1.5 0 0 0 0-3V5a1 1 0 0 0-1-1H9V2.727A.727.727 0 0 0 8.273 2h-.546A.727.727 0 0 0 7 2.727V4Zm-.453 5a1 1 0 1 1-2 0 1 1 0 0 1 2 0Zm4.976 0a1 1 0 1 1-2 0 1 1 0 0 1 2 0ZM10 12v1H6v-1h4Z"/>
</svg>
