<svg xmlns="http://www.w3.org/2000/svg" width="16" height="16" focusable="false" viewBox="0 0 16 16">
  <path fill="currentColor" d="M6.547 9a1 1 0 1 1-2 0 1 1 0 0 1 2 0Zm4.976 0a1 1 0 1 1-2 0 1 1 0 0 1 2 0ZM6 12h4v1H6v-1ZM0 3.913c0-.175.11-.328.279-.382.754-.252 1.764-.432 2.021-1.321l.322-1.027c.104-.365.661-.365.765 0l.333 1.043c.153.458.525.83.978.982l1.027.323c.367.103.367.66 0 .764-.442.163-1.316.327-1.633.704-.372.316-.546 1.195-.705 1.632a.404.404 0 0 1-.377.278.4.4 0 0 1-.382-.273L2.284 5.61a1.591 1.591 0 0 0-.984-.988L.28 4.295A.405.405 0 0 1 0 3.913ZM2.5 7.814V15h11V5H6.495c.322-.265.48-.652.502-1H7V2.727C7 2.326 7.326 2 7.727 2h.546c.401 0 .727.326.727.727V4h4.5a1 1 0 0 1 1 1v1.545a1.5 1.5 0 0 1 0 3V15a1 1 0 0 1-1 1h-11a1 1 0 0 1-1-1V9.455a1.5 1.5 0 0 1 0-3v-.037l.18.535c.135.406.442.714.82.86Z"/>
</svg>
