<svg xmlns="http://www.w3.org/2000/svg" width="16" height="16" focusable="false" viewBox="0 0 16 16">
  <path fill="currentColor" d="M10.34,1.67A1.16,1.16,0,0,1,11.5,2.82V4.09h3.29a.15.15,0,0,1,.14.15V13.1a.14.14,0,0,1-.14.15H1.21a.14.14,0,0,1-.14-.15V4.24a.15.15,0,0,1,.14-.15H4.46V2.82A1.16,1.16,0,0,1,5.62,1.67h4.72m0-1.07H5.62A2.22,2.22,0,0,0,3.4,2.82V3H1.21A1.21,1.21,0,0,0,0,4.24V13.1a1.22,1.22,0,0,0,1.21,1.22H14.79A1.22,1.22,0,0,0,16,13.1V4.24A1.21,1.21,0,0,0,14.79,3H12.56V2.82A2.22,2.22,0,0,0,10.34.6ZM8,6.28A2.35,2.35,0,1,1,5.65,8.63,2.35,2.35,0,0,1,8,6.28m0-1a3.35,3.35,0,1,0,3.35,3.35A3.35,3.35,0,0,0,8,5.28Z"/>
</svg>
