<svg xmlns="http://www.w3.org/2000/svg" width="16" height="16" focusable="false" viewBox="0 0 16 16">
  <path fill="currentColor" d="M14 2h-.5c-.28 0-.5.22-.5.5V5c0 .55-.45 1-1 1H4c-.55 0-1-.45-1-1V2.5c0-.28-.22-.5-.5-.5H2c-.55 0-1 .45-1 1v12c0 .55.45 1 1 1h12c.55 0 1-.45 1-1V3c0-.55-.45-1-1-1Zm-2.06 7.19-4.5 4.5a.62.62 0 0 1-.44.18.62.62 0 0 1-.44-.18l-2-2a.628.628 0 0 1 0-.88c.24-.24.64-.24.88 0L7 12.37l4.06-4.06c.24-.24.64-.24.88 0 .25.24.25.64 0 .88ZM8 0C5.79 0 4 1.79 4 4v1h8V4c0-2.21-1.79-4-4-4Z"/>
</svg>
