<svg xmlns="http://www.w3.org/2000/svg" width="16" height="16" focusable="false" viewBox="0 0 16 16">
  <path fill="currentColor" d="M15.5 9a.5.5 0 01.5.5 3.5 3.5 0 01-3.308 3.495L12.5 13H9v1.5a.5.5 0 01-.788.41l-.066-.056-2.028-2.032-.03-.037-.041-.074-.03-.083-.012-.054-.003-.032L6 12.5l.003-.053.014-.075.02-.063.04-.076.04-.055 2.03-2.032a.5.5 0 01.846.268L9 10.5V12h3.5A2.5 2.5 0 0015 9.5a.5.5 0 01.5-.5zM6 0a6 6 0 014 10.472v.028c0-1.336-1.616-2.006-2.56-1.06l-2 2a1.495 1.495 0 00-.33.494A6 6 0 016 0zm.5 2l-.09.008a.5.5 0 00-.402.402L6 2.5V6H3.5l-.09.008a.5.5 0 000 .984L3.5 7h3l.09-.008a.5.5 0 00.402-.402L7 6.5v-4l-.008-.09A.5.5 0 006.5 2z"/>
</svg>
