<svg xmlns="http://www.w3.org/2000/svg" width="16" height="16" focusable="false" viewBox="0 0 16 16">
  <path fill="currentColor" d="M15.5 11a.5.5 0 01.5.5 2.5 2.5 0 01-2.336 2.495L13.5 14H9.707l1.147 1.146a.5.5 0 01.057.638l-.057.07a.5.5 0 01-.638.057l-.07-.057-2-2a.5.5 0 01-.057-.638l.057-.07 2-2a.5.5 0 01.765.638l-.057.07L9.707 13H13.5a1.5 1.5 0 001.5-1.5.5.5 0 01.5-.5zM6 0a6 6 0 015.917 7H10.9A5 5 0 107 10.9v1.017A6 6 0 116 0zm7.784 6.089l.07.057 2 2a.5.5 0 01.057.638l-.057.07-2 2a.5.5 0 01-.765-.638l.057-.07L14.293 9H10.5A1.5 1.5 0 009 10.5a.5.5 0 11-1 0 2.5 2.5 0 012.336-2.495L10.5 8l3.793-.001-1.147-1.145a.5.5 0 01-.057-.638l.057-.07a.5.5 0 01.638-.057zM6.5 2a.5.5 0 01.492.41L7 2.5v4a.5.5 0 01-.41.492L6.5 7h-3a.5.5 0 01-.09-.992L3.5 6H6V2.5a.5.5 0 01.41-.492L6.5 2z"/>
</svg>
