<svg xmlns="http://www.w3.org/2000/svg" width="16" height="16" focusable="false" viewBox="0 0 16 16">
  <path fill="currentColor" d="M15.5 11a.5.5 0 01.5.5 2.5 2.5 0 01-2.336 2.495L13.5 14l-2.5-.001V15.5a.5.5 0 01-.788.41l-.066-.056-2-2a.5.5 0 01-.057-.638l.057-.07 2-2a.5.5 0 01.847.268L11 11.5v1.499l2.5.001a1.5 1.5 0 001.5-1.5.5.5 0 01.5-.5zM6 0a6 6 0 015.917 7H10.5a3.5 3.5 0 00-3.495 3.308L7 10.5v1.417A6 6 0 116 0zm7 6.5a.5.5 0 01.788-.41l.066.056 2 2a.5.5 0 01.057.638l-.057.07-2 2a.5.5 0 01-.847-.268L13 10.5V8.999L10.5 9A1.5 1.5 0 009 10.5a.5.5 0 11-1 0 2.5 2.5 0 012.336-2.495L10.5 8l2.5-.001V6.5zM6.5 2l-.09.008a.5.5 0 00-.402.402L6 2.5V6H3.5l-.09.008a.5.5 0 000 .984L3.5 7h3l.09-.008a.5.5 0 00.402-.402L7 6.5v-4l-.008-.09A.5.5 0 006.5 2z"/>
</svg>
