<svg xmlns="http://www.w3.org/2000/svg" width="16" height="16" focusable="false" viewBox="0 0 16 16">
  <path fill="currentColor" d="M13 4c1.1 0 2 .9 2 2 0 .3-.2.5-.5.5S14 6.3 14 6c0-.6-.4-1-1-1s-1 .4-1 1 .4 1 1 1c1.1 0 1.9.8 2 1.9V10c0 1.1-.9 2-2 2s-1.9-.8-2-1.9v-.6c0-.3.2-.5.5-.5.2 0 .4.2.5.4v.6c0 .6.4 1 1 1 .5 0 .9-.4 1-.9V9c0-.5-.4-.9-.9-1H13c-1.1 0-2-.9-2-2s.9-2 2-2zM8 4c1.1 0 2 .9 2 2 0 .3-.2.5-.5.5S9 6.3 9 6c0-.6-.4-1-1-1s-1 .4-1 1 .4 1 1 1c1.1 0 1.9.8 2 1.9V10c0 1.1-.9 2-2 2s-1.9-.8-2-1.9v-.6c0-.3.2-.5.5-.5.2 0 .4.2.5.4v.6c0 .6.4 1 1 1 .5 0 .9-.4 1-.9V9c0-.5-.4-.9-.9-1H8c-1.1 0-2-.9-2-2s.9-2 2-2zM3 4c1.1 0 1.9.8 2 1.9v.6c0 .3-.2.5-.5.5-.2 0-.4-.2-.5-.4V6c0-.6-.4-1-1-1-.5 0-.9.4-1 .9V10c0 .6.4 1 1 1 .5 0 .9-.4 1-.9v-.6c0-.3.2-.5.5-.5.2 0 .4.2.5.4v.6c0 1.1-.9 2-2 2s-1.9-.8-2-1.9V6c0-1.1.9-2 2-2z"/>
</svg>
