<svg xmlns="http://www.w3.org/2000/svg" width="16" height="16" focusable="false" viewBox="0 0 16 16">
  <path fill="currentColor" d="m10 1.002-3.67-.001L2 1v14h8.5a.5.5 0 0 1 0 1H2c-.556 0-1-.444-1-1V1c0-.556.444-1 1-1h8.472a.506.506 0 0 1 .063 0h.315c.266 0 .522.105.716.3l3.166 3.216c.172.19.268.429.268.684v.265a.51.51 0 0 1 0 .063V7.5a.5.5 0 0 1-1 0V5h-3c-.556 0-1-.444-1-1V1.002Zm1 .705V4h2.293L11 1.707Z"/>
  <path fill="currentColor" d="M13.354 12.646a.484.484 0 0 0-.054-.046 3.5 3.5 0 1 0-.7.7c.014.019.03.037.046.054l2.49 2.49a.5.5 0 1 0 .708-.707l-2.49-2.49ZM10.5 13a2.5 2.5 0 1 0 0-5 2.5 2.5 0 0 0 0 5ZM6.5 7h-2a.5.5 0 0 0 0 1h2a.5.5 0 0 0 0-1Zm-2 2h1a.5.5 0 0 1 0 1h-1a.5.5 0 1 1 0-1Zm0 2a.5.5 0 0 0 0 1h1a.5.5 0 1 0 0-1h-1Z"/>
</svg>
