<svg xmlns="http://www.w3.org/2000/svg" width="16" height="16" focusable="false" viewBox="0 0 16 16">
  <path fill="currentColor" d="M10.8563807,0.000981435985 C11.122553,0.000981435985 11.3787188,0.105981436 11.5728445,0.300981436 L14.7408953,3.51698144 C14.9130068,3.70698144 15.009069,3.94598144 15.009069,4.20098144 L15.009069,7.50098144 C15.009069,7.77712381 14.7850663,8.00098144 14.5087451,8.00098144 C14.2324238,8.00098144 14.0084212,7.77712381 14.0084212,7.50098144 L14.0084212,5.00098144 L11.0064778,5.00098144 C10.4501177,5.00098144 10.00583,4.55698144 10.00583,4.00098144 L10.00583,1.00298144 L2.00064778,1.00098144 L2.00064778,15.0009814 L10.5061539,15.0009814 C10.7824752,15.0009814 11.0064778,15.2248391 11.0064778,15.5009814 C11.0064778,15.7771238 10.7824752,16.0009814 10.5061539,16.0009814 L2.00064778,16.0009814 C1.44428762,16.0009814 1,15.5569814 1,15.0009814 L1,1.00098144 C1,0.444981436 1.44428762,0.000981435985 2.00064778,0.000981435985 L10.8563807,0.000981435985 Z M12.8008455,7.85689259 C14.1893009,9.06031404 14.410713,11.1316063 13.3079677,12.6009814 L13.3620027,12.6469814 L15.8536157,15.1379814 C15.9799909,15.2644535 16.0292507,15.4486951 15.9828393,15.6213044 C15.936428,15.7939137 15.8013965,15.9286672 15.62861,15.9748044 C15.4558235,16.0209417 15.2715322,15.9714535 15.145157,15.8449814 L12.6535441,13.3549814 C12.6375337,13.3379814 12.6215233,13.3199814 12.6075143,13.3009814 C11.1371873,14.4030128 9.0645533,14.1817441 7.86035229,12.7941875 C6.65615129,11.4066309 6.73007929,9.32486412 8.02967702,8.0261077 C9.32927475,6.72735128 11.4123901,6.65347114 12.8008455,7.85689259 Z M10.5061539,8.00098144 C9.12454766,8.00098144 8.00453448,9.12026956 8.00453448,10.5009814 C8.00453448,11.8816933 9.12454766,13.0009814 10.5061539,13.0009814 C11.8877602,13.0009814 13.0077734,11.8816933 13.0077734,10.5009814 C13.0077734,9.12026956 11.8877602,8.00098144 10.5061539,8.00098144 Z M5.50291502,11.0009814 C5.77923628,11.0009814 6.00323891,11.2248391 6.00323891,11.5009814 C6.00323891,11.7771238 5.77923628,12.0009814 5.50291502,12.0009814 L4.50226724,12.0009814 C4.22594598,12.0009814 4.00194335,11.7771238 4.00194335,11.5009814 C4.00194335,11.2248391 4.22594598,11.0009814 4.50226724,11.0009814 L5.50291502,11.0009814 Z M5.50291502,9.00098144 C5.77923628,9.00098144 6.00323891,9.22483906 6.00323891,9.50098144 C6.00323891,9.77712381 5.77923628,10.0009814 5.50291502,10.0009814 L4.50226724,10.0009814 C4.22594598,10.0009814 4.00194335,9.77712381 4.00194335,9.50098144 C4.00194335,9.22483906 4.22594598,9.00098144 4.50226724,9.00098144 L5.50291502,9.00098144 Z M6.5035628,7.00098144 C6.77988406,7.00098144 7.00388669,7.22483906 7.00388669,7.50098144 C7.00388669,7.77712381 6.77988406,8.00098144 6.5035628,8.00098144 L4.50226724,8.00098144 C4.22594598,8.00098144 4.00194335,7.77712381 4.00194335,7.50098144 C4.00194335,7.22483906 4.22594598,7.00098144 4.50226724,7.00098144 L6.5035628,7.00098144 Z M11.0064778,1.70798144 L11.0064778,4.00098144 L13.3009632,4.00098144 L11.0064778,1.70798144 Z"/>
</svg>
