<svg xmlns="http://www.w3.org/2000/svg" width="16" height="16" focusable="false" viewBox="0 0 16 16">
  <path fill="currentColor" d="M12.607 13.307a3.504 3.504 0 1 1 .7-.7c.018.014.036.03.053.046l2.493 2.493a.5.5 0 1 1-.707.707l-2.493-2.493a.503.503 0 0 1-.046-.053Zm.4-2.803a2.504 2.504 0 1 1-5.007 0 2.504 2.504 0 0 1 5.008 0Z"/>
  <path fill="currentColor" d="M10 .5v3c0 .83.67 1.5 1.5 1.5h3c.28 0 .5.22.5.5v2.01c0 .27-.22.49-.49.49a.523.523 0 0 1-.414-.213A4.497 4.497 0 0 0 10.504 6a4.485 4.485 0 0 0-2.83 1H4.5c-.28 0-.5.25-.5.53s.22.47.5.47h2.26a4.488 4.488 0 0 0-.503 1H4.5c-.27 0-.5.22-.5.5s.23.5.5.5h1.528a4.55 4.55 0 0 0-.001 1H4.5c-.27 0-.5.22-.5.5s.23.5.5.5h1.754c.566 1.605 2.43 2.787 4.249 2.974a.54.54 0 0 1 .495.524.496.496 0 0 1-.496.495L2 16c-.55 0-1-.45-1-1V1c0-.55.45-1 1-1h7.5c.28 0 .5.22.5.5Z"/>
  <path fill="currentColor" d="M11 3V.5c0-.44.54-.67.85-.35l3 3c.32.31.1.85-.35.85H12c-.55 0-1-.45-1-1Z"/>
</svg>
