<svg xmlns="http://www.w3.org/2000/svg" width="16" height="16" focusable="false" viewBox="0 0 16 16">
  <path fill="currentColor" d="M2 6c0-.55.45-1 1-1h9.5c.28 0 .5-.22.5-.5V1c0-.55-.45-1-1-1H1C.45 0 0 .45 0 1v8c0 .55.45 1 1 1h.5c.28 0 .5-.22.5-.5V6zm1.5-3h6c.28 0 .5.22.5.5s-.22.5-.5.5h-6c-.28 0-.5-.22-.5-.5s.22-.5.5-.5zM15 6H4c-.55 0-1 .45-1 1v8c0 .55.45 1 1 1h11c.55 0 1-.45 1-1V7c0-.55-.45-1-1-1zm-2.5 7h-6c-.28 0-.5-.22-.5-.5s.22-.5.5-.5h6c.28 0 .5.22.5.5s-.22.5-.5.5zm0-3h-6c-.28 0-.5-.22-.5-.5s.22-.5.5-.5h6c.28 0 .5.22.5.5s-.22.5-.5.5z"/>
</svg>
