<svg xmlns="http://www.w3.org/2000/svg" width="16" height="16" focusable="false" viewBox="0 0 16 16">
  <path fill="currentColor" d="M5.22 12.549c.856.29 1.783.451 2.78.451 3.462 0 6.094-1.955 7.826-4.433a1.013 1.013 0 0 0 0-1.134c-.74-1.06-1.646-2.024-2.71-2.78l-.725.724c1.029.7 1.901 1.618 2.604 2.632C13.438 10.234 11.06 12 8 12a7.59 7.59 0 0 1-1.975-.257l-.806.806ZM6.955 10.813a3 3 0 0 0 3.858-3.858l-.825.825A2 2 0 0 1 7.78 9.988l-.825.825ZM6.012 8.22l-.825.825a3 3 0 0 1 3.858-3.858l-.825.825A2 2 0 0 0 6.012 8.22ZM9.975 4.257A7.61 7.61 0 0 0 8 4C4.938 4 2.558 5.769 1.007 7.987c.702 1.016 1.574 1.935 2.603 2.636l-.726.725C1.82 10.59.914 9.628.173 8.568a1.017 1.017 0 0 1 .006-1.145C1.905 4.955 4.537 3 8 3a8.63 8.63 0 0 1 2.782.452l-.806.805ZM1.854 14.854a.5.5 0 0 1-.708-.708l13-13a.5.5 0 0 1 .708.708l-13 13Z"/>
</svg>
