<svg xmlns="http://www.w3.org/2000/svg" width="16" height="16" focusable="false" viewBox="0 0 16 16">
  <path fill="currentColor" d="M8 13c-1.01 0-1.932-.18-2.761-.471l1.712-1.713c.322.12.67.184 1.031.184 1.65 0 3-1.35 3-3 0-.362-.064-.71-.183-1.031l2.285-2.285a11.684 11.684 0 0 1 2.729 2.736.99.99 0 0 1 0 1.16C15.084 9.62 12.37 13 8 13Zm1.039-7.807 1.722-1.722A8.303 8.303 0 0 0 8 3C3.63 3 .916 6.38.187 7.42a.992.992 0 0 0 0 1.16c.382.544 1.307 1.73 2.729 2.736l2.26-2.26A2.973 2.973 0 0 1 4.982 8c0-1.65 1.35-3 3-3 .372 0 .728.068 1.057.193ZM1.854 14.854a.5.5 0 0 1-.708-.708l13-13a.5.5 0 0 1 .708.708l-13 13ZM7.78 9.988A2 2 0 0 0 9.988 7.78L7.78 9.988Zm.44-3.976A2 2 0 0 0 6.012 8.22L8.22 6.012Z"/>
</svg>
