<svg xmlns="http://www.w3.org/2000/svg" width="16" height="16" focusable="false" viewBox="0 0 16 16">
  <path fill="currentColor" d="M8 16A8 8 0 1 0 8 0a8 8 0 0 0 0 16ZM4.394 5.063c.193-.052.41-.09.65-.081 1.082-.002 1.648.637 1.712.71h.001a.612.612 0 0 1-.073.848.612.612 0 0 1-.848-.073s-.261-.281-.79-.285c-.5-.003-.755.252-.796.293l-.005.005a.619.619 0 0 1-.845.05.592.592 0 0 1-.068-.83l.002-.003a2.154 2.154 0 0 1 1.06-.634Zm8.303.637a.592.592 0 0 1-.08.838.596.596 0 0 1-.848-.082s-.264-.289-.793-.286c-.52.006-.79.286-.793.295a.61.61 0 0 1-.843.054.588.588 0 0 1-.068-.826c.062-.077.625-.712 1.712-.711.247.004.458.03.651.081.657.176 1.017.573 1.062.637ZM4.57 8.813c1.136 3.463 5.787 3.433 6.857.008a.6.6 0 0 1 1.146.358c-1.43 4.575-7.654 4.545-9.143.008a.6.6 0 0 1 1.14-.374Z"/>
</svg>
