<svg xmlns="http://www.w3.org/2000/svg" width="16" height="16" focusable="false" viewBox="0 0 16 16">
  <path fill="currentColor" d="M4.475 8.844a.5.5 0 0 0-.95.312c1.46 4.447 7.553 4.472 8.952-.007a.5.5 0 1 0-.954-.298c-1.1 3.52-5.882 3.546-7.048-.007ZM12 6.5c-.14 0-.29-.06-.38-.18 0 0-.29-.32-.87-.32-.58 0-.86.31-.87.33-.18.2-.5.23-.7.05a.492.492 0 0 1-.06-.69c.06-.07.6-.68 1.63-.68 1.03 0 1.58.61 1.63.68.18.21.15.53-.06.7a.48.48 0 0 1-.32.11Zm-5.88-.18c.09.12.24.18.38.18.11 0 .23-.03.32-.11.21-.17.24-.49.06-.7-.05-.07-.6-.68-1.63-.68-1.03 0-1.57.61-1.63.68-.17.2-.15.51.06.69.2.18.52.15.7-.05.01-.02.29-.33.87-.33.58 0 .87.32.87.32ZM16 8A8 8 0 1 1 0 8a8 8 0 0 1 16 0Zm-1 0A7 7 0 1 0 1 8a7 7 0 0 0 14 0Z"/>
</svg>
