<svg xmlns="http://www.w3.org/2000/svg" width="16" height="16" focusable="false" viewBox="0 0 16 16">
  <path fill="currentColor" d="M8 16A8 8 0 1 0 8 0a8 8 0 0 0 0 16ZM3.65 6.718a.592.592 0 0 1-.14-.83c.19-.27.57-.34.84-.14 0 0 .33.21.84.07.5-.14.69-.48.69-.49a.61.61 0 0 1 .8-.27c.29.14.42.49.28.78-.04.09-.42.85-1.47 1.13-.24.06-.45.09-.65.09-.68 0-1.13-.29-1.19-.34Zm6.875.267c-1.045-.279-1.426-1.042-1.47-1.129v-.001c-.14-.3 0-.66.29-.8.3-.14.66 0 .8.29 0 0 .18.34.69.48.481.132.793-.048.844-.077l.006-.003c.27-.17.64-.1.83.17.18.27.12.63-.15.82l-.003.001c-.069.046-.506.339-1.187.339-.2 0-.42-.02-.65-.09Zm1.184 5.077a.6.6 0 0 1-.771-.353C10.566 10.71 9.375 10.1 8 10.1c-1.375 0-2.566.609-2.938 1.61a.6.6 0 0 1-1.124-.42C4.558 9.625 6.37 8.9 8 8.9c1.629 0 3.443.724 4.062 2.39a.6.6 0 0 1-.353.772Z"/>
</svg>
