<svg xmlns="http://www.w3.org/2000/svg" width="16" height="16" focusable="false" viewBox="0 0 16 16">
  <path fill="currentColor" d="M3.71 7.3c.06.04.48.32 1.13.32.19 0 .41-.01.64-.07.995-.269 1.356-.992 1.4-1.079V6.47c.11-.25.01-.54-.24-.66a.509.509 0 0 0-.67.23l-.006.01c-.04.061-.25.392-.754.53-.55.14-.92-.09-.92-.09a.499.499 0 1 0-.58.81Zm7.5.32c-.19 0-.4-.02-.63-.08-1-.27-1.37-1-1.4-1.08-.12-.25 0-.55.25-.66.25-.11.55 0 .66.24 0 0 .2.39.75.53.522.142.872-.057.924-.087l.006-.003a.505.505 0 0 1 .57.83c-.06.04-.48.31-1.13.31Zm-.179 4.054a.5.5 0 0 0 .938-.348C11.369 9.715 9.608 9 8 9c-1.608 0-3.37.715-3.969 2.326a.5.5 0 0 0 .938.348C5.36 10.618 6.604 10 8 10c1.396 0 2.639.618 3.031 1.674ZM16 8A8 8 0 1 1 0 8a8 8 0 0 1 16 0Zm-1 0A7 7 0 1 0 1 8a7 7 0 0 0 14 0Z"/>
</svg>
