<svg xmlns="http://www.w3.org/2000/svg" width="16" height="16" focusable="false" viewBox="0 0 16 16">
  <path fill="currentColor" d="M10 3.5v-3c0-.28-.22-.5-.5-.5H2c-.55 0-1 .45-1 1v14c0 .55.45 1 1 1h12c.55 0 1-.45 1-1V5.5c0-.28-.22-.5-.5-.5h-3c-.83 0-1.5-.67-1.5-1.5zm.5 3.5c.83 0 1.5.67 1.5 1.5s-.67 1.5-1.5 1.5S9 9.33 9 8.5 9.67 7 10.5 7zm2.44 6.94c-.12.12-.28.18-.44.18s-.32-.06-.44-.18l-1.56-1.56-.7.71c-.44.44-1.15.44-1.59 0l-1.7-1.71-2.56 2.56c-.24.24-.64.24-.88 0s-.24-.64 0-.88l2.65-2.65c.44-.44 1.15-.44 1.59 0L9 12.12l.7-.71c.44-.44 1.15-.44 1.59 0l1.65 1.65c.25.24.25.64 0 .88zM11 .5V3c0 .55.45 1 1 1h2.5c.45 0 .67-.54.35-.85l-3-3C11.54-.17 11 .06 11 .5z"/>
</svg>
