<svg xmlns="http://www.w3.org/2000/svg" width="16" height="16" focusable="false" viewBox="0 0 16 16">
  <path fill="currentColor" d="M10 3.5v-3c0-.28-.22-.5-.5-.5H2c-.55 0-1 .45-1 1v14c0 .55.45 1 1 1h12c.55 0 1-.45 1-1V5.5c0-.28-.22-.5-.5-.5h-3c-.83 0-1.5-.67-1.5-1.5zM6.5 12h-2c-.28 0-.5-.22-.5-.5s.22-.5.5-.5h2c.28 0 .5.22.5.5s-.22.5-.5.5zm0-2h-2c-.28 0-.5-.22-.5-.5s.22-.5.5-.5h2c.28 0 .5.22.5.5s-.22.5-.5.5zm0-2h-2c-.28 0-.5-.22-.5-.5s.22-.5.5-.5h2c.28 0 .5.22.5.5s-.22.5-.5.5zm5 4h-3c-.28 0-.5-.22-.5-.5s.22-.5.5-.5h3c.28 0 .5.22.5.5s-.22.5-.5.5zm0-2h-3c-.28 0-.5-.22-.5-.5s.22-.5.5-.5h3c.28 0 .5.22.5.5s-.22.5-.5.5zm0-2h-3c-.28 0-.5-.22-.5-.5s.22-.5.5-.5h3c.28 0 .5.22.5.5s-.22.5-.5.5zM11 .5V3c0 .55.45 1 1 1h2.5c.45 0 .67-.54.35-.85l-3-3C11.54-.17 11 .06 11 .5z"/>
</svg>
