<svg xmlns="http://www.w3.org/2000/svg" width="16" height="16" focusable="false" viewBox="0 0 16 16">
  <path fill="currentColor" d="M8 0C3.582 0 0 3.672 0 8.203c0 3.624 2.292 6.698 5.471 7.783.4.075.546-.178.546-.396 0-.194-.006-.71-.01-1.395-2.226.496-2.695-1.1-2.695-1.1-.364-.947-.888-1.199-.888-1.199-.727-.509.055-.499.055-.499.803.059 1.225.846 1.225.846.713 1.253 1.872.89 2.328.681.073-.53.28-.891.508-1.096-1.776-.207-3.644-.911-3.644-4.054 0-.896.312-1.628.824-2.201-.083-.208-.357-1.042.078-2.171 0 0 .671-.22 2.2.84A7.485 7.485 0 018 3.967c.68.004 1.364.095 2.003.277 1.528-1.062 2.198-.841 2.198-.841.436 1.13.162 1.963.08 2.17.512.574.822 1.306.822 2.202 0 3.15-1.87 3.844-3.653 4.047.288.253.543.754.543 1.52 0 1.096-.01 1.98-.01 2.25 0 .219.144.474.55.394C13.71 14.898 16 11.825 16 8.203 16 3.673 12.418 0 8 0"/>
</svg>
