<svg xmlns="http://www.w3.org/2000/svg" width="16" height="16" focusable="false" viewBox="0 0 16 16">
  <path fill="currentColor" d="M8 0a8 8 0 110 16A8 8 0 018 0zm0 .979C4.139.979 1 4.118 1 8a7.022 7.022 0 004.805 6.67l-.018-.003c.35.064.478-.153.478-.339l-.01-1.194c-1.529.333-2.11-.439-2.29-.785l-.067-.157c-.318-.811-.777-1.027-.777-1.027-.636-.436.048-.427.048-.427.502.035.834.39.982.589l.09.135c.624 1.073 1.638.763 2.037.583.064-.454.244-.763.444-.939l-.283-.037c-1.463-.22-2.905-.906-2.905-3.434 0-.767.273-1.394.72-1.885l-.052-.154c-.088-.3-.188-.919.121-1.704l.085-.014c.206-.017.794.022 1.84.734A6.683 6.683 0 018 4.375c.595.003 1.194.08 1.753.237 1.336-.91 1.923-.72 1.923-.72.382.967.142 1.68.07 1.858.448.491.72 1.118.72 1.885 0 2.698-1.638 3.292-3.197 3.466.251.217.475.645.475 1.3l-.008 1.927c0 .184.12.398.46.342A7.024 7.024 0 0015 8C15 4.118 11.861.979 8 .979z"/>
</svg>
