<svg xmlns="http://www.w3.org/2000/svg" width="16" height="16" focusable="false" viewBox="0 0 16 16">
  <path fill="currentColor" d="M5.86 12.12C6.3 14.44 7.09 16 8 16c.91 0 1.7-1.56 2.14-3.88zm4.28-8.24C9.7 1.56 8.91 0 8 0c-.91 0-1.7 1.56-2.14 3.88zm5.32 7a8 8 0 000-5.76h-3.88A25.37 25.37 0 0111.75 8a25.37 25.37 0 01-.17 2.88zm-5.13-5.76H5.67a24.48 24.48 0 000 5.76h4.66A23.86 23.86 0 0010.5 8a23.86 23.86 0 00-.17-2.88zM4.25 8a25.37 25.37 0 01.17-2.88H.54a8 8 0 000 5.76h3.88A25.37 25.37 0 014.25 8zm7.15 4.12a11.23 11.23 0 01-1.15 3.55 8 8 0 004.6-3.55zm0-8.24h3.45a8 8 0 00-4.6-3.55 11.23 11.23 0 011.15 3.55zm-6.8 8.24H1.15a8 8 0 004.6 3.55 11.23 11.23 0 01-1.15-3.55zm0-8.24A11.23 11.23 0 015.75.33a8 8 0 00-4.6 3.55z"/>
</svg>
