<svg xmlns="http://www.w3.org/2000/svg" width="16" height="16" focusable="false" viewBox="0 0 16 16">
  <path fill="currentColor" d="M2.976.347a.5.5 0 0 0-.953.002l-.248.786a1.026 1.026 0 0 1-.636.634l-.794.26a.5.5 0 0 0 .002.95l.781.252a1.026 1.026 0 0 1 .636.64l.266.789a.5.5 0 0 0 .95-.008l.252-.787a1.01 1.01 0 0 1 .63-.633l.79-.252a.5.5 0 0 0-.001-.953l-.79-.25a1.006 1.006 0 0 1-.63-.632L2.977.347ZM8.98 3.5a4 4 0 0 1 4.012 3.75h-.242a.5.5 0 0 0-.5.5v3.75a.5.5 0 0 0 .5.5h.18c-.195.964-.691 1.44-1.133 1.69a2.477 2.477 0 0 1-.888.296 1.5 1.5 0 1 0 .009 1.005 3.476 3.476 0 0 0 1.373-.431c.726-.412 1.435-1.185 1.654-2.56H14a2 2 0 0 0 2-2v-.75a2 2 0 0 0-2-2h-.006A5 5 0 0 0 5.26 4.182c.286.146.541.382.697.722a4.012 4.012 0 0 1 1.45-1.073A4 4 0 0 1 8.979 3.5ZM5.08 5.411a.557.557 0 0 0-.42-.393c-.29-.069-.632.062-.726.393l-.484 1.54C3.118 8.102 1.944 8.46.901 8.78c-.165.05-.328.1-.483.152A.597.597 0 0 0 0 9.505c0 .262.172.491.418.573l1.532.492a2.387 2.387 0 0 1 1.475 1.481l.517 1.54a.6.6 0 0 0 .573.409.605.605 0 0 0 .566-.418c.057-.157.116-.354.18-.567.201-.674.454-1.52.877-1.88.355-.423 1.177-.666 1.846-.865.227-.067.436-.13.604-.192.55-.155.55-.99 0-1.146l-1.54-.483A2.362 2.362 0 0 1 5.58 6.975l-.5-1.564Z"/>
</svg>
