<svg xmlns="http://www.w3.org/2000/svg" width="16" height="16" focusable="false" viewBox="0 0 16 16">
  <path fill="currentColor" d="M9.968 2.404A5 5 0 0 0 3 7h.33c.37 0 .67.285.67.625v3.75c0 .35-.3.625-.67.625H2c-1.11 0-2-.844-2-1.875v-1.25C0 7.833.902 7 2 7a6 6 0 0 1 12 0c1.11 0 2 .844 2 1.875v1.25C16 11.167 15.098 12 14 12h-.1c-.393 1.452-1.452 2.209-2.405 2.59a5.52 5.52 0 0 1-.519.177 1.5 1.5 0 1 1-.164-.995 4.38 4.38 0 0 0 .312-.111c.697-.279 1.392-.768 1.726-1.661h-.18c-.37 0-.67-.285-.67-.625v-3.75c0-.35.3-.625.67-.625H13a4.999 4.999 0 0 0-3.032-4.596ZM13 11h1c.612 0 1-.45 1-.875v-1.25C15 8.453 14.616 8 14 8h-1v3ZM3 8H2c-.612 0-1 .45-1 .875v1.25c0 .422.384.875 1 .875h1V8Z"/>
</svg>
