<svg xmlns="http://www.w3.org/2000/svg" width="16" height="16" focusable="false" viewBox="0 0 16 16">
  <path fill="currentColor" d="M5 10v2h6v-2h4V1c0-.55-.45-1-1-1H2c-.55 0-1 .45-1 1v9h4zm-.5-7h7c.28 0 .5.22.5.5s-.22.5-.5.5h-7c-.28 0-.5-.22-.5-.5s.22-.5.5-.5zm0 2h7c.28 0 .5.22.5.5s-.22.5-.5.5h-7c-.28 0-.5-.22-.5-.5s.22-.5.5-.5zm0 2h7c.28 0 .5.22.5.5s-.22.5-.5.5h-7c-.28 0-.5-.22-.5-.5s.22-.5.5-.5zm7.5 4v1c0 .55-.45 1-1 1H5c-.55 0-1-.45-1-1v-1H1v4c0 .55.45 1 1 1h12c.55 0 1-.45 1-1v-4h-3z"/>
</svg>
