<svg xmlns="http://www.w3.org/2000/svg" width="16" height="16" focusable="false" viewBox="0 0 16 16">
  <path fill="currentColor" d="M8 .5A7.5 7.5 0 1 0 15.5 8 7.5 7.5 0 0 0 8 .5zm6.25 10.25H11c-.06.37-.13.73-.22 1.07a6.33 6.33 0 0 1-1.27 2.67 2.07 2.07 0 0 1-1.51.76 2.07 2.07 0 0 1-1.53-.76 5.2 5.2 0 0 1-.94-1.62A10.91 10.91 0 0 1 5 10.75H1.75a.75.75 0 0 1 0-1.5H4.8v-2.5h-3a.75.75 0 0 1 0-1.5H5c.06-.37.13-.73.22-1.07a6.33 6.33 0 0 1 1.25-2.67A2.07 2.07 0 0 1 8 .75a2.07 2.07 0 0 1 1.53.76 5.2 5.2 0 0 1 .94 1.62A11.68 11.68 0 0 1 11 5.25h3.23a.75.75 0 0 1 0 1.5H11.2c0 .41.05.82.05 1.25s0 .84-.05 1.25h3.05a.75.75 0 0 1 0 1.5zm-4.9-6.2a5.06 5.06 0 0 0-.93-2c-.22-.24-.35-.27-.42-.27s-.2 0-.42.27a3.56 3.56 0 0 0-.65 1.15 9.47 9.47 0 0 0-.42 1.58h3c-.06-.28-.11-.51-.16-.73zM6.3 6.75v2.5h3.4c0-.4.05-.82.05-1.25s0-.85-.05-1.25zm.35 4.7a5.06 5.06 0 0 0 .93 2c.22.24.35.27.42.27s.2 0 .42-.27a3.56 3.56 0 0 0 .65-1.15 9.47 9.47 0 0 0 .42-1.58h-3c.06.28.11.51.16.73z"/>
</svg>
