<svg xmlns="http://www.w3.org/2000/svg" width="16" height="16" focusable="false" viewBox="0 0 16 16">
  <path fill="currentColor" d="M8 15c1.05 0 1.95-1.81 2.32-4.38H5.68C6.05 13.19 7 15 8 15zm2.5-7c0-.47 0-.93-.05-1.38h-4.9v2.76h4.9c.03-.45.05-.91.05-1.38zm1.08-2.62h2.91a7 7 0 0 0-4.07-3.94 11.1 11.1 0 0 1 1.16 3.94zm3.28 4a6.87 6.87 0 0 0 0-2.76H11.7c0 .46.05.92.05 1.38s0 .92-.05 1.38zm-3.28 1.24a11.1 11.1 0 0 1-1.16 3.94 7 7 0 0 0 4.07-3.94zM8 1C7 1 6.05 2.81 5.68 5.38h4.64C10 2.81 9.05 1 8 1zM1.14 6.62a6.87 6.87 0 0 0 0 2.76H4.3V6.62zm3.28 4H1.51a7 7 0 0 0 4.07 3.94 11.1 11.1 0 0 1-1.16-3.94zm0-5.24a11.1 11.1 0 0 1 1.16-3.94 7 7 0 0 0-4.07 3.94z"/>
</svg>
