<svg xmlns="http://www.w3.org/2000/svg" width="16" height="16" focusable="false" viewBox="0 0 16 16">
  <path fill="currentColor" d="M13.68 3.21l-2.53 2.53c-.16.16-.18.41-.07.61.27.49.42 1.05.42 1.65 0 .6-.15 1.16-.42 1.65-.11.2-.09.45.07.61l2.53 2.53c.21.21.57.2.75-.04A7.983 7.983 0 0016 8c0-1.78-.59-3.42-1.57-4.75a.494.494 0 00-.75-.04zM5.73 4.85c.16.16.41.18.61.07.5-.27 1.06-.42 1.66-.42.6 0 1.16.15 1.66.42.2.11.45.09.61-.07l2.53-2.53c.21-.21.2-.57-.04-.75A8.036 8.036 0 008 0C6.22 0 4.58.59 3.25 1.57c-.24.18-.26.54-.04.75l2.52 2.53zm4.54 6.3a.512.512 0 00-.61-.07c-.5.27-1.06.42-1.66.42-.6 0-1.16-.15-1.66-.42a.512.512 0 00-.61.07L3.2 13.68c-.21.21-.2.57.04.75C4.58 15.41 6.22 16 8 16c1.78 0 3.42-.59 4.75-1.57.24-.18.25-.54.04-.75l-2.52-2.53zm-5.42-.88c.16-.16.18-.41.07-.61C4.65 9.16 4.5 8.6 4.5 8c0-.6.15-1.16.42-1.66.11-.2.09-.45-.07-.61L2.32 3.21c-.21-.21-.57-.2-.75.04A7.983 7.983 0 000 8c0 1.78.59 3.42 1.57 4.75.18.24.54.25.75.04l2.53-2.52z"/>
</svg>
