<svg xmlns="http://www.w3.org/2000/svg" width="16" height="16" focusable="false" viewBox="0 0 16 16">
  <path fill="currentColor" d="M8 .5c4.41 0 8 2.9 8 6.465 0 1.44-.563 2.746-1.723 3.991-1.615 1.822-5.198 4.043-6.075 4.4-.106.044-.346.144-.607.144a.766.766 0 01-.482-.154c-.356-.274-.284-.72-.256-.89l.106-.65c.039-.296.01-.391.006-.404.014.038-.087-.019-.301-.063C2.82 12.84 0 10.156 0 6.965 0 3.401 3.589.5 8 .5zm0 .981c-3.86 0-7 2.46-7 5.484 0 2.693 2.455 4.966 5.837 5.406.58.12.925.341 1.06.664.093.23.109.51.056.912l-.08.48c.896-.398 4.19-2.469 5.658-4.123C14.535 9.224 15 8.165 15 6.965c0-3.024-3.14-5.484-7-5.484zM3.165 4.974c.237 0 .429.19.429.421v2.772h1.198c.236 0 .429.188.429.42a.427.427 0 01-.429.422H3.165a.428.428 0 01-.43-.421V5.395c0-.23.195-.42.43-.42zm2.88 0c.235 0 .428.19.428.421v3.193c0 .23-.193.42-.43.42a.427.427 0 01-.428-.42V5.395c0-.23.193-.42.43-.42zm3.913 0c.235 0 .429.19.429.421v3.193a.422.422 0 01-.43.419.422.422 0 01-.348-.167L7.943 6.62v1.968c0 .23-.19.42-.429.42a.424.424 0 01-.427-.42V5.395a.42.42 0 01.425-.42c.133 0 .256.07.338.17l1.678 2.228V5.395c0-.23.193-.42.43-.42zm3.06 0c.236 0 .427.19.427.421a.425.425 0 01-.429.422h-1.197v.753h1.197c.238 0 .429.19.429.422 0 .23-.191.421-.429.421h-1.197v.754h1.197c.238 0 .429.188.429.42a.426.426 0 01-.429.422h-1.627a.426.426 0 01-.428-.421V5.395c0-.23.192-.42.43-.42h1.627z"/>
</svg>
