<svg xmlns="http://www.w3.org/2000/svg" width="16" height="16" focusable="false" viewBox="0 0 16 16">
  <path fill="currentColor" d="M5.422 6.866l.114.103.512.513-1.061 1.061-.512-.513-2.25 2.25-.12.13a2.475 2.475 0 003.49 3.49l.13-.12 2.25-2.25-.513-.512 1.061-1.061.513.512a1.5 1.5 0 01.103 2.008l-.103.114-2.25 2.25a3.975 3.975 0 01-5.772-5.463l.15-.159 2.25-2.25A1.5 1.5 0 015.3 6.777l.122.09zM12.03 3.97a.75.75 0 01.073.976l-.073.084-7 7a.75.75 0 01-1.133-.976l.073-.084 7-7a.75.75 0 011.06 0zm2.81-2.806a3.974 3.974 0 01.15 5.463l-.15.159-1.75 1.75a1.5 1.5 0 01-2.007.103l-.114-.103-.512-.513 1.061-1.061.512.513 1.75-1.75.12-.13a2.475 2.475 0 00-3.49-3.49l-.13.12-1.75 1.75.512.512-1.06 1.061-.513-.512a1.5 1.5 0 01-.103-2.008l.103-.114 1.75-1.75a3.975 3.975 0 015.622 0z"/>
</svg>
