<svg xmlns="http://www.w3.org/2000/svg" width="16" height="16" focusable="false" viewBox="0 0 16 16">
  <path fill="currentColor" d="M.784 2.089l.07.057L7 8.293l4.146-4.147.07-.057a.5.5 0 01.695.695l-.057.07L7.707 9l6.147 6.146a.5.5 0 01-.638.765l-.07-.057-3.795-3.796-2.815 2.816a3.829 3.829 0 01-5.257.15l-.158-.15a3.829 3.829 0 01-.149-5.256l.15-.158 2.815-2.816-3.79-3.79a.5.5 0 01.637-.765zm3.86 5.262l-2.816 2.816-.132.142a2.829 2.829 0 003.99 3.99l.142-.132 2.816-2.816L7 9.707l-2.146 2.147-.07.057a.5.5 0 01-.695-.695l.057-.07L6.293 9 4.644 7.351zm10.233-6.23a3.829 3.829 0 01.15 5.257l-.15.158-2 2a1 1 0 01-1.32.083l-.094-.083-.94-.94.708-.707.939.94 2-2 .132-.142a2.829 2.829 0 00-3.99-3.99l-.142.131-2 2 .939.939-.707.708-.94-.94a1 1 0 01-.082-1.32l.083-.094 2-2a3.828 3.828 0 015.414 0z"/>
</svg>
