<svg xmlns="http://www.w3.org/2000/svg" width="16" height="16" focusable="false" viewBox="0 0 16 16">
  <path fill="currentColor" d="M15 0a1 1 0 01.993.883L16 1v14a1 1 0 01-.883.993L15 16H1a1 1 0 01-.993-.883L0 15V1A1 1 0 01.883.007L1 0h14zm0 1H1v14h14V1zm-4.56 5.082c2.032 0 2.462 1.292 2.488 3.004v3.843h-2.074V9.464c-.01-.731-.11-1.556-1.079-1.556-1.029 0-1.227.766-1.244 1.592l-.001 3.429H6.455v-6.68h1.992v.912h.028a2.182 2.182 0 011.964-1.079zm-5.288.166v6.68H3.075v-6.68h2.077zm-1.038-3.32a1.204 1.204 0 110 2.407 1.204 1.204 0 010-2.408z"/>
</svg>
