<svg xmlns="http://www.w3.org/2000/svg" width="16" height="16" focusable="false" viewBox="0 0 16 16">
  <path fill="currentColor" d="M1.196 2.147l.084.073L7 7.94l3.97-3.97.084-.073a.75.75 0 011.049 1.05l-.073.083L8.061 9l5.72 5.72a.75.75 0 01-.977 1.133l-.084-.073-3.437-3.436-2.497 2.497A3.975 3.975 0 111.164 9.22l2.497-2.498L.22 3.28a.75.75 0 01.976-1.133zm3.526 5.636l-2.497 2.498a2.475 2.475 0 003.5 3.5l2.496-2.499L7 10.062 5.03 12.03l-.084.073a.75.75 0 01-1.049-1.05l.073-.083L5.939 9 4.722 7.783zM14.811 1.19a3.975 3.975 0 010 5.622l-1.75 1.75a1.5 1.5 0 01-2.122 0l-.512-.513 1.061-1.06L12 7.5l1.75-1.75a2.475 2.475 0 00-3.5-3.5L8.5 4l.512.512-1.06 1.061-.513-.512a1.5 1.5 0 010-2.122l1.75-1.75a3.975 3.975 0 015.622 0z"/>
</svg>
