<svg xmlns="http://www.w3.org/2000/svg" width="16" height="16" focusable="false" viewBox="0 0 16 16">
  <path fill="currentColor" d="M1.5 3a.5.5 0 010-1h9a.5.5 0 110 1h-9zm0 5a.5.5 0 010-1h9a.5.5 0 110 1h-9zm0 5a.5.5 0 110-1h9a.5.5 0 110 1h-9zm11.11-8.2c-.2 0-.33-.13-.33-.34v-.14c0-.2.13-.33.33-.33h.44V2.25l-.08.08c-.08.07-.15.1-.23.1-.06 0-.15-.02-.24-.12l-.1-.09a.364.364 0 01-.1-.24c0-.06.02-.14.11-.23l.63-.61c.11-.1.22-.14.35-.14h.21c.2 0 .33.13.33.34V4h.43c.21 0 .33.13.33.33v.14c0 .21-.13.34-.33.34h-1.75V4.8zm0 5.05c-.21 0-.35-.13-.35-.33 0-.9.59-1.32 1.07-1.65.32-.22.59-.41.59-.65 0-.27-.22-.37-.41-.37-.22 0-.37.15-.43.22-.1.1-.19.14-.28.14-.07 0-.14-.03-.2-.08l-.13-.1c-.16-.12-.19-.29-.08-.45.2-.27.57-.59 1.17-.59.75 0 1.28.48 1.28 1.17 0 .72-.57 1.09-1.02 1.39-.26.18-.48.33-.57.5h1.3c.21 0 .34.13.34.33v.14c0 .21-.13.33-.34.33h-1.94zm.86 5c-.5 0-.87-.2-1.1-.37-.16-.12-.18-.3-.07-.46l.1-.15c.08-.13.18-.15.25-.15s.13.02.21.07c.13.09.32.21.57.21.3 0 .51-.17.51-.41 0-.39-.49-.43-.63-.43-.24 0-.35-.07-.42-.21-.09-.18-.06-.32.04-.45 0 0 .58-.68.59-.7h-.87c-.2 0-.33-.13-.33-.33v-.14c0-.21.13-.33.33-.33h1.75c.21 0 .34.13.34.33s-.04.3-.13.4l-.63.73c.46.14.86.51.86 1.11.01.63-.47 1.28-1.37 1.28z"/>
</svg>
