<svg xmlns="http://www.w3.org/2000/svg" width="16" height="16" focusable="false" viewBox="0 0 16 16">
  <path fill="currentColor" d="M8 0c4.507 0 8 3.301 8 7.76 0 4.46-3.493 7.76-8 7.76-.81 0-1.588-.106-2.316-.308a.635.635 0 00-.427.033l-1.587.7a.642.642 0 01-.899-.567l-.042-1.422a.65.65 0 00-.216-.456C.956 12.108 0 10.092 0 7.76 0 3.301 3.492 0 8 0zm0 1C4.01 1 1 3.905 1 7.76c0 1.964.773 3.738 2.18 4.994.338.306.531.718.548 1.165l.027.896 1.1-.484a1.61 1.61 0 011.091-.082c.657.18 1.346.271 2.054.271 3.99 0 7-2.906 7-6.76C15 3.906 11.99 1 8 1zm4.252 4.466c.337-.256.778.148.551.506L10.453 9.7a1.2 1.2 0 01-1.735.321L6.85 8.617a.481.481 0 00-.578.002l-2.524 1.916c-.337.256-.777-.148-.55-.506l2.35-3.727a1.2 1.2 0 011.735-.32L9.15 7.383a.483.483 0 00.58 0z"/>
</svg>
