<svg xmlns="http://www.w3.org/2000/svg" width="16" height="16" focusable="false" viewBox="0 0 16 16">
  <path fill="currentColor" d="M.983 4.43C3.158.568 7.871-1.083 11.511.745c2.207 1.108 3.086 3.654 2.032 5.763l-.102.19-.772 1.372a1.25 1.25 0 00-.14.869c.078.378.33.722.719.917.106.062.24.104.393.138l.157.031.58.096.242.05c.684.158 1.334.502 1.376 1.64a1.98 1.98 0 01-.015.332c-.144 1.097-1.195 1.897-2.25 2.445l-.186.094-.369.172-.35.15-.33.131-.562.205c-2.315.806-5.062 1.019-7.477-.194C.363 13.09-1.193 8.292.983 4.43zm10.08-2.79C7.916.058 3.776 1.507 1.854 4.92c-1.89 3.358-.539 7.53 3.052 9.332 1.854.932 4.107.97 6.364.255l.323-.107.535-.195.304-.12.32-.136.351-.164c1.14-.56 1.81-1.187 1.886-1.772a.98.98 0 00.008-.165c-.017-.446-.11-.573-.471-.672l-.106-.026-.204-.043-.595-.098c-.301-.054-.533-.116-.717-.203l-.105-.056a2.327 2.327 0 01-1.25-1.612 2.245 2.245 0 01.156-1.375l.093-.183.772-1.372c.924-1.64.263-3.68-1.507-4.569zM9.5 3a1.5 1.5 0 110 3 1.5 1.5 0 010-3zm0 1a.5.5 0 100 1 .5.5 0 000-1zm-5 4a1.5 1.5 0 110 3 1.5 1.5 0 010-3zm0 1a.5.5 0 100 1 .5.5 0 000-1zm1-5a1.5 1.5 0 110 3 1.5 1.5 0 010-3zm0 1a.5.5 0 100 1 .5.5 0 000-1z"/>
</svg>
