<svg xmlns="http://www.w3.org/2000/svg" width="16" height="16" focusable="false" viewBox="0 0 16 16">
  <path fill="currentColor" d="M11.511.745c2.207 1.108 3.086 3.654 2.032 5.763l-.102.19-.772 1.372a1.25 1.25 0 00-.14.869c.078.378.33.722.719.917.106.062.24.104.393.138l.157.031.58.096.242.05c.684.158 1.334.502 1.376 1.64a1.98 1.98 0 01-.015.332c-.144 1.097-1.195 1.897-2.25 2.445l-.186.094-.369.172-.35.15-.33.131-.562.205c-2.315.806-5.062 1.019-7.477-.194C.363 13.09-1.193 8.292.983 4.43 3.158.568 7.871-1.083 11.511.745zM4.5 8a1.5 1.5 0 100 3 1.5 1.5 0 000-3zm1-4a1.5 1.5 0 100 3 1.5 1.5 0 000-3zm4-1a1.5 1.5 0 100 3 1.5 1.5 0 000-3z"/>
</svg>
