<svg xmlns="http://www.w3.org/2000/svg" width="16" height="16" focusable="false" viewBox="0 0 16 16">
  <path fill="currentColor" d="M10.2928932,10.2928932 C10.6834175,9.90236893 11.3165825,9.90236893 11.7071068,10.2928932 L13.7071068,12.2928932 C14.0976311,12.6834175 14.0976311,13.3165825 13.7071068,13.7071068 L12.4748737,14.9393398 C11.1080387,16.3061748 8.89196129,16.3061748 7.52512627,14.9393398 L1.06066017,8.47487373 C-0.306174849,7.10803871 -0.306174849,4.89196129 1.06066017,3.52512627 L2.29289322,2.29289322 C2.68341751,1.90236893 3.31658249,1.90236893 3.70710678,2.29289322 L5.70710678,4.29289322 C6.09763107,4.68341751 6.09763107,5.31658249 5.70710678,5.70710678 L4.41421356,7 L9,11.5857864 L10.2928932,10.2928932 Z M10.1464466,0.146446609 C10.4404302,-0.147536992 10.9291843,0.0271945256 10.9930449,0.413967975 L11,0.5 L11,2.99999762 L14.3636364,3 C15.2121212,3 15.2121212,4 14.3636364,4 L11,3.99999762 L11,6.5 C11,6.9157556 10.5308449,7.13780306 10.2121985,6.90946921 L10.1464466,6.85355339 L7.14644661,3.85355339 C6.97288026,3.67998704 6.95359511,3.41056264 7.08859116,3.2156945 L7.14644661,3.14644661 L10.1464466,0.146446609 Z"/>
</svg>
