<svg xmlns="http://www.w3.org/2000/svg" width="16" height="16" focusable="false" viewBox="0 0 16 16">
  <path fill="currentColor" d="M10.22 16c-.89 0-1.79-.34-2.47-1.02L1.02 8.25A3.472 3.472 0 010 5.78c0-.93.36-1.81 1.02-2.47L2.4 1.94c.19-.19.52-.19.71 0L6.1 4.93c.09.09.15.22.15.35s-.07.26-.16.36L4.95 6.78l4.27 4.27 1.14-1.14c.2-.2.51-.2.71 0l2.99 2.99c.2.2.2.51 0 .71l-1.37 1.37A3.49 3.49 0 0110.22 16zm5.28-9H10c-.55 0-1-.45-1-1V.5c0-.2.12-.38.31-.46s.4-.04.54.11l6 6c.15.14.19.35.11.54S15.7 7 15.5 7z"/>
</svg>
