<svg xmlns="http://www.w3.org/2000/svg" width="16" height="16" focusable="false" viewBox="0 0 16 16">
  <path fill="currentColor" d="M10.22 16c-.89 0-1.79-.34-2.47-1.02L1.02 8.25A3.472 3.472 0 0 1 0 5.78c0-.93.36-1.81 1.02-2.47L2.4 1.94c.19-.19.52-.19.71 0L6.1 4.93c.09.09.15.22.15.35s-.07.26-.16.36L4.95 6.78l4.27 4.27 1.14-1.14c.2-.2.51-.2.71 0l2.99 2.99c.2.2.2.51 0 .71l-1.37 1.37A3.49 3.49 0 0 1 10.22 16zM12 6.5v-6c0-.45.54-.67.85-.35L15.5 2.8c.39.39.39 1.02 0 1.41l-2.65 2.65A.5.5 0 0 1 12 6.5z"/>
  <path stroke="currentColor" stroke-linecap="round" d="M15 3.5H8"/>
</svg>
