<svg xmlns="http://www.w3.org/2000/svg" width="16" height="16" focusable="false" viewBox="0 0 16 16">
  <path fill="currentColor" d="M10.22 16c-.89 0-1.79-.34-2.47-1.02L1.02 8.25A3.472 3.472 0 0 1 0 5.78c0-.93.36-1.81 1.02-2.47L2.4 1.94c.19-.19.52-.19.71 0L6.1 4.93c.09.09.15.22.15.35s-.07.26-.16.36L4.95 6.78l4.27 4.27 1.14-1.14c.2-.2.51-.2.71 0l2.99 2.99c.2.2.2.51 0 .71l-1.37 1.37A3.49 3.49 0 0 1 10.22 16zm3.28-7a.47.47 0 0 1-.35-.15l-6-6a.474.474 0 0 1-.11-.54c.08-.19.26-.31.46-.31H13c.55 0 1 .45 1 1v5.5c0 .2-.12.38-.31.46-.06.03-.13.04-.19.04z"/>
</svg>
