<svg xmlns="http://www.w3.org/2000/svg" width="16" height="16" focusable="false" viewBox="0 0 16 16">
  <path fill="currentColor" d="M10.2928932,10.2928932 C10.6834175,9.90236893 11.3165825,9.90236893 11.7071068,10.2928932 L13.7071068,12.2928932 C14.0976311,12.6834175 14.0976311,13.3165825 13.7071068,13.7071068 L12.4748737,14.9393398 C11.1080387,16.3061748 8.89196129,16.3061748 7.52512627,14.9393398 L1.06066017,8.47487373 C-0.306174849,7.10803871 -0.306174849,4.89196129 1.06066017,3.52512627 L2.29289322,2.29289322 C2.68341751,1.90236893 3.31658249,1.90236893 3.70710678,2.29289322 L5.70710678,4.29289322 C6.09763107,4.68341751 6.09763107,5.31658249 5.70710678,5.70710678 L4.41421356,7 L9,11.5857864 L10.2928932,10.2928932 Z M11,11 L9,13 L3,7 L5,5 L3,3 L1.76776695,4.23223305 C0.791456224,5.20854378 0.791456224,6.79145622 1.76776695,7.76776695 L8.23223305,14.232233 C9.20854378,15.2085438 10.7914562,15.2085438 11.767767,14.232233 L13,13 L11,11 Z M10.8535534,0.146446609 C11.0488155,0.341708755 11.0488155,0.658291245 10.8535534,0.853553391 L8.708,2.999 L14.3636364,3 C15.1717172,3 15.2101972,3.90702948 14.4790765,3.99341324 L14.3636364,4 L8.706,3.999 L10.8535534,6.14644661 C11.0488155,6.34170876 11.0488155,6.65829124 10.8535534,6.85355339 C10.6582912,7.04881554 10.3417088,7.04881554 10.1464466,6.85355339 L7.14644661,3.85355339 C6.95118446,3.65829124 6.95118446,3.34170876 7.14644661,3.14644661 L10.1464466,0.146446609 C10.3417088,-0.0488155365 10.6582912,-0.0488155365 10.8535534,0.146446609 Z"/>
</svg>
