<svg xmlns="http://www.w3.org/2000/svg" width="16" height="16" focusable="false" viewBox="0 0 16 16">
  <path fill="currentColor" d="M10.22 16c-.89 0-1.79-.34-2.47-1.02L1.02 8.25A3.472 3.472 0 010 5.78c0-.93.36-1.81 1.02-2.47L2.4 1.94c.19-.19.52-.19.71 0L6.1 4.93c.09.09.15.22.15.35s-.07.26-.16.36L4.95 6.78l4.27 4.27 1.14-1.14c.2-.2.51-.2.71 0l2.99 2.99c.2.2.2.51 0 .71l-1.37 1.37A3.49 3.49 0 0110.22 16z"/>
  <path fill="none" stroke="currentColor" stroke-linecap="round" stroke-width="2" d="M8.5 4.5c1.66 0 3 1.34 3 3M8.5 1A6.5 6.5 0 0115 7.5"/>
</svg>
