<svg xmlns="http://www.w3.org/2000/svg" width="16" height="16" focusable="false" viewBox="0 0 16 16">
  <path fill="currentColor" d="M0.933331134,15.6193 C0.791146134,15.6218 0.648148134,15.5688 0.539651134,15.4603 C0.327649134,15.2483 0.327649134,14.9046 0.539651134,14.6926 L3.67710013,11.5551 L0.150206134,8.0282 C-0.108733866,7.76925 -0.0202779659,7.33013 0.318720134,7.19163 L7.93840013,4.07866 L7.10206013,3.24232 C6.96501013,3.10526 6.91142013,2.90553 6.96147013,2.71828 L7.58035013,0.402708 C7.63045013,0.215277 7.77676013,0.0688272003 7.96414013,0.0185546003 C8.01027013,0.00617840029 8.05716013,2.9592151e-10 8.10369013,2.9592151e-10 C8.24620013,-0.000310339709 8.38533013,0.0555779003 8.48877013,0.159015 L15.8410001,7.51131 C15.9782001,7.64849 16.0317001,7.84846 15.9814001,8.03584 C15.9312001,8.22323 15.7847001,8.36954 15.5973001,8.41963 L13.2817001,9.03852 C13.2502001,9.04695 13.2183001,9.05244 13.1864001,9.05509 C13.1710001,9.05637 13.1555001,9.05698 13.1401001,9.05694 C12.9985001,9.05659 12.8604001,9.00074 12.7576001,8.89793 L11.9213001,8.06159 L9.09989013,14.9677 C9.09811013,14.9721 9.09629013,14.9764 9.09446013,14.9808 L8.80828013,15.6813 C8.66978013,16.0203 8.23066013,16.1087 7.97172013,15.8498 L4.44488013,12.3229 L1.30748013,15.4603 C1.20395013,15.5639 1.06901013,15.6168 0.933331134,15.6193 Z"/>
</svg>
