<svg xmlns="http://www.w3.org/2000/svg" width="16" height="16" focusable="false" viewBox="0 0 16 16">
  <path fill="currentColor" d="M9.86471013,13.0955 L9.03204013,12.2629 L8.12950013,14.4721 L1.52794013,7.87047 L3.73710013,6.96793 L2.90443013,6.13526 L0.318722134,7.19163 C-0.0202780659,7.33013 -0.108734866,7.76925 0.150207134,8.0282 L3.67712013,11.5551 L0.539654134,14.6926 C0.327651134,14.9046 0.327651134,15.2483 0.539654134,15.4603 C0.751657134,15.6723 1.09538013,15.6723 1.30738013,15.4603 L4.44485013,12.3229 L7.97177013,15.8498 C8.23071013,16.1087 8.66984013,16.0203 8.80833013,15.6813 L9.86471013,13.0955 Z M2.01687013,2.71175 L13.2883001,13.9832 C13.4884001,14.1833 13.4884001,14.5077 13.2883001,14.7078 C13.0882001,14.9078 12.7638001,14.9078 12.5638001,14.7078 L1.29232013,3.43631 C1.09223013,3.23623 1.09223013,2.91183 1.29232013,2.71175 C1.49240013,2.51167 1.81679013,2.51167 2.01687013,2.71175 Z M8.41524662,0.0974855193 L8.48872013,0.159015 L15.8410001,7.51131 C15.9782001,7.64849 16.0317001,7.84846 15.9814001,8.03584 C15.9395668,8.19199833 15.8308585,8.31962889 15.6873353,8.38682773 L15.5973001,8.41964 L13.2817001,9.03852 C13.1257001,9.08022833 12.9610196,9.04996444 12.8311191,8.95940657 L12.7577001,8.89793 L11.9213001,8.06153 L10.9155001,10.5235 L10.0828001,9.69085 L11.0886001,7.22885 L8.77111013,4.91133 L6.30911013,5.91716 L5.47644013,5.08449 L7.93845013,4.07866 L7.10211013,3.24232 C6.98789347,3.12810333 6.93164902,2.97036583 6.94503189,2.81259708 L6.96151013,2.71828 L7.58040013,0.402708 C7.63050013,0.215277 7.77681013,0.0688272003 7.96419013,0.0185546003 C8.12034013,-0.023339233 8.28523319,0.00686422529 8.41524662,0.0974855193 Z M8.38635013,1.59216 L8.09130013,2.6961 L13.3040001,7.90879 L14.4079001,7.61373 L8.38635013,1.59216 Z"/>
</svg>
