<svg xmlns="http://www.w3.org/2000/svg" width="16" height="16" focusable="false" viewBox="0 0 16 16">
  <path fill="currentColor" d="M2.404 11.19a2.406 2.406 0 0 1 0 4.81H.802A.802.802 0 0 1 0 15.198v-1.602a2.405 2.405 0 0 1 2.404-2.406ZM14.36.006a1.507 1.507 0 0 1 1.635 1.635c-.258 2.976-1.83 5.27-3.97 7.294v2.95c0 .845-.443 1.629-1.167 2.063l-2.016 1.21c-1.069.64-2.429-.13-2.429-1.376v-1.458L3.676 9.588H2.218C.972 9.588.202 8.228.843 7.159l1.209-2.015a2.405 2.405 0 0 1 2.062-1.167h2.951C9.09 1.837 11.383.264 14.36.006ZM2.404 12.19C1.63 12.19 1 12.82 1 13.596V15h1.404a1.405 1.405 0 1 0 0-2.81Zm5.003.04a.997.997 0 0 1 .005.094v1.458c0 .47.512.759.914.518l2.016-1.21c.423-.253.681-.71.681-1.204V9.66l-3.616 2.57Zm7.04-11.228c-2.638.229-4.72 1.615-6.655 3.661l-.017.015-3.154 4.44 2.26 2.26 4.44-3.154.016-.016c2.046-1.935 3.432-4.017 3.661-6.654a.507.507 0 0 0-.552-.552ZM4.113 4.977c-.493 0-.95.258-1.205.681L1.7 7.674a.604.604 0 0 0 .518.914h1.458l.094.004 2.568-3.615H4.114Z"/>
</svg>
