<svg xmlns="http://www.w3.org/2000/svg" width="16" height="16" focusable="false" viewBox="0 0 16 16">
  <path fill="currentColor" d="m10.42 10.319-2.404 2.044v1.42l2.015-1.21a.802.802 0 0 0 .39-.687V10.32Zm-4.007 2.005L3.676 9.587H2.217A1.603 1.603 0 0 1 .843 7.16l1.209-2.015a2.405 2.405 0 0 1 2.062-1.168h2.952C9.089 1.836 11.383.264 14.36.006a1.507 1.507 0 0 1 1.634 1.634c-.258 2.977-1.83 5.27-3.97 7.294v2.952c0 .845-.444 1.628-1.168 2.062l-2.015 1.21a1.603 1.603 0 0 1-2.428-1.375v-1.459ZM5.68 5.58H4.114a.802.802 0 0 0-.687.389l-1.21 2.015h1.42L5.681 5.58ZM0 13.595A2.405 2.405 0 1 1 2.405 16H.802A.802.802 0 0 1 0 15.198v-1.603Z"/>
</svg>
