<svg xmlns="http://www.w3.org/2000/svg" width="16" height="16" focusable="false" viewBox="0 0 16 16">
  <path fill="currentColor" d="M3.00033978,1 L2.88371865,1.00672773 C2.38637997,1.06449284 2.00033978,1.48716416 2.00033978,2 L2.00033978,3.898 L0.0197591044,13.8038839 C-0.103999281,14.4226758 0.369293357,15 1.00033978,15 L5.00033978,15 C5.55262453,15 6.00033978,14.5522847 6.00033978,14 L6.00033978,11 L6.00501539,10.8526061 C6.0647758,9.82847683 6.93968229,9 8.00033978,9 L8.14773364,9.00467561 C9.17186295,9.06443602 10.0003398,9.93934251 10.0003398,11 L10.0003398,14 C10.0003398,14.5522847 10.448055,15 11.0003398,15 L15.0003398,15 L15.1167051,14.9933653 C15.6882156,14.9276725 16.0969439,14.3840013 15.9809205,13.8038839 L14.0003398,3.903 L14.0003398,2 C14.0003398,1.44771525 13.5526245,1 13.0003398,1 L12.0003398,1 L11.8837187,1.00672773 C11.38638,1.06449284 11.0003398,1.48716416 11.0003398,2 L11.0003398,3 L10.0003398,3 L10.0003398,2 C10.0003398,1.44771525 9.55262453,1 9.00033978,1 L7.00033978,1 L6.88371865,1.00672773 C6.38637997,1.06449284 6.00033978,1.48716416 6.00033978,2 L6.00033978,3 L5.00033978,3 L5.00033978,2 C5.00033978,1.44771525 4.55262453,1 4.00033978,1 L3.00033978,1 Z M4.00033978,2 L4.00033978,4 L7.00033978,4 L7.00033978,2 L9.00033978,2 L9.00033978,4 L12.0003398,4 L12.0003398,2 L13.0003398,2 L13.0003398,4 L15.0003398,14 L11.0003398,14 L11.0003398,11 C11.0003398,9.40231912 9.75141982,8.09633912 8.17661257,8.00509269 L8.00033978,8 C6.4026589,8 5.0966789,9.24891996 5.00543247,10.8237272 L5.00033978,11 L5.00033978,14 L1.00033978,14 L3.00033978,4 L3.00033978,2 L4.00033978,2 Z"/>
</svg>
