<svg xmlns="http://www.w3.org/2000/svg" width="16" height="16" focusable="false" viewBox="0 0 16 16">
  <path fill="currentColor" d="M5.913 0a1.739 1.739 0 100 3.478h1.74V1.74A1.743 1.743 0 005.912 0zm4.174 0c-.96 0-1.74.778-1.74 1.74v4.173a1.739 1.739 0 103.48 0V1.739c0-.96-.78-1.739-1.74-1.739zM1.739 4.174a1.739 1.739 0 100 3.478h4.174a1.739 1.739 0 100-3.478H1.739zm12.522 0c-.96 0-1.74.778-1.74 1.739v1.74h1.74a1.739 1.739 0 100-3.48zM1.739 8.348a1.739 1.739 0 101.74 1.739v-1.74h-1.74zm4.174 0c-.96 0-1.74.778-1.74 1.739v4.174a1.739 1.739 0 103.48 0v-4.174c0-.96-.78-1.74-1.74-1.74zm4.174 0a1.739 1.739 0 100 3.478h4.174a1.739 1.739 0 100-3.478h-4.174zm-1.74 4.174v1.739a1.739 1.739 0 101.74-1.74h-1.74z"/>
</svg>
