<svg xmlns="http://www.w3.org/2000/svg" width="16" height="16" focusable="false" viewBox="0 0 16 16">

  <path fill="currentColor" d="m2.957 5.643-.01.004a1.44 1.44 0 0 0 0 2.706l.01.004 2.213.75.002.002a2.736 2.736 0 0 1 1.72 1.72l.751 2.214.004.01a1.44 1.44 0 0 0 2.706 0l.004-.01.75-2.212.002-.003a2.735 2.735 0 0 1 1.72-1.72l2.214-.751.01-.004a1.44 1.44 0 0 0 0-2.706l-.01-.004-2.212-.75-.003-.002a2.736 2.736 0 0 1-1.72-1.72L10.357.958l-.004-.01a1.44 1.44 0 0 0-2.706 0l-.004.01-.75 2.213-.002.002a2.736 2.736 0 0 1-1.72 1.72l-2.214.751Zm2.534 2.518-2.202-.747a.44.44 0 0 1 0-.828l2.202-.747a3.736 3.736 0 0 0 2.348-2.348l.747-2.202a.44.44 0 0 1 .828 0l.747 2.202a3.736 3.736 0 0 0 2.348 2.348l2.202.747a.44.44 0 0 1 0 .828l-2.202.747a3.736 3.736 0 0 0-2.348 2.348l-.747 2.202a.44.44 0 0 1-.828 0l-.747-2.202a3.736 3.736 0 0 0-2.348-2.348ZM.145 12.793l1.1-.373a1.868 1.868 0 0 0 1.175-1.175l.373-1.1a.22.22 0 0 1 .414 0l.373 1.1a1.869 1.869 0 0 0 1.175 1.175l1.1.373a.22.22 0 0 1 0 .414l-1.1.373a1.868 1.868 0 0 0-1.175 1.175l-.373 1.1a.22.22 0 0 1-.414 0l-.373-1.1a1.869 1.869 0 0 0-1.175-1.175l-1.1-.373a.22.22 0 0 1 0-.414Z"/>

</svg>
