<svg xmlns="http://www.w3.org/2000/svg" width="16" height="16" focusable="false" viewBox="0 0 16 16">
  <path fill="currentColor" d="m4.29 5.586 2.2-.747a3.736 3.736 0 0 0 2.35-2.348L9.585.289a.44.44 0 0 1 .828 0l.747 2.202a3.736 3.736 0 0 0 2.348 2.348l2.202.747a.44.44 0 0 1 0 .828l-2.202.747a3.736 3.736 0 0 0-2.348 2.348l-.747 2.202a.44.44 0 0 1-.828 0L8.84 9.509a3.736 3.736 0 0 0-2.348-2.348L4.29 6.414a.44.44 0 0 1 0-.828ZM.169 12.259l1.284-.436a2.18 2.18 0 0 0 1.37-1.37l.436-1.284a.257.257 0 0 1 .482 0l.436 1.284a2.179 2.179 0 0 0 1.37 1.37l1.284.436a.257.257 0 0 1 0 .482l-1.284.436a2.18 2.18 0 0 0-1.37 1.37l-.436 1.284a.257.257 0 0 1-.482 0l-.436-1.284a2.179 2.179 0 0 0-1.37-1.37l-1.284-.436a.257.257 0 0 1 0-.482Z"/>
</svg>
