<svg xmlns="http://www.w3.org/2000/svg" width="16" height="16" focusable="false" viewBox="0 0 16 16">
 
 <path fill="currentColor" d="m2.338 6.517 2.568-.871a4.358 4.358 0 0 0 2.74-2.74L8.517.338a.514.514 0 0 1 .966 0l.871 2.568a4.358 4.358 0 0 0 2.74 2.74l2.568.871a.514.514 0 0 1 0 .966l-2.568.871a4.358 4.358 0 0 0-2.74 2.74l-.871 2.568a.514.514 0 0 1-.966 0l-.871-2.568a4.359 4.359 0 0 0-2.74-2.74l-2.568-.871a.514.514 0 0 1 0-.966ZM.145 12.793l1.1-.373a1.868 1.868 0 0 0 1.175-1.175l.373-1.1a.22.22 0 0 1 .414 0l.373 1.1a1.869 1.869 0 0 0 1.175 1.175l1.1.373a.22.22 0 0 1 0 .414l-1.1.373a1.868 1.868 0 0 0-1.175 1.175l-.373 1.1a.22.22 0 0 1-.414 0l-.373-1.1a1.869 1.869 0 0 0-1.175-1.175l-1.1-.373a.22.22 0 0 1 0-.414Z"/>

</svg>
