<svg xmlns="http://www.w3.org/2000/svg" width="16" height="16" focusable="false" viewBox="0 0 16 16">
  <path fill="currentColor" d="M2.499 11a.5.5 0 0 1 .477.348l.256.797a1.01 1.01 0 0 0 .63.633l.789.248a.5.5 0 0 1 .001.954l-.79.252a1.007 1.007 0 0 0-.63.633l-.252.787a.5.5 0 0 1-.95.008l-.266-.79a1.034 1.034 0 0 0-.636-.639l-.781-.252a.5.5 0 0 1-.002-.95l.794-.26a1.023 1.023 0 0 0 .636-.634l.248-.786A.5.5 0 0 1 2.5 11ZM1 7.513a1 1 0 0 1 .69-.953l2.583-.844a3.95 3.95 0 0 0 2.465-2.457l.808-2.56A1 1 0 0 1 9.452.695l.832 2.598a3.906 3.906 0 0 0 2.448 2.453l2.569.811a1 1 0 0 1 .004 1.906l-2.572.823a3.896 3.896 0 0 0-2.449 2.454l-.82 2.565a1 1 0 0 1-1.9.014l-.866-2.567v-.002A3.971 3.971 0 0 0 4.24 9.284l-2.547-.821A1 1 0 0 1 1 7.513Z"/>
</svg>
