<svg xmlns="http://www.w3.org/2000/svg" width="16" height="16" focusable="false" viewBox="0 0 16 16">
  <circle cx="8" cy="8" r="4.5" fill="currentColor"/>
  <path fill="currentColor" d="M8 0C8.27614 0 8.5 0.223858 8.5 0.5V2H7.5V0.5C7.5 0.223858 7.72386 0 8 0ZM7.5 15.5C7.5 15.7761 7.72386 16 8 16 8.27614 16 8.5 15.7761 8.5 15.5V14H7.5V15.5ZM0 8C0 7.72386.223858 7.5.5 7.5H2V8.5H.5C.223858 8.5 0 8.27614 0 8ZM15.5 8.5C15.7761 8.5 16 8.27614 16 8 16 7.72386 15.7761 7.5 15.5 7.5H14V8.5H15.5ZM1.07178 4.00009C1.20985 3.76095 1.51564 3.67901 1.75479 3.81708L3.05383 4.56708 2.55383 5.43311 1.25479 4.68311C1.01564 4.54503.933706 4.23924 1.07178 4.00009ZM14.2452 12.1829C14.4844 12.321 14.7902 12.2391 14.9282 11.9999 15.0663 11.7608 14.9844 11.455 14.7452 11.3169L13.4462 10.5669 12.9462 11.4329 14.2452 12.1829ZM4.00009 14.9282C3.76095 14.7902 3.67901 14.4844 3.81708 14.2452L4.56708 12.9462 5.43311 13.4462 4.68311 14.7452C4.54503 14.9844 4.23924 15.0663 4.00009 14.9282ZM12.1829 1.75479C12.321 1.51564 12.2391 1.20985 11.9999 1.07178 11.7608.933706 11.455 1.01564 11.3169 1.25479L10.5669 2.55383 11.4329 3.05383 12.1829 1.75479ZM3.99991 1.07178C4.23905.933706 4.54485 1.01564 4.68292 1.25479L5.43292 2.55383 4.56689 3.05383 3.81689 1.75479C3.67882 1.51564 3.76076 1.20985 3.99991 1.07178ZM11.3171 14.7452C11.4552 14.9844 11.7609 15.0663 12.0001 14.9282 12.2392 14.7902 12.3212 14.4844 12.1831 14.2452L11.4331 12.9462 10.5671 13.4462 11.3171 14.7452ZM1.07178 11.9998C.933706 11.7607 1.01564 11.4549 1.25479 11.3168L2.55383 10.5668 3.05383 11.4329 1.75479 12.1829C1.51564 12.3209 1.20985 12.239 1.07178 11.9998ZM14.7452 4.68316C14.9844 4.54509 15.0663 4.2393 14.9282 4.00015 14.7902 3.76101 14.4844 3.67907 14.2452 3.81714L12.9462 4.56714 13.4462 5.43316 14.7452 4.68316Z"/>
</svg>
