<svg xmlns="http://www.w3.org/2000/svg" width="16" height="16" focusable="false" viewBox="0 0 16 16">
  <path fill="currentColor" d="M11.5 7C9.01 7 7 9.01 7 11.5S9.01 16 11.5 16s4.5-2.01 4.5-4.5S13.99 7 11.5 7zm1.5 5h-1.5c-.28 0-.5-.22-.5-.5v-2c0-.28.22-.5.5-.5s.5.22.5.5V11h1c.28 0 .5.22.5.5s-.22.5-.5.5zM6.62 8.98c-.04.01-.08.02-.12.02-.83 0-1.51-.28-2.07-.68-.54.41-1.17.68-1.93.68-.28 0-.5-.22-.5-.5s.22-.5.5-.5c.44 0 .83-.14 1.18-.37-.78-.89-1.13-1.9-1.15-1.97-.09-.26.05-.55.31-.63.26-.09.55.05.63.31.01.02.31.88.95 1.62.77-.92 1.22-2.21 1.44-2.96H2.5c-.28 0-.5-.22-.5-.5s.22-.5.5-.5H4v-.5c0-.28.22-.5.5-.5s.5.22.5.5V3h1.5c.15 0 .29.07.39.18.09.12.13.27.1.42-.03.14-.51 2.46-1.81 4.01.37.23.81.39 1.32.39.23 0 .42.16.48.38a5.41 5.41 0 011.77-1.63c.15-.1.25-.26.25-.43V1c0-.55-.45-1-1-1H1C.45 0 0 .45 0 1v9c0 .55.45 1 1 1h4.59c.25 0 .45-.19.49-.43.1-.57.28-1.1.54-1.59z"/>
</svg>
