<svg xmlns="http://www.w3.org/2000/svg" width="16" height="16" focusable="false" viewBox="0 0 16 16">
  <path fill="none" stroke="currentColor" stroke-linecap="round" d="M5.5 10.5H1a.5.5 0 0 1-.5-.5V1A.5.5 0 0 1 1 .5h7a.5.5 0 0 1 .5.5v2.5"/>
  <rect width="8" height="10" x="7.5" y="5.5" fill="none" stroke="currentColor" rx=".5" ry=".5"/>
  <path fill="none" stroke="currentColor" stroke-linecap="round" stroke-linejoin="round" d="M2.5 8.5c3 0 4-5 4-5h-4m.5 2a4.9 4.9 0 0 0 2.5 2.83m-1-5.83v1m5 9l2-4.5 2 4.5"/>
  <path fill="none" stroke="currentColor" stroke-linejoin="round" d="M10 11.5h3"/>
</svg>
