<svg xmlns="http://www.w3.org/2000/svg" width="16" height="16" focusable="false" viewBox="0 0 16 16">
  <path fill="currentColor" d="M8 0H1C.45 0 0 .45 0 1v9c0 .55.45 1 1 1h7c.55 0 1-.45 1-1V1c0-.55-.45-1-1-1zM6.5 9c-.83 0-1.51-.28-2.07-.68-.54.41-1.17.68-1.93.68-.28 0-.5-.22-.5-.5s.22-.5.5-.5c.44 0 .83-.14 1.18-.37-.78-.89-1.13-1.9-1.15-1.97-.09-.26.05-.55.31-.63.26-.09.55.05.63.31.01.02.31.88.95 1.62.77-.92 1.22-2.21 1.44-2.96H2.5c-.28 0-.5-.22-.5-.5s.22-.5.5-.5H4v-.5c0-.28.22-.5.5-.5s.5.22.5.5V3h1.5c.15 0 .29.07.39.18.09.12.13.27.1.42-.03.14-.51 2.46-1.81 4.01.37.23.81.39 1.32.39.28 0 .5.22.5.5s-.22.5-.5.5zm6.5 2.29V7.71c0-.45.54-.67.85-.35l1.44 1.44c.39.39.39 1.02 0 1.41l-1.44 1.44a.5.5 0 01-.85-.36zm-2.85 4.36l-1.44-1.44a.996.996 0 010-1.41l1.44-1.44a.5.5 0 01.85.35v3.59a.5.5 0 01-.85.35z"/>
  <path stroke="currentColor" stroke-linecap="round" d="M14.5 9.5h-4m3 4h-4"/>
</svg>
