<svg xmlns="http://www.w3.org/2000/svg" width="16" height="16" focusable="false" viewBox="0 0 16 16">
  <path fill="currentColor" d="M10.854 10.146L13 12.293l2.146-2.147a.5.5 0 01.708.708L13.707 13l2.147 2.146a.5.5 0 01-.708.708L13 13.707l-2.146 2.147a.5.5 0 01-.708-.708L12.293 13l-2.147-2.146a.5.5 0 01.708-.708zM8 0a1 1 0 011 1v9a1 1 0 01-1 1H1a1 1 0 01-1-1V1a1 1 0 011-1h7zm0 1H1v9h7V1zM4.5 2a.5.5 0 01.5.5V3h1.5a.5.5 0 01.49.598 9.69 9.69 0 01-.214.827 11.303 11.303 0 01-.704 1.799 7.234 7.234 0 01-.89 1.395A2.44 2.44 0 006.5 8a.5.5 0 010 1 3.46 3.46 0 01-2.056-.668A3.146 3.146 0 012.5 9a.5.5 0 010-1c.424 0 .82-.126 1.186-.364a5.142 5.142 0 01-.273-.336 6.47 6.47 0 01-.887-1.642.5.5 0 11.948-.316A5.483 5.483 0 004.212 6.7c.07.092.14.18.213.263.27-.327.522-.725.753-1.187A10.323 10.323 0 005.858 4H2.5a.5.5 0 010-1H4v-.5a.5.5 0 01.5-.5z"/>
</svg>
