<svg xmlns="http://www.w3.org/2000/svg" width="16" height="16" focusable="false" viewBox="0 0 16 16">
  <path fill="currentColor" d="M15 5a1 1 0 011 1v9a1 1 0 01-1 1H8a1 1 0 01-1-1V6a1 1 0 011-1h7zm0 1H8v9h7V6zm-3.043 1.797l2 4.5a.5.5 0 01-.914.406L12.731 12h-2.462l-.312.703a.5.5 0 01-.914-.406l2-4.5a.5.5 0 01.914 0zM11.5 9.23L10.713 11h1.573L11.5 9.231zM8 0a1 1 0 011 1v2.5a.5.5 0 01-1 0V1H1v9h4.5a.5.5 0 110 1H1a1 1 0 01-1-1V1a1 1 0 011-1h7zM4.5 2a.5.5 0 01.5.5V3h1.5a.5.5 0 01.49.598 9.69 9.69 0 01-.214.827 11.303 11.303 0 01-.704 1.799 7.29 7.29 0 01-.864 1.364c.162.109.333.206.51.292a.5.5 0 01-.436.9 5.4 5.4 0 01-.8-.477A3.157 3.157 0 012.5 9a.5.5 0 010-1c.432 0 .835-.13 1.208-.378a5.385 5.385 0 01-1.181-1.96.5.5 0 11.946-.323 4.4 4.4 0 00.967 1.603c.266-.322.512-.713.738-1.166A10.323 10.323 0 005.858 4H2.5a.5.5 0 010-1H4v-.5a.5.5 0 01.5-.5z"/>
</svg>
