<svg xmlns="http://www.w3.org/2000/svg" width="16" height="16" focusable="false" viewBox="0 0 16 16">
  <path fill="currentColor" d="M6 8.31a.496.496 0 01-.67.49c-.33-.12-.62-.3-.88-.49C3.9 8.73 3.26 9 2.5 9c-.28 0-.5-.22-.5-.5s.22-.5.5-.5c.44 0 .84-.14 1.19-.37-.79-.9-1.14-1.91-1.16-1.97-.09-.26.05-.55.31-.63.26-.09.55.05.63.31 0 .01.31.87.96 1.61.76-.91 1.21-2.2 1.43-2.95H2.5c-.28 0-.5-.22-.5-.5s.22-.5.5-.5H4v-.5c0-.28.22-.5.5-.5s.5.22.5.5V3h1.5c.15 0 .29.07.39.18.09.12.13.27.1.42-.01.05-.08.38-.22.83C7.11 4.17 7.53 4 8 4h1V1c0-.55-.45-1-1-1H1C.45 0 0 .45 0 1v9c0 .55.45 1 1 1h5V8.31zm-.33-.45c.19.07.32.24.33.43V6.35c-.23.44-.5.87-.82 1.26.15.1.31.18.49.25zM15 5H8c-.55 0-1 .45-1 1v9c0 .55.45 1 1 1h7c.55 0 1-.45 1-1V6c0-.55-.45-1-1-1zm-1.3 7.96a.51.51 0 01-.66-.26l-.31-.7h-2.46l-.31.7c-.11.25-.41.37-.66.25s-.37-.41-.25-.66l2-4.5c.16-.36.75-.36.91 0l2 4.5c.11.26 0 .55-.26.67zM10.71 11h1.58l-.79-1.77z"/>
</svg>
