<svg xmlns="http://www.w3.org/2000/svg" width="16" height="16" focusable="false" viewBox="0 0 16 16">
  <path fill="currentColor" d="M16 3.039c-.6.265-1.235.44-1.887.517a3.29 3.29 0 001.444-1.815 6.61 6.61 0 01-2.085.795A3.282 3.282 0 007.88 5.53 9.32 9.32 0 011.115 2.1 3.27 3.27 0 00.67 3.75a3.28 3.28 0 001.46 2.733 3.28 3.28 0 01-1.488-.411v.041a3.286 3.286 0 002.633 3.22c-.484.13-.991.15-1.483.054a3.29 3.29 0 003.066 2.28A6.58 6.58 0 010 13.026 9.275 9.275 0 005.032 14.5c6.037 0 9.34-5 9.34-9.337 0-.142-.004-.286-.01-.425A6.673 6.673 0 0016 3.038z"/>
</svg>
