<svg xmlns="http://www.w3.org/2000/svg" width="16" height="16" focusable="false" viewBox="0 0 16 16">
  <path fill="currentColor" d="M10.69 1.5a3.93 3.93 0 012.368.785 4.87 4.87 0 001.058-.45C14.913 1.38 16 2 16 3s-.948 2.335-1.426 2.73c-.069 4.679-3.848 8.77-9.17 8.77a9.319 9.319 0 01-4.932-1.399c-.907-.564-.417-1.966.644-1.842a4.945 4.945 0 001.646-.084A3.773 3.773 0 011.62 9.489a.991.991 0 01-.03-.523A3.72 3.72 0 01.562 6.404v-.035c0-.266.1-.497.257-.67a3.696 3.696 0 01.299-3.206 1 1 0 011.621-.13 7.212 7.212 0 004.114 2.414C7.103 2.922 8.733 1.5 10.69 1.5zm.002 1C9.106 2.5 7.82 3.743 7.82 5.277c0 .217.027.43.076.633a8.25 8.25 0 01-5.92-2.903c-.256.425-.39.907-.389 1.397 0 .963.506 1.814 1.278 2.313a2.945 2.945 0 01-1.302-.348l.006.209c.08 1.268 1.042 2.304 2.297 2.55a2.97 2.97 0 01-1.297.046c.367 1.102 1.427 1.907 2.683 1.93a5.885 5.885 0 01-3.567 1.187A5.88 5.88 0 011 12.252 8.319 8.319 0 005.403 13.5c5.283 0 8.172-4.231 8.172-7.9 0-.121-.003-.242-.008-.36A5.742 5.742 0 0015 3.802a5.9 5.9 0 01-1.65.438 2.803 2.803 0 001.263-1.536 5.889 5.889 0 01-1.825.673 2.912 2.912 0 00-2.096-.877z"/>
</svg>
