<svg xmlns="http://www.w3.org/2000/svg" width="16" height="16" focusable="false" viewBox="0 0 16 16">
  <path fill="currentColor" d="M6.65.5c3.667 0 6.65 2.455 6.65 5.47 0 .338-.05.67-.124.999C14.84 7.627 16 9.029 16 10.662c0 .994-.444 1.894-1.152 2.605l.275 2.233-2.038-1.104a5.714 5.714 0 01-2 .363c-2.397 0-4.392-1.44-4.823-3.333a7.675 7.675 0 01-2.895-.704l-2.92 1.21.446-3.224.014.01C.334 7.907 0 6.971 0 5.97 0 2.955 2.983.5 6.65.5zm4.435 7.071c-2.157 0-3.912 1.387-3.912 3.091 0 1.704 1.755 3.09 3.912 3.09s3.912-1.386 3.912-3.09c0-1.273-.98-2.368-2.377-2.841l-.037-.012a4.8 4.8 0 00-1.498-.238zm1.714 1.65a.706.706 0 110 1.412.706.706 0 010-1.412zm-3.439 0a.706.706 0 110 1.412.706.706 0 010-1.412zM4.302 3.715a.959.959 0 10.002 1.918.959.959 0 00-.002-1.918zm5.227 0a.959.959 0 10.001 1.918.959.959 0 00-.001-1.918z"/>
</svg>
