<svg xmlns="http://www.w3.org/2000/svg" width="16" height="16" focusable="false" viewBox="0 0 16 16">
  <path fill="currentColor" d="M8 0a8 8 0 11-4.075 14.886L.658 15.974a.5.5 0 01-.632-.632l1.089-3.266A8 8 0 018 0zM5.214 4.004a.699.699 0 00-.526.266C4.508 4.481 4 4.995 4 6.037c0 1.044.705 2.054.804 2.196.098.138 1.388 2.28 3.363 3.2.366.17.74.319 1.12.446.472.16.902.139 1.242.085.379-.06 1.164-.513 1.329-1.01.163-.493.163-.918.113-1.007-.049-.088-.18-.142-.378-.25-.196-.105-1.165-.618-1.345-.687-.18-.073-.312-.106-.443.105-.132.213-.507.691-.623.832-.113.139-.23.159-.425.053-.198-.105-.831-.33-1.584-1.054-.585-.561-.98-1.258-1.094-1.469-.116-.213-.013-.326.085-.433.09-.094.198-.246.296-.371.097-.122.132-.21.198-.353.064-.141.031-.266-.018-.371-.049-.105-.443-1.152-.607-1.577-.16-.413-.323-.355-.443-.363-.114-.005-.245-.005-.376-.005z"/>
</svg>
