<svg xmlns="http://www.w3.org/2000/svg" width="16" height="16" focusable="false" viewBox="0 0 16 16">


<path fill="currentColor" d="M4 13a1 1 0 1 1 0-2 1 1 0 0 1 0 2Zm4 0a1 1 0 1 1 0-2 1 1 0 0 1 0 2Zm0-4a1 1 0 1 1 0-2 1 1 0 0 1 0 2Zm4 4a1 1 0 1 1 0-1.999A1 1 0 0 1 12 13Zm0-4a1 1 0 1 1 0-2 1 1 0 0 1 0 2Z M12 1V.5a.5.5 0 1 0-1 0V1H5V.5a.5.5 0 1 0-1 0V1H1v11.6a2.64 2.64 0 0 0 2.55 2.73h8.9A2.638 2.638 0 0 0 15 12.6V1h-3Zm2 11.6a1.639 1.639 0 0 1-1.55 1.73h-8.9A1.64 1.64 0 0 1 2 12.6V5h12v7.6ZM14 4H2V2h2v.5a.5.5 0 1 0 1 0V2h6v.5a.5.5 0 0 0 1 0V2h2v2Z"/>


</svg>