<svg xmlns="http://www.w3.org/2000/svg" width="16" height="16" focusable="false" viewBox="0 0 16 16">
	<path fill="currentColor" d="M12 1V.37c0-.21-.22-.37-.5-.37s-.5.16-.5.37V1H5V.4c0-.21-.22-.37-.5-.37S4 .19 4 .4V1H1v11.6a2.64 2.64 0 0 0 2.55 2.73h8.9A2.638 2.638 0 0 0 15 12.6V1h-3ZM4 13.09a1 1 0 1 1 0-2 1 1 0 0 1 0 2Zm4 0a1 1 0 1 1 0-2 1 1 0 0 1 0 2Zm0-4a1 1 0 1 1 0-2 1 1 0 0 1 0 2Zm4 4a1 1 0 1 1 0-1.999 1 1 0 0 1 0 1.999Zm0-4a1 1 0 1 1 0-2 1 1 0 0 1 0 2ZM14 4H2V2h2v.62c0 .21.22.38.5.38s.5-.17.5-.38V2h6v.59c0 .21.22.38.5.38s.5-.17.5-.38V2h2v2Z"/>
</svg>