<svg xmlns="http://www.w3.org/2000/svg" width="26" height="26" focusable="false" viewBox="0 0 26 26">
  <path fill="currentColor" d="M20.037 21.001L17.963 21c-.532-.001-.963-.449-.963-1.003V6.002c0-.554.431-1.003.963-1.002l2.078.001c.53 0 .959.448.959 1v13.998c0 .553-.431 1.002-.963 1.002M8.043 21H5.957C5.428 21 5 20.554 5 20.003v-7.006c0-.551.428-.997.957-.997h2.086c.529 0 .957.446.957.997v7.006c0 .551-.428.997-.957.997m5.999 0h-2.084a.958.958 0 01-.958-.958V9.958c0-.529.43-.958.958-.958h2.084c.529 0 .958.43.958.958v10.084c0 .529-.43.958-.958.958"/>
</svg>
