<svg xmlns="http://www.w3.org/2000/svg" width="26" height="26" focusable="false" viewBox="0 0 26 26">
  <path fill="currentColor" d="M19.164 17.152c1.191 1.087 1.557 1.824 1.778 2.238a.5.5 0 01-.09.588c-1.078 1.09-1.784 1.87-2.813 1.992-2.3.29-5.724-1.535-9.092-4.917-3.381-3.367-5.207-6.791-4.917-9.09.122-1.03.905-1.737 1.997-2.816a.492.492 0 01.58-.09c.412.221 1.151.585 2.24 1.78 1.112 1.224 1.466 2.144 1.537 2.668a.657.657 0 01-.205.517c-.411.41-1.352 1.265-1.48 1.704-.169.538.142 1.203.687 2.002.34.481.807 1.033 1.33 1.557.523.523 1.075.99 1.556 1.33.8.544 1.465.855 2.003.686.439-.128 1.294-1.068 1.705-1.478a.65.65 0 01.516-.206c.524.07 1.444.425 2.668 1.535M14.897 5.287c.492 0 .897.407.897.9l.007 2.769 4.671-4.692a.891.891 0 011.266 0 .9.9 0 010 1.27l-4.664 4.671h2.72c.491 0 .896.407.896.901a.891.891 0 01-.89.894h-4.774A1.03 1.03 0 0114 10.968l.007-4.787c0-.494.405-.901.89-.894"/>
</svg>
