<svg xmlns="http://www.w3.org/2000/svg" width="26" height="26" focusable="false" viewBox="0 0 26 26">
  <path fill="currentColor" d="M17 5.583v.846c0 .32-.204.571-.464.571H9.464C9.214 7 9 6.749 9 6.429V5.57c0-.307.213-.57.464-.57h1.16c.26 0 .464-.251.464-.571V3.57c0-.308.214-.571.464-.571h2.905c.25 0 .455.251.455.56v.869c0 .315.208.571.464.571h1.16c.26 0 .464.263.464.583m4 5.492v8.943a.99.99 0 01-.993.983H5.993A.99.99 0 015 20.017V5.491c0-.27.222-.491.496-.491h.993c.274 0 .496.22.496.491l-.02 3.037c0 .272.222.492.496.492H18.5c.274 0 .496-.22.496-.492l.02-3.007c0-.271.222-.492.496-.492h.993c.274 0 .496.22.496.492v5.553z"/>
</svg>
