<svg xmlns="http://www.w3.org/2000/svg" width="26" height="26" focusable="false" viewBox="0 0 26 26">
  <path fill="currentColor" d="M19.05 21h-5.2v-6.9l1.86 1.9c.331.34.877.34 1.208 0a.886.886 0 000-1.23l-3.208-3.295a.956.956 0 00-1.376 0l-3.216 3.294a.886.886 0 000 1.23c.331.34.876.34 1.207 0l1.821-1.88V21h-4.84C4.377 21 2 18.55 2 15.53c0-2.91 2.21-5.29 5.015-5.45.662-3.6 4.323-6.1 8.228-4.67 2.356.86 3.846 3.26 3.846 5.84h.166c2.784 0 4.995 2.45 4.722 5.37-.243 2.52-2.454 4.38-4.927 4.38z"/>
</svg>
