<svg xmlns="http://www.w3.org/2000/svg" width="26" height="26" focusable="false" viewBox="0 0 20 26">
  <path fill="currentColor" d="M13.41 0H2C.9 0 0 .9 0 2v22c0 1.1.9 2 2 2h16c1.1 0 2-.9 2-2V6.58L13.41 0zm2.09 20h-11c-.28 0-.5-.22-.5-.5s.22-.5.5-.5h11c.28 0 .5.22.5.5s-.22.5-.5.5zm0-3h-11c-.28 0-.5-.22-.5-.5s.22-.5.5-.5h11c.28 0 .5.22.5.5s-.22.5-.5.5zm.5-3.444c0 .248-.22.444-.5.444h-11c-.28 0-.5-.196-.5-.444v-3.11c0-.25.22-.446.5-.446h11c.28 0 .5.196.5.444v3.112zM15 7a2 2 0 01-2-2V1l6 6h-4z"/>
</svg>
