<svg xmlns="http://www.w3.org/2000/svg" width="26" height="26" focusable="false" viewBox="0 0 26 26">
  <path fill="currentColor" d="M10.5 9.1c.3.3.7.4 1.1.2.4-.2.9-.3 1.4-.3s1 .1 1.4.3c.4.1.8.1 1.1-.2l2.7-2.7c.2-.2.2-.6-.1-.8C16.7 4.6 14.9 4 13 4s-3.7.6-5.1 1.6c-.3.2-.3.6-.1.8l2.7 2.7zm-1.2 5.3C9.1 14 9 13.5 9 13c0-.5.1-1 .3-1.4.1-.4.1-.8-.2-1.1L6.4 7.8c-.2-.2-.6-.2-.8.1C4.6 9.3 4 11.1 4 13c0 1.9.6 3.7 1.6 5.1.2.3.5.3.8.1l2.7-2.7c.2-.3.3-.7.2-1.1zm6.2 2.5c-.3-.3-.7-.4-1.1-.2-.4.2-.9.3-1.4.3s-1-.1-1.4-.3c-.4-.1-.8-.1-1.1.2l-2.7 2.7c-.2.2-.2.6.1.8 1.5 1 3.2 1.6 5.1 1.6s3.7-.6 5.1-1.6c.3-.2.3-.5.1-.8l-2.7-2.7zm4.9-9c-.2-.3-.5-.3-.8-.1l-2.7 2.7c-.3.3-.4.7-.2 1.1.2.4.3.9.3 1.4 0 .5-.1 1-.3 1.4-.1.4-.1.8.2 1.1l2.7 2.7c.2.2.6.2.8-.1 1-1.5 1.6-3.2 1.6-5.1 0-1.9-.6-3.7-1.6-5.1z"/>
</svg>
