<svg xmlns="http://www.w3.org/2000/svg" width="26" height="26" focusable="false" viewBox="0 0 26 26">
  <path fill="currentColor" d="M8 5H3.5c-.3 0-.5.2-.5.5v13c0 .3.2.5.5.5H7c3 0 4 2 4 2h1V7c0-.1-1-2-4-2zm1 10H6c-.5 0-1-.5-1-1s.5-1 1-1h3c.5 0 1 .5 1 1s-.5 1-1 1zm0-4H6c-.5 0-1-.5-1-1s.5-1 1-1h3c.5 0 1 .5 1 1s-.5 1-1 1zm5-4v14h1s1-2 4-2h3.5c.3 0 .5-.2.5-.5v-13c0-.3-.2-.5-.5-.5H18c-3 0-4 1.9-4 2zm2 7c0-.5.5-1 1-1h3c.5 0 1 .5 1 1s-.5 1-1 1h-3c-.5 0-1-.5-1-1zm0-4c0-.5.5-1 1-1h3c.5 0 1 .5 1 1s-.5 1-1 1h-3c-.5 0-1-.5-1-1z"/>
</svg>
