<svg xmlns="http://www.w3.org/2000/svg" width="26" height="26" focusable="false" viewBox="0 0 26 26">
  <path fill="currentColor" d="M5.521 1.3c.227 0 .426.142.497.362.045.134.088.275.132.419.276.903.587 1.92 1.585 2.209l1.334.419c.476.135.476.86 0 .994l-1.355.433a2.047 2.047 0 0 0-1.277 1.272l-.419 1.335c-.135.476-.859.476-.993 0a8.652 8.652 0 0 1-.166-.524c-.173-.58-.384-1.292-.75-1.6-.312-.366-1.046-.585-1.63-.76a9.665 9.665 0 0 1-.491-.156.525.525 0 0 1-.362-.49.52.52 0 0 1 .355-.497l1.334-.447A2.069 2.069 0 0 0 4.599 2.99l.426-1.328A.526.526 0 0 1 5.52 1.3ZM12.44 2.6c-.588 0-1.064.476-1.064 1.063v1.543c0 .88-.51 1.993-1.734 2.361l-1.312.42a.113.113 0 0 0-.042.039l-.002.003-.402 1.28c-.365 1.226-1.48 1.74-2.363 1.74-.87 0-1.965-.499-2.346-1.687a7.463 7.463 0 0 1-.085-.256A1.95 1.95 0 0 0 3.25 13v9.1a1.3 1.3 0 0 0 1.3 1.3h16.9a1.3 1.3 0 0 0 1.3-1.3V13a1.95 1.95 0 1 0 0-3.9V6.5a1.3 1.3 0 0 0-1.3-1.3h-6.824V3.663c0-.587-.476-1.063-1.064-1.063H12.44ZM10.4 13.325a1.625 1.625 0 1 1-3.25 0 1.625 1.625 0 0 1 3.25 0Zm6.826 1.625a1.625 1.625 0 1 1 0-3.25 1.625 1.625 0 0 1 0 3.25Zm-7.475 2.6h6.5v1.95h-6.5v-1.95Z"/>
</svg>
