<svg xmlns="http://www.w3.org/2000/svg" width="26" height="26" focusable="false" viewBox="0 0 26 26">
  <path fill="currentColor" d="M2.6 1.3a1.3 1.3 0 0 0-1.3 1.3v20.8a1.3 1.3 0 0 0 1.3 1.3h20.8a1.3 1.3 0 0 0 1.3-1.3V2.6a1.3 1.3 0 0 0-1.3-1.3H2.6Zm19.028 6.5c.261 0 .473.211.473.473v4.886c0 .42-.51.632-.807.334l-1.759-1.758-4.762 4.71a.975.975 0 0 1-1.371 0l-3.175-3.14-4.662 4.663a.975.975 0 0 1-1.379-1.379l5.347-5.35a.975.975 0 0 1 1.375-.003l3.18 3.145 4.069-4.025-1.75-1.75a.473.473 0 0 1 .335-.806h4.886Z"/>
</svg>
