<svg xmlns="http://www.w3.org/2000/svg" width="26" height="26" focusable="false" viewBox="0 0 26 26">
  <path fill="currentColor" d="M23.784 11.342h-.008a2.75 2.75 0 0 1-2.541-1.699l-.04-.097a2.752 2.752 0 0 1 .596-2.998.9.9 0 0 0 0-1.298L20.74 4.2a.923.923 0 0 0-1.296 0 2.738 2.738 0 0 1-2.984.594l-.104-.043a2.742 2.742 0 0 1-1.693-2.532.917.917 0 0 0-.916-.918h-1.492a.916.916 0 0 0-.917.918A2.733 2.733 0 0 1 9.64 4.753l-.027.011a2.738 2.738 0 0 1-3.055-.565.936.936 0 0 0-1.308 0L4.197 5.252a.92.92 0 0 0 0 1.296l.01.008a2.743 2.743 0 0 1 .573 3.036l-.02.046a2.734 2.734 0 0 1-2.535 1.704h-.008a.918.918 0 0 0-.916.918v1.48c0 .506.41.917.916.917h.003a2.73 2.73 0 0 1 2.534 1.698l.037.09a2.743 2.743 0 0 1-.587 3.003l-.006.004a.92.92 0 0 0 0 1.297l1.052 1.052a.936.936 0 0 0 1.308 0l.006-.007a2.738 2.738 0 0 1 3-.587l.076.03a2.735 2.735 0 0 1 1.698 2.536v.009c0 .514.416.918.917.918h1.492c.5 0 .917-.403.917-.918v-.01c0-1.11.668-2.114 1.697-2.534l.077-.031a2.738 2.738 0 0 1 3 .587l.006.007a.923.923 0 0 0 1.296 0l1.051-1.053a.901.901 0 0 0 0-1.296l-.005-.004a2.743 2.743 0 0 1-.587-3.003l.037-.09a2.733 2.733 0 0 1 2.533-1.698h.015a.918.918 0 0 0 .917-.918V12.26a.918.918 0 0 0-.917-.918ZM13.001 18.2a5.2 5.2 0 1 1 0-10.4 5.2 5.2 0 0 1 0 10.4Z"/>
</svg>
