<svg xmlns="http://www.w3.org/2000/svg" width="26" height="26" focusable="false" viewBox="0 0 26 26">
  <path fill="currentColor" d="M9.1 12.35a3.9 3.9 0 1 0 0-7.8 3.9 3.9 0 0 0 0 7.8Zm11.7-1.3a2.6 2.6 0 1 1-5.2 0 2.6 2.6 0 0 1 5.2 0Zm-6.187 5.534.056.057h.001a7.8 7.8 0 0 1 2.122 4.165c.119.708-.474 1.294-1.192 1.294H2.598c-.718 0-1.311-.586-1.192-1.294a7.8 7.8 0 0 1 13.207-4.222Zm3.495 1.785a9.75 9.75 0 0 1 .607 2.113c.1.599.03 1.144-.16 1.618h4.843c.718 0 1.313-.588 1.17-1.292a6.496 6.496 0 0 0-3.883-4.713 6.499 6.499 0 0 0-4.134-.283 9.748 9.748 0 0 1 1.557 2.557Z"/>
</svg>
