<svg xmlns="http://www.w3.org/2000/svg" width="26" height="26" focusable="false" viewBox="0 0 26 26">
  <path fill="currentColor" d="m1.3 16.9.003-14.3a1.3 1.3 0 0 1 1.3-1.3H23.4a1.3 1.3 0 0 1 1.3 1.3l-.002 14.3a1.3 1.3 0 0 1-1.3 1.3H13l-5.391 5.39a.65.65 0 0 1-1.11-.46V18.2H2.601a1.3 1.3 0 0 1-1.3-1.3Zm5.526-5.525a1.625 1.625 0 1 0 0-3.25 1.625 1.625 0 0 0 0 3.25Zm7.8-1.625a1.625 1.625 0 1 0-3.25 0 1.625 1.625 0 0 0 3.25 0Zm4.55 1.625a1.625 1.625 0 1 0 0-3.25 1.625 1.625 0 0 0 0 3.25Z"/>
</svg>
