<svg xmlns="http://www.w3.org/2000/svg" width="26" height="26" focusable="false" viewBox="0 0 26 26">
  <path fill="currentColor" d="M17.806 4.51c.261.63.396 1.307.396 1.99v1.95h-10.4V6.5a5.2 5.2 0 0 1 10.004-1.99ZM2.602 5.2v18.2a1.3 1.3 0 0 0 1.3 1.3h18.2a1.3 1.3 0 0 0 1.3-1.3V5.2a1.3 1.3 0 0 0-1.3-1.3h-.975a.975.975 0 0 0-.975.975V9.1a1.3 1.3 0 0 1-1.3 1.3h-11.7a1.3 1.3 0 0 1-1.3-1.3V4.875a.975.975 0 0 0-.975-.975h-.975a1.3 1.3 0 0 0-1.3 1.3Zm15.639 9.79-6.27 6.27a1.3 1.3 0 0 1-1.839 0l-3.02-3.02a.975.975 0 1 1 1.379-1.38l2.56 2.56 5.811-5.81a.975.975 0 1 1 1.379 1.38Z"/>
</svg>
