<svg xmlns="http://www.w3.org/2000/svg" width="26" height="26" focusable="false" viewBox="0 0 26 26">
  <path fill="currentColor" d="M5.2 2.925a1.625 1.625 0 0 1 3.25 0v4.55a1.625 1.625 0 1 1-3.25 0v-4.55Zm12.35 0a1.625 1.625 0 1 1 3.25 0v4.55a1.625 1.625 0 0 1-3.25 0v-4.55ZM15.6 3.9h-5.2v3.575a3.575 3.575 0 0 1-7.15 0V3.9H2.6a1.3 1.3 0 0 0-1.3 1.3v18.2a1.3 1.3 0 0 0 1.3 1.3h20.8a1.3 1.3 0 0 0 1.3-1.3V5.2a1.3 1.3 0 0 0-1.3-1.3h-.65v3.575a3.575 3.575 0 0 1-7.15 0V3.9Zm-.974 10.725a1.625 1.625 0 1 1-3.25 0 1.625 1.625 0 0 1 3.25 0Zm4.55 1.625a1.625 1.625 0 1 1 0-3.25 1.625 1.625 0 0 1 0 3.25Zm-4.55 3.575a1.625 1.625 0 1 1-3.25 0 1.625 1.625 0 0 1 3.25 0Zm-7.8 1.625a1.625 1.625 0 1 1 0-3.25 1.625 1.625 0 0 1 0 3.25ZM20.8 19.825a1.625 1.625 0 1 1-3.25 0 1.625 1.625 0 0 1 3.25 0Z"/>
</svg>
