<svg xmlns="http://www.w3.org/2000/svg" width="26" height="26" focusable="false" viewBox="0 0 26 26">
  <path fill="currentColor" d="M15.812 3.827A7.15 7.15 0 0 0 5.847 10.4h.32c.54 0 .98.407.98.894v5.362c0 .502-.44.894-.98.894H4.221c-1.623 0-2.925-1.207-2.925-2.681V13.08c0-1.388 1.145-2.517 2.6-2.665a9.1 9.1 0 1 1 18.2 0c1.468.149 2.6 1.291 2.6 2.665v1.788c0 1.49-1.319 2.68-2.925 2.68h-.103c-.511 2.357-2.063 3.602-3.489 4.226a7.533 7.533 0 0 1-.711.268 2.276 2.276 0 1 1-.362-1.938c.096-.035.194-.074.291-.117.914-.4 1.84-1.107 2.26-2.452-.46-.074-.811-.446-.811-.88v-5.362c0-.502.44-.894.98-.894h.32a7.152 7.152 0 0 0-4.335-6.573Z"/>
</svg>
