<svg xmlns="http://www.w3.org/2000/svg" width="26" height="26" focusable="false" viewBox="0 0 26 26">
  <path fill="currentColor" d="M20.007 4H5.993A.993.993 0 005 4.988v8.788a.49.49 0 00.496.494h2.73a.49.49 0 01.496.494v.742a.49.49 0 00.496.494h7.564a.49.49 0 00.496-.494v-.742a.49.49 0 01.496-.494h2.978a.252.252 0 00.248-.247V4.988A.993.993 0 0020.007 4zM9.798 8C9.362 8 9 7.563 9 7.011V6.99c0-.553.362-.99.798-.99h6.395c.445 0 .807.448.807 1s-.362 1-.807 1H9.798zm0 4C9.362 12 9 11.563 9 11.011v-.022c0-.552.362-.989.798-.989h6.395c.445 0 .807.448.807 1s-.362 1-.807 1H9.798zM21 16.52v4.46c0 .56-.447 1.02-.993 1.02H5.993C5.447 22 5 21.54 5 20.98v-4.47c0-.281.222-.51.496-.51h.993c.278 0 .496.224.496.51v.766c0 .285.218.51.496.51H18.52a.504.504 0 00.496-.51v-.756c0-.286.227-.52.506-.52h.973c.278 0 .506.234.506.52"/>
</svg>
