<svg xmlns="http://www.w3.org/2000/svg" width="85" height="26" focusable="false" viewBox="0 0 85 26">
  <path fill="currentColor" d="M.9 13c0-3.2 2.5-5.7 5.7-5.7 2.4 0 4.4 1.4 5.2 3.4l-2.1.9C9.2 10.3 8 9.5 6.6 9.5c-2 0-3.4 1.6-3.4 3.5s1.5 3.5 3.5 3.5c1.5 0 2.6-.9 3.1-2.2l2.1.9c-.9 2-2.7 3.4-5.3 3.4C3.4 18.7.9 16.2.9 13zm12.3 0c0-3.2 2.5-5.7 5.7-5.7s5.7 2.5 5.7 5.7-2.5 5.7-5.7 5.7-5.7-2.5-5.7-5.7zm9.1 0c0-1.9-1.5-3.5-3.4-3.5s-3.4 1.6-3.4 3.5 1.5 3.5 3.4 3.5 3.4-1.5 3.4-3.5zm4.3-5.5H29V9c.7-1 1.9-1.6 3.4-1.6 2.8 0 4.5 1.8 4.5 4.8v6.4h-2.4v-6.2c0-1.8-.9-2.9-2.7-2.9-1.6 0-2.8 1.2-2.8 3.1v6h-2.3V7.5zm12.7 0h2.3V9c.7-1 1.9-1.6 3.4-1.6 2.8 0 4.5 1.8 4.5 4.8v6.4h-2.4v-6.2c0-1.8-.9-2.9-2.7-2.9-1.6 0-2.8 1.2-2.8 3.1v6h-2.3V7.5zm12.2 5.6c0-3.2 2.5-5.8 5.7-5.8s5.6 2.3 5.6 5.6v.9h-9.1c.3 1.7 1.6 2.8 3.5 2.8 1.5 0 2.6-.8 3.2-2l1.9 1.1c-1 1.8-2.7 3-5.1 3-3.4 0-5.7-2.4-5.7-5.6zm2.3-1.3h6.6c-.4-1.6-1.6-2.5-3.2-2.5-1.7.1-2.9 1.1-3.4 2.5zM64.3 13c0-3.2 2.5-5.7 5.7-5.7 2.4 0 4.4 1.4 5.2 3.4l-2.1.9c-.5-1.3-1.7-2.1-3.1-2.1-2 0-3.4 1.6-3.4 3.5s1.5 3.5 3.5 3.5c1.5 0 2.6-.9 3.1-2.2l2.1.9c-.9 2-2.7 3.4-5.3 3.4-3.2.1-5.7-2.4-5.7-5.6zm12.2-5.5h1.9V5l2.4-1.3v3.9h2.3v2.1h-2.3V14c0 2 .3 2.3 2.3 2.3v2.2h-.4c-3.3 0-4.3-1.1-4.3-4.5V9.7h-1.9V7.5z"/>
</svg>
