<svg xmlns="http://www.w3.org/2000/svg" width="87" height="26" focusable="false" viewBox="0 0 87 26">
  <path fill="currentColor" d="M1.05 16.23L8.92 4.54H1.29V2.25h10.47v2.2l-7.9 11.69h7.9v2.31H1.05zM12.78 13a5.71 5.71 0 015.77-5.82 5.51 5.51 0 015.71 5.66v.93h-9.19a3.39 3.39 0 003.57 2.84 3.47 3.47 0 003.24-2l1.95 1.08a5.6 5.6 0 01-5.19 3A5.6 5.6 0 0112.78 13zm2.4-1.25h6.66a3.11 3.11 0 00-3.29-2.48 3.45 3.45 0 00-3.37 2.43zm10.98-4.4h2.35V8.8a4.17 4.17 0 013.42-1.67c2.8 0 4.5 1.82 4.5 4.84v6.48H34v-6.28c0-1.82-.91-3-2.69-3a2.84 2.84 0 00-2.81 3.15v6.1h-2.34zM38.3 12.9a5.53 5.53 0 015.54-5.77 4.79 4.79 0 013.69 1.67V2.25h2.35v16.2h-2.35v-1.53a4.72 4.72 0 01-3.71 1.75 5.58 5.58 0 01-5.52-5.77zm9.36 0a3.51 3.51 0 10-7 0 3.51 3.51 0 107 0zm4.1.1a5.71 5.71 0 015.77-5.82 5.51 5.51 0 015.71 5.66v.93h-9.19a3.39 3.39 0 003.57 2.84 3.47 3.47 0 003.24-2l2 1.08A5.9 5.9 0 0151.76 13zm2.4-1.25h6.66a3.11 3.11 0 00-3.29-2.48 3.45 3.45 0 00-3.37 2.43zm10.14 4.41L66.43 15a3.22 3.22 0 002.93 1.6c1.37 0 2.08-.67 2.08-1.44s-1.33-1.11-2.75-1.42c-1.88-.38-3.88-1-3.88-3.29 0-1.75 1.69-3.37 4.33-3.35a5.09 5.09 0 014.52 2.15l-2 1.09a2.85 2.85 0 00-2.53-1.26c-1.31 0-1.93.59-1.93 1.33s1 1 2.64 1.35c1.86.4 4 1 4 3.35 0 1.67-1.49 3.57-4.57 3.55-2.42.01-4.02-.85-4.97-2.5zm15.55-2.64L78 15.57v2.88h-2.36V2.25H78v10.61l5-5.51h2.86l-4.34 4.75L86 18.45h-2.71z"/>
</svg>
