<svg xmlns="http://www.w3.org/2000/svg" width="57" height="26" focusable="false" viewBox="0 0 57 26">
  <path fill="currentColor" d="M.9 13.1c0-3.5 2.6-5.7 5.5-5.7 1.4 0 2.8.6 3.6 1.7V7.6h2.3v10.7c0 3.2-2 5.6-5.5 5.6-2.7 0-4.6-1.3-5.4-3.1l2.2-1c.5 1.2 1.6 2 3.3 2 2 0 3.2-1.5 3.2-3.3V17c-.8 1.1-2.2 1.8-3.7 1.8-2.8-.1-5.5-2.3-5.5-5.7zm9.3-.1c0-1.9-1.5-3.5-3.5-3.5-1.9 0-3.5 1.5-3.5 3.5s1.5 3.6 3.5 3.6 3.5-1.6 3.5-3.6zm4.1 1V7.6h2.4v6.2c0 1.8.9 2.9 2.6 2.9 1.6 0 2.8-1.2 2.8-3.1v-6h2.3v10.9h-2.3v-1.4c-.7 1-1.9 1.6-3.3 1.6-2.9 0-4.5-1.7-4.5-4.7zM28.1 2.8c.9 0 1.6.7 1.6 1.6s-.7 1.5-1.6 1.5c-.9 0-1.6-.7-1.6-1.6s.7-1.5 1.6-1.5zm-1.2 4.8h2.4v10.9h-2.4V7.6zm4.2 5.5c0-3.5 2.6-5.7 5.5-5.7 1.4 0 2.8.6 3.6 1.6V2.6h2.3v16h-2.3V17c-.8 1.1-2.2 1.7-3.7 1.7-2.7 0-5.4-2.2-5.4-5.6zm9.3-.1c0-1.9-1.5-3.5-3.5-3.5-1.9 0-3.5 1.6-3.5 3.5s1.5 3.6 3.5 3.6 3.5-1.6 3.5-3.6zm4.1.1c0-3.2 2.5-5.7 5.7-5.7s5.6 2.3 5.6 5.6v.9h-9.1c.3 1.7 1.6 2.8 3.5 2.8 1.5 0 2.6-.8 3.2-2l1.9 1.1c-1 1.8-2.7 3-5.1 3-3.4-.1-5.7-2.5-5.7-5.7zm2.4-1.2h6.6c-.4-1.6-1.6-2.5-3.2-2.5-1.7 0-3 1-3.4 2.5z"/>
</svg>
