<svg xmlns="http://www.w3.org/2000/svg" width="78" height="26" focusable="false" viewBox="0 0 78 26">
  <path fill="currentColor" d="M1 13.1c0-3.2 2.5-5.8 5.7-5.8s5.6 2.3 5.6 5.6v.9H3.2c.3 1.7 1.6 2.8 3.5 2.8 1.5 0 2.6-.8 3.2-2l1.9 1.1c-1 1.8-2.7 3-5.1 3-3.4.1-5.7-2.4-5.7-5.6zm2.3-1.2h6.6c-.4-1.6-1.6-2.5-3.2-2.5-1.7 0-2.9 1-3.4 2.5zM17 13l-4-5.4h2.9l2.6 3.6 2.7-3.6H24L20 13l4.2 5.6h-2.9l-2.9-3.8-2.7 3.8h-2.9L17 13zm11 4.2v6.4h-2.3v-16H28v1.5c.8-1.1 2.2-1.8 3.7-1.8 2.9 0 5.5 2.2 5.5 5.7s-2.7 5.7-5.4 5.7c-1.7.1-3-.5-3.8-1.5zm6.8-4.2c0-2-1.5-3.6-3.5-3.6S27.8 11 27.8 13s1.5 3.6 3.5 3.6 3.5-1.6 3.5-3.6zm4.4-10.5h2.3v16h-2.3v-16zm4.4 10.6c0-3.2 2.5-5.7 5.7-5.7S55 9.9 55 13.1s-2.5 5.7-5.7 5.7-5.7-2.5-5.7-5.7zm9 0c0-1.9-1.5-3.5-3.4-3.5s-3.4 1.6-3.4 3.5 1.5 3.5 3.4 3.5 3.4-1.6 3.4-3.5zM57 7.6h2.3v1.7c.6-1.1 1.7-1.7 3.2-1.7h1.1v2.2h-1.4c-2 0-2.8 1-2.8 3.3v5.4H57V7.6zm7.7 5.5c0-3.2 2.5-5.8 5.7-5.8S76 9.6 76 12.9v.9h-9.1c.3 1.7 1.6 2.8 3.5 2.8 1.5 0 2.6-.8 3.2-2l1.9 1.1c-1 1.8-2.7 3-5.1 3-3.4.1-5.7-2.4-5.7-5.6zm2.4-1.2h6.6c-.4-1.6-1.6-2.5-3.2-2.5-1.7 0-3 1-3.4 2.5z"/>
</svg>
