<svg xmlns="http://www.w3.org/2000/svg" width="115" height="26" focusable="false" viewBox="0 0 115 26">
  <path fill="currentColor" d="M1.1 2.3h2.4v6.5c.8-1 2-1.6 3.4-1.6 2.8 0 4.5 1.8 4.5 4.8v6.5H9v-6.3c0-1.8-.9-3-2.7-3-1.6 0-2.8 1.2-2.8 3.2v6.1H1.1V2.3zM13.2 13c0-3.3 2.5-5.8 5.8-5.8s5.7 2.4 5.7 5.7v.9h-9.2c.3 1.7 1.6 2.8 3.6 2.8 1.5 0 2.7-.8 3.2-2l2 1.1c-1 1.8-2.7 3-5.2 3-3.5.1-5.9-2.5-5.9-5.7zm2.4-1.2h6.7c-.4-1.6-1.6-2.5-3.3-2.5-1.6 0-2.9 1-3.4 2.5zm11-9.5H29v16.2h-2.4V2.3zm7.2 14.9v6.5h-2.4V7.4h2.4V9c.8-1.1 2.2-1.8 3.7-1.8 2.9 0 5.5 2.2 5.5 5.8 0 3.5-2.7 5.8-5.5 5.8-1.5 0-2.9-.6-3.7-1.6zm6.8-4.2c0-2-1.5-3.6-3.5-3.6S33.6 11 33.6 13s1.5 3.6 3.5 3.6 3.5-1.6 3.5-3.6zm8.3 0c0-3.3 2.6-5.8 5.8-5.8 2.5 0 4.4 1.4 5.3 3.4l-2.1.9c-.6-1.3-1.7-2.1-3.1-2.1-2 0-3.5 1.6-3.5 3.6s1.5 3.6 3.5 3.6c1.5 0 2.6-.9 3.1-2.2l2.2.9c-.9 2-2.7 3.5-5.3 3.5-3.4 0-5.9-2.6-5.9-5.8zm12.2 0c0-3.3 2.5-5.8 5.8-5.8s5.7 2.4 5.7 5.7v.9h-9.2c.3 1.7 1.6 2.8 3.6 2.8 1.5 0 2.7-.8 3.2-2l2 1.1c-1 1.8-2.7 3-5.2 3-3.5.1-5.9-2.5-5.9-5.7zm2.4-1.2h6.7c-.4-1.6-1.6-2.5-3.3-2.5-1.7 0-3 1-3.4 2.5zm11-4.4h2.4v1.4c.8-1 2-1.7 3.4-1.7 2.8 0 4.5 1.8 4.5 4.8v6.5h-2.4v-6.3c0-1.8-.9-3-2.7-3-1.6 0-2.8 1.2-2.8 3.2v6.1h-2.4v-11zm11.6 0H88V4.8l2.4-1.3v3.9h2.4v2.1h-2.4V14c0 2 .3 2.3 2.4 2.3v2.2h-.4c-3.4 0-4.4-1-4.4-4.5V9.6h-1.9V7.4zm7.7 5.6c0-3.3 2.5-5.8 5.8-5.8s5.7 2.4 5.7 5.7v.9H96c.3 1.7 1.6 2.8 3.6 2.8 1.5 0 2.7-.8 3.2-2l2 1.1c-1 1.8-2.7 3-5.2 3-3.5.1-5.8-2.5-5.8-5.7zm2.4-1.2h6.7c-.4-1.6-1.6-2.5-3.3-2.5-1.7 0-3 1-3.4 2.5zm10.9-4.4h2.4v1.8c.6-1.1 1.7-1.8 3.2-1.8h1.1v2.3h-1.4c-2 0-2.8 1-2.8 3.3v5.5h-2.4V7.4z"/>
</svg>
