<svg xmlns="http://www.w3.org/2000/svg" width="51.6" height="26" focusable="false" viewBox="0 0 51.6 26">
  <path fill="currentColor" d="M.9 15.72L3 14.06a4.43 4.43 0 0 0 3.88 2.35 2.67 2.67 0 0 0 2.93-2.6c0-1.66-1.77-2.19-3.64-2.79-2.17-.71-4.54-1.6-4.54-4.57C1.63 4 3.83 2 6.82 2a6.37 6.37 0 0 1 5.24 2.4l-2 1.46a3.68 3.68 0 0 0-3.24-1.7c-1.64 0-2.7 1-2.7 2.24 0 1.6 1.71 2.07 3.57 2.69 2.22.75 4.64 1.71 4.64 4.72 0 2.49-2 4.86-5.39 4.86A7.2 7.2 0 0 1 .9 15.72zm13.31-1.91V7.36h2.42v6.25c0 1.82.89 3 2.68 3a2.84 2.84 0 0 0 2.8-3.13V7.36h2.37v11.09h-2.35V17a4.11 4.11 0 0 1-3.37 1.66c-2.93.01-4.55-1.81-4.55-4.85zM27.94 2.45a1.54 1.54 0 0 1 1.6 1.6 1.6 1.6 0 1 1-3.19 0 1.54 1.54 0 0 1 1.59-1.6zm-1.19 4.91h2.39v11.09h-2.39zm4.19 0h1.88V4.74l2.4-1.31v3.93h2.35v2.13h-2.35v4.41c0 2 .31 2.31 2.35 2.31v2.24h-.35c-3.37 0-4.4-1.06-4.4-4.53V9.49h-1.88zM38.73 13a5.71 5.71 0 0 1 5.76-5.82 5.51 5.51 0 0 1 5.71 5.66v.93H41a3.39 3.39 0 0 0 3.57 2.84 3.46 3.46 0 0 0 3.24-2l2 1.08a5.62 5.62 0 0 1-5.2 3A5.59 5.59 0 0 1 38.73 13zm2.39-1.24h6.66a3.11 3.11 0 0 0-3.29-2.49 3.45 3.45 0 0 0-3.37 2.44z"/>
</svg>
