<svg xmlns="http://www.w3.org/2000/svg" width="56" height="26" focusable="false" viewBox="0 0 56 26">
  <path fill="currentColor" d="M6.5 7.4h2.4v1.4c.8-1 2-1.7 3.4-1.7 2.8 0 4.5 1.8 4.5 4.8v6.5h-2.4v-6.3c0-1.8-.9-3-2.7-3-1.6 0-2.8 1.2-2.8 3.2v6.1H6.5v-11zM2.8 2.5c.9 0 1.6.7 1.6 1.6s-.7 1.6-1.6 1.6c-1 0-1.6-.7-1.6-1.6s.7-1.6 1.6-1.6zM1.6 7.4H4v11.1H1.6V7.4zm19.8 9.5v1.5h-2.3V2.3h2.3v6.6c.8-1 2.2-1.7 3.7-1.7 2.9 0 5.5 2.2 5.5 5.7s-2.7 5.7-5.5 5.7c-1.4.1-2.9-.6-3.7-1.7zm6.9-4c0-2-1.5-3.6-3.5-3.6s-3.5 1.6-3.5 3.6 1.5 3.6 3.5 3.6c1.9 0 3.5-1.6 3.5-3.6zm3.7 0c0-3.2 2.5-5.7 5.7-5.7s5.7 2.5 5.7 5.7-2.6 5.7-5.7 5.7c-3.1.1-5.7-2.5-5.7-5.7zm9.2 0c0-1.9-1.5-3.5-3.4-3.5s-3.4 1.6-3.4 3.5 1.5 3.5 3.4 3.5c1.9.1 3.4-1.5 3.4-3.5zm6.8-.1l-4-5.4h2.9l2.7 3.6 2.7-3.6H55l-4 5.4 4.3 5.6h-2.9l-2.9-3.8-2.8 3.8h-2.9l4.2-5.6z"/>
</svg>
