<svg xmlns="http://www.w3.org/2000/svg" width="109" height="26" focusable="false" viewBox="0 0 109 26">
  <path fill="currentColor" d="M72.791 7.596a4.693 4.693 0 013.627 1.7V7.811h2.366V18.44c0 3.2-2.022 5.547-5.53 5.547a5.693 5.693 0 01-5.44-3.066l2.176-1.025a3.303 3.303 0 003.264 1.987 3.14 3.14 0 002.344-.96c.61-.633.92-1.493.856-2.367v-1.402a4.7 4.7 0 01-3.69 1.798 5.543 5.543 0 01-3.947-1.699 5.45 5.45 0 01-1.52-3.992 5.37 5.37 0 011.513-4.01 5.462 5.462 0 013.981-1.655zm30.235 0a4.73 4.73 0 013.626 1.7V7.811H109V18.44c0 3.2-2.022 5.547-5.54 5.547a5.684 5.684 0 01-5.439-3.066l2.176-1.025a3.303 3.303 0 003.336 1.987 3.14 3.14 0 002.35-.956 3.087 3.087 0 00.86-2.37v-1.403a4.7 4.7 0 01-3.69 1.798 5.543 5.543 0 01-3.948-1.699 5.45 5.45 0 01-1.519-3.992 5.37 5.37 0 011.494-3.99 5.461 5.461 0 013.946-1.675zM41.932 9.709l-1.95 1.043a2.816 2.816 0 00-2.315-1.245l-.187.004c-1.296 0-1.912.585-1.912 1.304 0 .657.755.916 2.191 1.237l.761.168c1.729.401 3.593 1.071 3.593 3.216 0 1.628-1.469 3.507-4.533 3.48-2.384 0-3.943-.845-4.913-2.428l2.112-1.132a3.187 3.187 0 002.696 1.567l.196-.003c1.36 0 2.067-.656 2.067-1.412 0-.899-1.315-1.088-2.72-1.393l-.34-.07c-1.76-.379-3.504-1.047-3.504-3.158 0-1.718 1.668-3.309 4.28-3.282a5.074 5.074 0 014.478 2.104zm10.47-.027l-1.976 1.07a2.816 2.816 0 00-2.315-1.245l-.187.004c-1.296 0-1.913.585-1.913 1.304 0 .657.756.916 2.185 1.237l.759.168c1.73.401 3.602 1.071 3.602 3.216 0 1.628-1.469 3.507-4.533 3.48-2.366 0-3.944-.845-4.887-2.428l2.104-1.132a3.215 3.215 0 002.705 1.54l.196-.003c1.36 0 2.067-.656 2.067-1.412 0-.899-1.324-1.088-2.72-1.393l-.34-.07c-1.764-.379-3.54-1.047-3.54-3.158 0-1.718 1.668-3.309 4.279-3.282a5.074 5.074 0 014.515 2.104zm7.045-2.086a4.73 4.73 0 013.626 1.636v-1.42h2.348V18.7h-2.33v-1.5a4.684 4.684 0 01-3.626 1.717 5.543 5.543 0 01-3.964-1.67 5.451 5.451 0 01-1.548-3.985 5.37 5.37 0 011.512-4.01 5.462 5.462 0 013.982-1.655zM30.012 9.16a5.372 5.372 0 011.603 3.993v.899h-9.066c.277 1.695 1.809 2.902 3.536 2.787a3.439 3.439 0 003.2-1.96l1.931 1.07a5.547 5.547 0 01-5.131 2.958 5.565 5.565 0 01-4.143-1.547 5.473 5.473 0 01-1.677-3.81v-.253a5.578 5.578 0 011.64-4.048 5.67 5.67 0 013.802-1.65l.27-.003a5.464 5.464 0 014.035 1.564zm-19.828.396a4.28 4.28 0 013.707-1.96c2.992 0 4.533 1.798 4.533 4.577V18.7H16.04v-6.375a2.397 2.397 0 00-.639-1.938 2.439 2.439 0 00-1.73-.762l-.178.003c-1.47 0-2.611 1.007-2.611 2.94v6.141H8.506v-6.5a2.317 2.317 0 00-.631-1.871 2.357 2.357 0 00-1.68-.724l-.173.005c-1.532 0-2.674 1.025-2.674 3.03V18.7H1V7.812h2.33v1.304a3.856 3.856 0 013.227-1.52 3.797 3.797 0 013.627 1.96zm81.102-1.96c2.774 0 4.46 1.798 4.46 4.747V18.7H93.38v-6.159c0-1.798-.907-2.922-2.666-2.922-1.577 0-2.783 1.178-2.783 3.093V18.7h-2.348V7.812h2.33v1.42a4.092 4.092 0 013.373-1.636zm-7.942.216V18.7h-2.366V7.812h2.366zm18.253 2.32a3.437 3.437 0 00-1.68 3.129 3.437 3.437 0 001.68 3.128c1.1.655 2.474.655 3.574 0a3.437 3.437 0 001.68-3.128 3.437 3.437 0 00-1.68-3.129 3.497 3.497 0 00-3.574 0zm-43.634 0a3.437 3.437 0 00-1.68 3.129 3.437 3.437 0 001.68 3.128c1.1.655 2.475.655 3.574 0a3.437 3.437 0 001.681-3.128 3.437 3.437 0 00-1.68-3.129 3.497 3.497 0 00-3.575 0zm13.345 0a3.437 3.437 0 00-1.68 3.129 3.437 3.437 0 001.68 3.128c1.1.655 2.474.655 3.574 0a3.437 3.437 0 001.68-3.128 3.437 3.437 0 00-1.68-3.129 3.497 3.497 0 00-3.574 0zm-45.332-.486a3.406 3.406 0 00-3.336 2.437h6.582a3.042 3.042 0 00-3.246-2.437zm56.18-6.645a1.53 1.53 0 011.139.438c.301.297.463.706.448 1.127.015.422-.147.83-.448 1.13-.3.298-.713.459-1.139.443a1.52 1.52 0 01-1.138-.441 1.496 1.496 0 01-.44-.992v-.14a1.51 1.51 0 01.446-1.123c.3-.297.71-.457 1.132-.442z"/>
</svg>
