<svg xmlns="http://www.w3.org/2000/svg" width="73" height="26" focusable="false" viewBox="0 0 73 26">
  <path fill="currentColor" d="M6.506 7.746c1.453 0 2.829.635 3.67 1.681V7.97h2.37v10.537c0 3.176-2.026 5.493-5.582 5.493-2.752 0-4.626-1.308-5.467-3.027l2.18-1.009c.535 1.196 1.605 1.943 3.287 1.943 2.027 0 3.212-1.457 3.212-3.288v-1.382c-.841 1.083-2.256 1.756-3.709 1.756C3.715 18.956 1 16.788 1 13.35c0-3.438 2.638-5.605 5.506-5.605zM46.956 3v15.769h-2.331v-1.495c-.841 1.046-2.218 1.719-3.67 1.719-2.792-.037-5.506-2.205-5.506-5.642 0-3.438 2.638-5.605 5.505-5.605 1.453 0 2.868.635 3.67 1.606V3h2.333zM19.812 7.746c1.453 0 2.868.635 3.67 1.606v-1.42h2.37v10.8h-2.37v-1.495c-.84 1.046-2.217 1.719-3.67 1.719-2.83 0-5.506-2.168-5.506-5.605 0-3.438 2.638-5.605 5.506-5.605zm34.601 0c3.25 0 5.66 2.316 5.66 5.492v.897h-9.139c.306 1.644 1.644 2.765 3.556 2.765 1.491 0 2.638-.784 3.212-1.943l1.95 1.047c-.956 1.756-2.715 2.952-5.162 2.952-3.48 0-5.812-2.43-5.812-5.568 0-3.176 2.486-5.642 5.735-5.642zm13.115.037c2.79 0 4.473 1.756 4.473 4.708v6.315h-2.37v-6.165c0-1.757-.918-2.878-2.677-2.878-1.606 0-2.79 1.159-2.79 3.064v5.942h-2.371v-10.8h2.332v1.42c.765-1.008 1.95-1.606 3.403-1.606zM30.44 7.97v1.719c.612-1.084 1.682-1.72 3.212-1.72h1.07v2.205H33.27c-2.026 0-2.829 1.01-2.829 3.251v5.344h-2.37v-10.8h2.37zM6.85 9.838c-1.95 0-3.48 1.532-3.48 3.513 0 1.98 1.53 3.512 3.48 3.512 1.988 0 3.479-1.57 3.479-3.512 0-1.906-1.491-3.513-3.48-3.513zm13.305 0c-1.95 0-3.48 1.532-3.48 3.513 0 1.98 1.53 3.512 3.48 3.512 1.988 0 3.48-1.57 3.48-3.512 0-1.906-1.492-3.513-3.48-3.513zm21.143 0c-1.95 0-3.479 1.532-3.479 3.513 0 1.98 1.53 3.512 3.48 3.512 2.026 0 3.479-1.57 3.479-3.512 0-1.906-1.492-3.513-3.48-3.513zm13.153-.075c-1.644 0-2.944 1.01-3.365 2.43h6.615c-.345-1.57-1.568-2.43-3.25-2.43z"/>
</svg>
