<svg xmlns="http://www.w3.org/2000/svg" width="82" height="26" focusable="false" viewBox="0 0 82 26">
  <path fill="currentColor" d="M1.2 16.3l2.1-1.1c.6 1 1.6 1.6 2.9 1.6 1.4 0 2.1-.7 2.1-1.4 0-.9-1.3-1.1-2.7-1.4-1.9-.4-3.8-1-3.8-3.2 0-1.7 1.7-3.3 4.3-3.3 2.1 0 3.6.8 4.5 2.1l-2 1.1c-.7-1-1.5-1.4-2.7-1.4-1.2 0-1.9.5-1.9 1.3s.9 1 2.6 1.3c1.8.4 3.9 1 3.9 3.3 0 1.6-1.5 3.5-4.5 3.5-2.3 0-3.9-.8-4.8-2.4zm11.2-2.4V7.5h2.4v6.2c0 1.8.9 2.9 2.7 2.9 1.6 0 2.8-1.2 2.8-3.1v-6h2.3v11h-2.3v-1.4c-.7 1-1.9 1.6-3.3 1.6-3 0-4.6-1.8-4.6-4.8zm15 3.3v6.4h-2.3v-16h2.3v1.5c.8-1.1 2.2-1.8 3.7-1.8 2.9 0 5.5 2.2 5.5 5.7s-2.7 5.7-5.4 5.7c-1.6 0-3-.5-3.8-1.5zm6.8-4.2c0-2-1.5-3.6-3.5-3.6S27.2 11 27.2 13s1.5 3.6 3.5 3.6 3.5-1.6 3.5-3.6zm6.7 4.2v6.4h-2.3v-16h2.3v1.5c.8-1.1 2.2-1.8 3.7-1.8 2.9 0 5.5 2.2 5.5 5.7s-2.7 5.7-5.4 5.7c-1.6 0-3-.5-3.8-1.5zm6.8-4.2c0-2-1.5-3.6-3.5-3.6S40.7 11 40.7 13s1.5 3.6 3.5 3.6 3.5-1.6 3.5-3.6zm3.9 0c0-3.2 2.5-5.7 5.7-5.7S63 9.8 63 13s-2.5 5.7-5.7 5.7-5.7-2.5-5.7-5.7zm9 0c0-1.9-1.5-3.5-3.4-3.5s-3.4 1.6-3.4 3.5 1.5 3.5 3.4 3.5 3.4-1.5 3.4-3.5zM65 7.5h2.3v1.7c.6-1.1 1.7-1.7 3.2-1.7h1.1v2.2h-1.4c-2 0-2.8 1-2.8 3.3v5.4H65V7.5zm8.1 0H75V5l2.4-1.3v3.9h2.3v2.1h-2.3V14c0 2 .3 2.3 2.3 2.3v2.2h-.4c-3.3 0-4.3-1-4.3-4.5V9.6h-1.9V7.5z"/>
</svg>
