<svg xmlns="http://www.w3.org/2000/svg" width="52" height="26" focusable="false" viewBox="0 0 52 26">
  <path fill="currentColor" d="M1.35 15.72l2.13-1.66a4.44 4.44 0 003.88 2.35 2.67 2.67 0 002.93-2.6c0-1.66-1.77-2.19-3.64-2.79-2.19-.71-4.57-1.6-4.57-4.57C2.08 4 4.28 2 7.28 2a6.36 6.36 0 015.23 2.4l-2 1.46a3.66 3.66 0 00-3.23-1.7c-1.65 0-2.71 1-2.71 2.24 0 1.6 1.71 2.07 3.57 2.69 2.22.75 4.64 1.71 4.64 4.72 0 2.49-2 4.86-5.39 4.86a7.2 7.2 0 01-6.04-2.95zm13.31-1.91V7.36h2.42v6.25c0 1.82.89 3 2.69 3a2.84 2.84 0 002.79-3.13V7.36h2.38v11.09h-2.36V17a4.11 4.11 0 01-3.37 1.66c-2.93.01-4.55-1.81-4.55-4.85zM28.4 2.45a1.54 1.54 0 011.6 1.6 1.6 1.6 0 11-3.19 0 1.54 1.54 0 011.59-1.6zm-1.2 4.91h2.39v11.09H27.2zm4.19 0h1.89V4.74l2.39-1.31v3.93H38v2.13h-2.33v4.41c0 2 .31 2.31 2.35 2.31v2.24h-.35c-3.37 0-4.39-1.06-4.39-4.53V9.49h-1.89zM39.18 13A5.71 5.71 0 0145 7.13a5.51 5.51 0 015.7 5.66v.93h-9.24A3.39 3.39 0 0045 16.56a3.46 3.46 0 003.24-2l2 1.08a5.62 5.62 0 01-5.2 3A5.59 5.59 0 0139.18 13zm2.39-1.24h6.66A3.1 3.1 0 0045 9.22a3.45 3.45 0 00-3.43 2.49z"/>
</svg>
