<svg xmlns="http://www.w3.org/2000/svg" width="61" height="26" focusable="false" viewBox="0 0 61 26">
  <path fill="currentColor" d="M7.081 7.685h1.162v2.334H6.678c-2.192 0-3.082 1.042-3.082 3.406v5.631H1V7.686h2.571v1.78c.696-1.194 2.07-1.891 3.51-1.78zm11.967 1.557a5.383 5.383 0 011.61 3.999v.92h-9.116c.28 1.696 1.814 2.904 3.544 2.789 1.36.03 2.61-.738 3.19-1.96l1.937 1.07a5.572 5.572 0 01-5.15 2.991 5.575 5.575 0 01-4.131-1.579 5.482 5.482 0 01-1.653-3.805l.001-.269a5.599 5.599 0 011.644-4.058 5.692 5.692 0 013.81-1.659l.27-.003a5.476 5.476 0 014.044 1.564zm9.13-1.568a4.682 4.682 0 013.608 1.639V7.899h2.326v10.925h-2.318v-1.497a4.624 4.624 0 01-3.631 1.73 5.464 5.464 0 01-3.917-1.7 5.504 5.504 0 01-1.511-4.003 5.46 5.46 0 011.51-4.009 5.418 5.418 0 013.933-1.67zM52 2.5v6.643a4.296 4.296 0 013.447-1.655c2.819 0 4.534 1.857 4.534 4.941v6.627h-2.42v-6.394c0-1.888-.889-3.061-2.704-3.061-1.585 0-2.818 1.22-2.818 3.216v6.216h-2.405V2.5H52zm-4.506 8.53l-2.178.894c-.523-1.261-1.798-2.08-3.206-2.057a3.597 3.597 0 00-2.536 1.027 3.344 3.344 0 00-1.003 2.47 3.382 3.382 0 001.029 2.481 3.638 3.638 0 002.557 1.025c1.425-.003 2.699-.859 3.198-2.147l2.21.894c-.87 2.052-2.92 3.398-5.202 3.438h-.245a5.972 5.972 0 01-4.207-1.642 5.553 5.553 0 01-1.729-4.048 5.537 5.537 0 011.722-4.05 5.947 5.947 0 013.93-1.638l.276-.002c2.337-.048 4.469 1.28 5.384 3.355zm-20.783-.804a3.46 3.46 0 00-1.672 3.128 3.46 3.46 0 001.672 3.127 3.434 3.434 0 003.537 0 3.46 3.46 0 001.672-3.127 3.46 3.46 0 00-1.672-3.128 3.434 3.434 0 00-3.537 0zm-11.693-.5a3.428 3.428 0 00-3.363 2.446h6.62a3.072 3.072 0 00-3.257-2.445z"/>
</svg>
