<svg xmlns="http://www.w3.org/2000/svg" width="94" height="26" focusable="false" viewBox="0 0 94 26">
  <path fill="currentColor" d="M1.1 7.6h2.3v1.3c.7-1 1.8-1.5 3.2-1.5 1.8 0 3 .7 3.6 2 .7-1.2 2.1-2 3.7-2 3 0 4.5 1.8 4.5 4.6v6.6H16v-6.4c0-1.6-.9-2.7-2.5-2.7-1.5 0-2.6 1-2.6 3v6.2H8.6V12c0-1.6-.9-2.6-2.5-2.6-1.5 0-2.7 1-2.7 3.1v6.1H1.1v-11zm19 5.5c0-3.2 2.5-5.8 5.7-5.8s5.6 2.3 5.6 5.6v.9h-9.1c.3 1.7 1.6 2.8 3.5 2.8 1.5 0 2.6-.8 3.2-2l1.9 1.1c-1 1.8-2.7 3-5.1 3-3.3 0-5.7-2.4-5.7-5.6zm2.4-1.2h6.6c-.4-1.6-1.6-2.5-3.2-2.5-1.7 0-2.9 1-3.4 2.5zm10.1 4.4l2.1-1.1c.6 1 1.6 1.6 2.9 1.6 1.4 0 2.1-.7 2.1-1.4 0-.9-1.3-1.1-2.7-1.4-1.9-.4-3.8-1-3.8-3.2 0-1.7 1.7-3.3 4.3-3.3 2.1 0 3.6.8 4.5 2.1l-2 1.1c-.5-.8-1.3-1.3-2.5-1.3-1.3 0-1.9.6-1.9 1.3 0 .8.9 1 2.6 1.3 1.8.4 3.9 1 3.9 3.3 0 1.6-1.5 3.5-4.5 3.5-2.5-.1-4.1-.9-5-2.5zm10.6 0l2.1-1.1c.6 1 1.6 1.6 2.9 1.6 1.4 0 2.1-.7 2.1-1.4 0-.9-1.3-1.1-2.7-1.4-1.9-.4-3.8-1-3.8-3.2 0-1.7 1.7-3.3 4.3-3.3 2.1 0 3.6.8 4.5 2.1l-2 1.1c-.6-1-1.4-1.4-2.6-1.4-1.3 0-1.9.6-1.9 1.3 0 .8.9 1 2.6 1.3 1.8.4 3.9 1 3.9 3.3 0 1.6-1.5 3.5-4.5 3.5-2.4 0-3.9-.8-4.9-2.4zM54 13c0-3.5 2.6-5.7 5.5-5.7 1.5 0 2.8.7 3.7 1.7V7.6h2.3v11h-2.3V17c-.8 1.1-2.2 1.7-3.7 1.7-2.8 0-5.5-2.2-5.5-5.7zm9.3 0c0-2-1.5-3.6-3.5-3.6S56.3 11 56.3 13s1.5 3.6 3.5 3.6 3.5-1.6 3.5-3.6zm4.3 0c0-3.5 2.6-5.7 5.5-5.7 1.4 0 2.8.7 3.6 1.7V7.6H79v10.7c0 3.2-2 5.6-5.5 5.6-2.7 0-4.6-1.3-5.4-3.1l2.2-1c.5 1.2 1.6 2 3.3 2 2 0 3.2-1.5 3.2-3.4V17c-.8 1.1-2.2 1.8-3.7 1.8-2.8-.1-5.5-2.3-5.5-5.8zm9.3 0c0-2-1.5-3.6-3.5-3.6S69.9 11 69.9 13s1.5 3.6 3.5 3.6 3.5-1.6 3.5-3.6zm4.2.1c0-3.2 2.5-5.8 5.7-5.8s5.6 2.3 5.6 5.6v.9h-9.1c.3 1.7 1.6 2.8 3.5 2.8 1.5 0 2.6-.8 3.2-2l1.9 1.1c-1 1.8-2.7 3-5.1 3-3.4 0-5.7-2.4-5.7-5.6zm2.4-1.2h6.6c-.4-1.6-1.6-2.5-3.2-2.5-1.7 0-3 1-3.4 2.5z"/>
</svg>
