<svg xmlns="http://www.w3.org/2000/svg" width="33" height="26" focusable="false" viewBox="0 0 33 26">
  <path fill="currentColor" d="M10.3 15.17c0 1.65-1.46 3.52-4.52 3.52-2.41 0-4-.8-4.94-2.45L3 15.09a3.16 3.16 0 002.91 1.57c1.37 0 2.06-.65 2.06-1.41s-1.3-1.11-2.71-1.42c-1.88-.38-3.83-1-3.83-3.25 0-1.73 1.68-3.33 4.29-3.33a5 5 0 014.47 2.14l-2 1.07A2.79 2.79 0 005.67 9.2c-1.31 0-1.92.57-1.92 1.3s1 1 2.6 1.34c1.84.38 3.95 1 3.95 3.33zM23 12.91v.92h-9.07a3.34 3.34 0 003.52 2.79 3.46 3.46 0 003.22-2l1.91 1.08a5.52 5.52 0 01-5.13 3 5.49 5.49 0 01-5.78-5.63 5.66 5.66 0 015.71-5.74A5.42 5.42 0 0123 12.91zm-2.37-1.07a3.07 3.07 0 00-3.25-2.45 3.36 3.36 0 00-3.33 2.45zm4.29 6.66h2.33v-16h-2.33zm4.75-16v16H32v-16z"/>
</svg>
