<svg xmlns="http://www.w3.org/2000/svg" width="39" height="26" focusable="false" viewBox="0 0 39 26">
  <path fill="currentColor" d="M1.1 7.5H3V4.9l2.4-1.3v3.9h2.3v2.1H5.3V14c0 2 .3 2.3 2.3 2.3v2.2h-.3C4 18.5 3 17.4 3 14V9.6H1.1V7.5zm7.7 5.4c0-3.5 2.6-5.7 5.5-5.7 1.4 0 2.8.6 3.6 1.6V7.5h2.3v11h-2.3V17c-.8 1.1-2.2 1.7-3.7 1.7-2.7-.1-5.4-2.3-5.4-5.8zm9.3 0c0-2-1.5-3.6-3.5-3.6s-3.5 1.6-3.5 3.6 1.5 3.6 3.5 3.6 3.5-1.6 3.5-3.6zm4.7-10.5h2.3v16h-2.3v-16zm9.1 11.2l-1.8 2v2.9h-2.3v-16h2.3V13L35 7.5h2.8l-4.3 4.7 4.4 6.3h-2.6l-3.4-4.9z"/>
</svg>
