<svg xmlns="http://www.w3.org/2000/svg" width="78" height="26" focusable="false" viewBox="0 0 78 26">
  <path fill="currentColor" d="M30.303 7.155c2.514 0 5.384 1.845 5.384 5.778 0 3.911-2.982 5.778-5.34 5.778-1.468 0-2.67-.489-3.382-1.311v6.2h-3.048V7.378h3.048v1.266c.712-.866 1.847-1.489 3.338-1.489zm12.904 0c2.514 0 5.384 1.845 5.384 5.778 0 3.911-2.981 5.778-5.34 5.778-1.468 0-2.67-.489-3.381-1.311v6.2h-3.048V7.378h3.048v1.266c.712-.866 1.846-1.489 3.337-1.489zm-28.167.223v6.377c0 1.49.69 2.356 2.046 2.356 1.158 0 2.114-.8 2.114-2.666V7.378h3.048v11.11h-3.026v-1.221a3.91 3.91 0 01-3.07 1.444c-2.625 0-4.205-1.689-4.205-4.555V7.378h3.093zm-9.078-.222c2.492 0 3.916 1.022 4.716 2.577l-2.692 1.134c-.289-.734-1.045-1.222-2.047-1.222-1 0-1.446.422-1.446.91 0 .443.529.63 1.865.91l.449.09c1.87.378 4.027 1.045 4.027 3.445 0 1.622-1.513 3.755-4.717 3.711-2.692 0-4.316-1.044-5.117-3l2.915-1.133c.4 1.022 1.246 1.51 2.336 1.51 1.001 0 1.535-.466 1.535-1 0-.51-.788-.714-1.816-.914l-.564-.107C3.403 13.71 1.4 13.022 1.4 10.644c0-1.866 1.802-3.533 4.56-3.488zm49.304 0a5.75 5.75 0 015.762 5.777 5.75 5.75 0 01-5.762 5.778 5.75 5.75 0 01-5.762-5.778 5.75 5.75 0 015.762-5.778zm10.012.222V9.2c.556-1.156 1.558-1.822 3.07-1.822h1.113v2.955h-1.824c-1.624 0-2.336.845-2.336 2.911v5.245h-3.048V7.378h3.025zm10.28-4.267v4.267h2.09v2.733h-2.09v3.533c0 1.734.222 2 2.09 2v2.845h-.444c-3.458 0-4.641-1.146-4.693-4.58l-.002-3.798h-1.891V7.378h1.891v-2.6l3.048-1.667zM29.723 9.933c-1.646 0-2.848 1.334-2.848 2.978 0 1.645 1.202 3 2.848 3 1.69 0 2.981-1.289 2.981-3s-1.29-2.978-2.981-2.978zm12.905 0c-1.647 0-2.848 1.334-2.848 2.978 0 1.645 1.201 3 2.848 3 1.69 0 2.98-1.289 2.98-3s-1.29-2.978-2.98-2.978zm12.637.112c-1.58 0-2.781 1.31-2.781 2.888 0 1.578 1.202 2.89 2.781 2.89 1.557 0 2.803-1.312 2.803-2.89s-1.246-2.888-2.803-2.888z"/>
</svg>
