<svg xmlns="http://www.w3.org/2000/svg" width="39.42" height="26" focusable="false" viewBox="0 0 39.42 26">
  <path fill="currentColor" d="M5.49 4.51H.9V2.25h11.58v2.26H7.89v13.94h-2.4zm8.92-2.26h2.35v6.5a4.3 4.3 0 0 1 3.42-1.62c2.8 0 4.5 1.82 4.5 4.84v6.48h-2.41v-6.26c0-1.84-.89-3-2.69-3a2.85 2.85 0 0 0-2.79 3.15v6.1h-2.38zM26.55 13a5.71 5.71 0 0 1 5.77-5.82A5.51 5.51 0 0 1 38 12.79v.93h-9.17a3.39 3.39 0 0 0 3.57 2.84 3.46 3.46 0 0 0 3.24-2l2 1.08a5.62 5.62 0 0 1-5.2 3A5.59 5.59 0 0 1 26.55 13zm2.39-1.25h6.66a3.1 3.1 0 0 0-3.28-2.48 3.46 3.46 0 0 0-3.38 2.43z"/>
</svg>
