<svg xmlns="http://www.w3.org/2000/svg" width="87.2" height="26" focusable="false" viewBox="0 0 87.2 26">
  <path fill="currentColor" d="M.9 16.2L8.8 4.5H1.1V2.3h10.5v2.2L3.7 16.1h7.9v2.3H.9v-2.2zm11.7-3.3c0-3.3 2.5-5.8 5.8-5.8s5.7 2.4 5.7 5.7v.9h-9.2c.3 1.7 1.6 2.8 3.6 2.8 1.5 0 2.7-.8 3.2-2l2 1.1c-1 1.8-2.7 3-5.2 3-3.5.1-5.9-2.4-5.9-5.7zm2.4-1.2h6.7c-.4-1.6-1.6-2.5-3.3-2.5-1.6 0-2.9 1-3.4 2.5zm11-4.3h2.4v1.4c.8-1 2-1.7 3.4-1.7 2.8 0 4.5 1.8 4.5 4.8v6.5h-2.4v-6.3c0-1.8-.9-3-2.7-3-1.6 0-2.8 1.2-2.8 3.2v6.1H26v-11zm12.2 5.5c0-3.6 2.6-5.8 5.5-5.8 1.5 0 2.9.6 3.7 1.7V2.3h2.4v16.2h-2.4V17c-.8 1.1-2.2 1.8-3.7 1.8-2.8-.1-5.5-2.4-5.5-5.9zm9.3 0c0-2-1.5-3.6-3.5-3.6s-3.5 1.6-3.5 3.6 1.5 3.6 3.5 3.6 3.5-1.6 3.5-3.6zm4.1 0c0-3.3 2.5-5.8 5.8-5.8s5.7 2.4 5.7 5.7v.9h-9.2c.3 1.7 1.6 2.8 3.6 2.8 1.5 0 2.7-.8 3.2-2l2 1.1c-1 1.8-2.7 3-5.2 3-3.5.1-5.9-2.4-5.9-5.7zm2.4-1.2h6.7c-.4-1.6-1.6-2.5-3.3-2.5-1.7 0-2.9 1-3.4 2.5zm10.2 4.5l2.1-1.2c.6 1 1.6 1.6 2.9 1.6 1.4 0 2.1-.7 2.1-1.4 0-.9-1.3-1.1-2.8-1.4-1.9-.4-3.9-1-3.9-3.3 0-1.8 1.7-3.4 4.3-3.4 2.2 0 3.6.8 4.5 2.2l-2 1.1c-.4-.8-1.2-1.3-2.4-1.3-1.3 0-1.9.6-1.9 1.3 0 .8 1 1 2.6 1.4 1.9.4 4 1 4 3.4 0 1.7-1.5 3.6-4.6 3.6-2.4-.1-4-1-4.9-2.6zm15.5-2.7l-1.9 2v2.9h-2.4V2.3h2.4v10.6l5-5.5h2.9l-4.3 4.7 4.4 6.3h-2.7l-3.4-4.9z"/>
</svg>
