<svg xmlns="http://www.w3.org/2000/svg" width="47" height="26" focusable="false" viewBox="0 0 47 26">
  <path fill="currentColor" d="M1 13c0-3.2 2.5-5.7 5.7-5.7 2.4 0 4.4 1.4 5.2 3.4l-2.1.9c-.5-1.3-1.7-2.1-3.1-2.1-2 0-3.4 1.6-3.4 3.5s1.5 3.5 3.5 3.5c1.5 0 2.6-.9 3.1-2.2l2.1.9c-.9 2-2.7 3.4-5.3 3.4C3.5 18.8 1 16.2 1 13zM13.9 2.5h2.3v6.4c.7-1 2-1.6 3.4-1.6 2.8 0 4.5 1.8 4.5 4.8v6.4h-2.4v-6.2c0-1.8-.9-3-2.7-3-1.6 0-2.8 1.2-2.8 3.1v6h-2.3V2.5zM26 13c0-3.5 2.6-5.7 5.5-5.7 1.5 0 2.8.7 3.7 1.7V7.6h2.3v11h-2.3V17c-.8 1.1-2.2 1.7-3.7 1.7-2.8.1-5.5-2.2-5.5-5.7zm9.3 0c0-2-1.5-3.6-3.5-3.6S28.3 11 28.3 13s1.5 3.6 3.5 3.6 3.5-1.6 3.5-3.6zm3.9-5.4H41V5l2.4-1.3v3.9h2.3v2.1h-2.3V14c0 2 .3 2.3 2.3 2.3v2.2h-.4C42 18.5 41 17.4 41 14V9.7h-1.9V7.6z"/>
</svg>
