<svg xmlns="http://www.w3.org/2000/svg" width="12" height="12" focusable="false" viewBox="0 0 12 12">
  <path fill="currentColor" d="M10.5 3a.5.5 0 01.4.8L9.897 5.136l.143.057c.424.188.705.508.847.93l.043.145c.046.186.063.34.068.556L11 7c0 .304-.008.476-.044.693C10.826 8.475 10.36 9 9.5 9 8.557 9 8 8.443 8 7.5a.5.5 0 011 0c0 .39.11.5.5.5.301 0 .412-.125.47-.471l.012-.087.014-.19A4.76 4.76 0 0010 7.138V7c0-.238-.008-.36-.04-.49C9.874 6.173 9.644 6 9 6a.5.5 0 01-.4-.8l.9-1.201L8.5 4a.5.5 0 01-.492-.41L8 3.5a.5.5 0 01.41-.492L8.5 3h2zM5.926 3a1.567 1.567 0 011.431 2.203l-.048.105-.137.274-.391.736-.584 1.061L5.85 8H7a.5.5 0 01.492.41l.008.09a.5.5 0 01-.41.492L7 9H5a.5.5 0 01-.441-.735l1.17-2.108.395-.728.223-.43a5.2 5.2 0 00.096-.202.567.567 0 00-.426-.79L5.926 4h-.037a.389.389 0 00-.38.31l-.009.08v.11a.5.5 0 01-.992.09L4.5 4.5v-.111a1.39 1.39 0 011.255-1.383L5.925 3zM1.5 9a.5.5 0 01-.09-.992L1.5 8H2V4.706l-.146.148a.5.5 0 01-.765-.638l.057-.07 1-1 .042-.037.062-.042.06-.03.062-.02.054-.012.032-.003L2.512 3c.02 0 .041.002.062.005L2.5 3l.053.003.075.014.063.02.076.04.055.04.032.03.037.041.042.062.03.06.02.062.015.082L3 3.5V8h.5a.5.5 0 01.09.992L3.5 9h-2z"/>
</svg>
