<svg xmlns="http://www.w3.org/2000/svg" width="12" height="12" focusable="false" viewBox="0 0 12 12">
  <path fill="currentColor" d="M11 0a1 1 0 011 1v10a1 1 0 01-1 1H1a1 1 0 01-1-1V1a1 1 0 011-1h10zM5.926 3l-.17.006a1.39 1.39 0 00-1.25 1.25l-.006.133V4.5l.008.09a.5.5 0 00.984 0L5.5 4.5v-.111l.008-.078a.39.39 0 01.303-.303L5.889 4h.037l.091.007a.567.567 0 01.426.79l-.096.201-.223.43-.394.73-1.171 2.107a.5.5 0 00.357.728L5 9h2l.09-.008a.5.5 0 00.402-.402L7.5 8.5l-.008-.09a.5.5 0 00-.402-.402L7 8H5.85l.347-.621.584-1.06.39-.737.138-.274.048-.105a1.567 1.567 0 00-1.289-2.197L5.926 3zM2.502 3l-.044.002-.032.003-.054.012-.063.02-.059.03-.062.042-.042.037-1 1-.057.07a.5.5 0 00.695.695l.07-.057L2 4.706V8h-.5l-.09.008a.5.5 0 000 .984L1.5 9h2l.09-.008a.5.5 0 000-.984L3.5 8H3V3.5l-.002-.046-.015-.082-.02-.063-.03-.059-.042-.062-.037-.042-.032-.028-.055-.04-.076-.04-.063-.021-.061-.012L2.502 3zM10.5 3h-2l-.09.008a.5.5 0 00-.402.402L8 3.5l.008.09a.5.5 0 00.402.402L8.5 4l1-.001L8.6 5.2A.5.5 0 009 6c.645 0 .875.173.96.51.019.078.03.153.035.252L10 7l-.004.253-.014.189-.012.087C9.912 7.875 9.8 8 9.5 8c-.39 0-.5-.11-.5-.5a.5.5 0 00-1 0C8 8.443 8.557 9 9.5 9c.86 0 1.326-.525 1.456-1.307.03-.174.04-.318.043-.525v-.344a2.519 2.519 0 00-.04-.421l-.03-.135-.042-.145a1.502 1.502 0 00-.695-.854l-.152-.076-.143-.057L10.9 3.8a.5.5 0 00-.315-.793L10.5 3z"/>
</svg>
