<svg xmlns="http://www.w3.org/2000/svg" width="12" height="12" focusable="false" viewBox="0 0 12 12">
  <path fill="currentColor" d="m3.217 4.19 1.651-.56A2.802 2.802 0 0 0 6.63 1.867l.56-1.65a.33.33 0 0 1 .621 0l.56 1.651a2.802 2.802 0 0 0 1.762 1.761l1.651.56a.33.33 0 0 1 0 .621l-1.651.56A2.802 2.802 0 0 0 8.37 7.133l-.56 1.651a.33.33 0 0 1-.621 0l-.56-1.651A2.802 2.802 0 0 0 4.867 5.37l-1.651-.56a.33.33 0 0 1 0-.621ZM.12 9.328l.918-.312a1.556 1.556 0 0 0 .978-.978l.312-.917a.183.183 0 0 1 .344 0l.312.917a1.557 1.557 0 0 0 .978.978l.917.312a.183.183 0 0 1 0 .344l-.917.312a1.557 1.557 0 0 0-.978.978l-.312.917a.183.183 0 0 1-.277.088.183.183 0 0 1-.067-.088l-.312-.917a1.556 1.556 0 0 0-.978-.978L.12 9.672a.183.183 0 0 1 0-.344Z"/>
</svg>
