<svg xmlns="http://www.w3.org/2000/svg" width="12" height="12" focusable="false" viewBox="0 0 12 12">
  <path fill="currentColor" d="M2.511 2c.021 0 .042.002.063.005l.031.006.046.012.04.015a.494.494 0 01.093.05l.018.014c.014.01.027.02.04.033l2.012 2.011a.5.5 0 01-.638.765l-.07-.057L3 3.707V7.5a1.5 1.5 0 001.356 1.493L4.5 9H6a.5.5 0 01.09.992L6 10H4.5a2.5 2.5 0 01-2.495-2.336L2 7.5V3.707L.854 4.854a.5.5 0 01-.765-.638l.057-.07L2.16 2.135l.019-.017.01-.009-.042.037.047-.041.04-.028a.52.52 0 01.162-.066l.036-.006L2.5 2h.011zM7.5 2A2.5 2.5 0 0110 4.5v3.792l1.146-1.146a.5.5 0 01.765.638l-.057.07-2 2-.013.011a.503.503 0 01-.039.033l.052-.044A.502.502 0 019.5 10l.072-.005A.503.503 0 019.52 10H9.5a.509.509 0 01-.284-.089l-.018-.013a.503.503 0 01-.04-.033l-.012-.011-2-2a.5.5 0 01.638-.765l.07.057L9 8.292V4.5a1.5 1.5 0 00-1.356-1.493L7.5 3H6a.5.5 0 010-1zm-5.302.102l-.005.003-.005.004.01-.007zm.239-.098l-.006.001h-.005l.011-.001zm.014-.002l-.014.002.01-.001.004-.001zM2.5 2l-.049.002A.868.868 0 012.489 2H2.5z"/>
</svg>
