<svg xmlns="http://www.w3.org/2000/svg" width="12" height="12" focusable="false" viewBox="0 0 12 12">
  <path fill="none" stroke="currentColor" stroke-linecap="round" d="M6.2 2.3c.7-.3 2.6-1.1 4.9-.7.2 0 .4.3.4.5v8.1c0 .3-.3.5-.6.5-2.2-.4-4.1.4-4.7.7-.1.1-.3.1-.4 0-.6-.3-2.5-1.1-4.7-.7-.3 0-.6-.2-.6-.5V2.1c0-.2.2-.4.4-.5 2.3-.4 4.2.4 4.9.7.1.1.3.1.4 0zM2.5 4c.8 0 1.5.2 2.1.4M2.5 6c.8 0 1.5.2 2.1.4M2.5 8c.8 0 1.5.2 2.1.4m5-4.4c-.8 0-1.5.2-2.1.4M9.6 6c-.8 0-1.5.2-2.1.4M9.6 8c-.8 0-1.5.2-2.1.4"/>
</svg>
