<svg xmlns="http://www.w3.org/2000/svg" width="12" height="12" focusable="false" viewBox="0 0 12 12">
  <path fill="currentColor" d="M11.19 1.13C8.82.68 6.77 1.5 6 1.88 5.23 1.5 3.18.69.81 1.13c-.47.08-.81.5-.81.98v8.1c0 .29.13.57.35.76.22.19.51.27.79.22 2.08-.33 3.91.45 4.42.69.14.07.29.1.43.1s.3-.03.43-.1c.51-.25 2.35-1.03 4.42-.69.28.05.57-.04.79-.22.24-.19.37-.47.37-.77V2.1c0-.47-.34-.89-.81-.97zM2.53 3.38c.74.03 1.49.16 2.24.39.33.1.52.45.42.78-.09.26-.34.43-.61.43-.06 0-.12-.01-.18-.03-.65-.2-1.29-.31-1.93-.33a.632.632 0 01-.6-.65c.02-.34.32-.62.66-.59zm0 2c.74.03 1.49.16 2.24.39.33.1.52.45.42.78-.09.26-.34.43-.61.43-.06 0-.12-.01-.18-.03-.65-.2-1.29-.31-1.93-.33a.632.632 0 01-.6-.65c.02-.34.32-.6.66-.59zm2.65 3.16a.63.63 0 01-.6.45c-.06 0-.12-.01-.18-.03-.65-.2-1.29-.31-1.93-.33-.34-.01-.61-.3-.6-.65s.31-.63.65-.6c.74.03 1.49.16 2.24.39.34.09.52.44.42.77zm4.43.08c-.63.03-1.28.14-1.93.34a.62.62 0 01-.78-.41c-.1-.34.09-.69.42-.79.75-.23 1.5-.36 2.24-.39.38-.04.64.25.65.6.01.35-.26.64-.6.65zm0-2c-.64.03-1.28.14-1.93.34-.06.02-.12.02-.18.02a.62.62 0 01-.6-.44c-.1-.33.09-.68.42-.78.75-.23 1.5-.36 2.24-.39.38-.02.64.25.65.6.01.35-.26.64-.6.65zm0-2c-.64.03-1.28.14-1.93.34-.06.02-.12.02-.18.02a.62.62 0 01-.6-.44c-.1-.33.09-.68.42-.78.75-.23 1.5-.36 2.24-.39.38-.03.64.25.65.6.01.35-.26.64-.6.65z"/>
</svg>
