<svg xmlns="http://www.w3.org/2000/svg" width="12" height="12" focusable="false" viewBox="0 0 12 12">
  <path fill="currentColor" d="M0 3.002c0-.116.073-.218.186-.254.502-.168 1.176-.288 1.347-.881l.215-.684c.07-.244.44-.244.51 0l.222.695c.102.306.35.553.652.655l.685.215c.244.069.244.44 0 .509-.295.11-.878.218-1.089.47-.248.21-.364.796-.47 1.087A.27.27 0 0 1 2.007 5a.267.267 0 0 1-.255-.182l-.23-.684a1.061 1.061 0 0 0-.655-.659l-.681-.218A.27.27 0 0 1 0 3.002ZM.76 5.03A1.001 1.001 0 0 0 1 7v3.91c0 .602.488 1.09 1.09 1.09h7.82A1.09 1.09 0 0 0 11 10.91V7a1 1 0 0 0 0-2v-.91A1.09 1.09 0 0 0 9.91 3H7v-.955a.545.545 0 0 0-.545-.545h-.91A.545.545 0 0 0 5 2.045v.958c0 .335-.144.735-.474.997h5.383c.05 0 .091.04.091.09v6.82c0 .05-.04.09-.09.09H2.09a.09.09 0 0 1-.09-.09V6h-.002C1.55 6 .99 5.744.794 5.134A3.572 3.572 0 0 1 .76 5.03ZM7.5 9h-3v1h3V9ZM5 7a1 1 0 1 1-2 0 1 1 0 0 1 2 0Zm4 0a1 1 0 1 1-2 0 1 1 0 0 1 2 0Z"/>
</svg>
