<svg xmlns="http://www.w3.org/2000/svg" width="12" height="12" focusable="false" viewBox="0 0 12 12">
  <path fill="currentColor" d="M11.5 8.5a.5.5 0 01.5.5 2 2 0 01-1.85 1.995L10 11H7.707l.147.146a.5.5 0 01.057.638l-.057.07a.5.5 0 01-.638.057l-.07-.057-1-1a.5.5 0 01-.057-.638l.057-.07 1-1a.5.5 0 01.765.638l-.057.07-.148.146H10a1 1 0 001-1 .5.5 0 01.5-.5zM4.5 0a4.5 4.5 0 014.473 5h-1.01a3.5 3.5 0 10-2.961 2.964L5 8.972A4.5 4.5 0 114.5 0zm6.284 5.089l.07.057 1 1a.5.5 0 01.057.638l-.057.07-1 1a.5.5 0 01-.765-.638l.057-.07.147-.147L8 7a1 1 0 00-1 1 .5.5 0 01-1 0 2 2 0 011.85-1.995L8 6l2.292-.001-.146-.145a.5.5 0 01-.057-.638l.057-.07a.5.5 0 01.638-.057zM4.5 2a.5.5 0 01.492.41L5 2.5v2a.5.5 0 01-.41.492L4.5 5h-2a.5.5 0 01-.09-.992L2.5 4H4V2.5a.5.5 0 01.41-.492L4.5 2z"/>
</svg>
