<svg xmlns="http://www.w3.org/2000/svg" width="12" height="12" focusable="false" viewBox="0 0 12 12">
  <path fill="currentColor" d="M2 1h5v2c0 .556.444 1 1 1h2v1a.5.5 0 0 0 1 0V3.528a.51.51 0 0 0 0-.063V3.21a.953.953 0 0 0-.316-.722L8.495.296A.952.952 0 0 0 7.79 0h-.255a.497.497 0 0 0-.063 0H2c-.556 0-1 .444-1 1v10c0 .556.444 1 1 1h4a.5.5 0 0 0 0-1H2V1Zm7.293 2H8V1.707L9.293 3Z"/>
  <path fill="currentColor" d="M10 8.5a1.5 1.5 0 1 1-3 0 1.5 1.5 0 0 1 3 0Zm-.121 2.086a2.5 2.5 0 1 1 .707-.707l1.268 1.268a.5.5 0 0 1-.707.707l-1.268-1.268ZM3 9.5a.5.5 0 0 1 .5-.5h1a.5.5 0 0 1 0 1h-1a.5.5 0 0 1-.5-.5Zm0-2a.5.5 0 0 1 .5-.5h1a.5.5 0 0 1 0 1h-1a.5.5 0 0 1-.5-.5Zm0-2a.5.5 0 0 1 .5-.5h3a.5.5 0 0 1 0 1h-3a.5.5 0 0 1-.5-.5Z"/>
</svg>
