<svg xmlns="http://www.w3.org/2000/svg" width="12" height="12" focusable="false" viewBox="0 0 12 12">
  <path fill="currentColor" d="M9.879 10.586a2.5 2.5 0 1 1 .707-.707l1.268 1.268a.5.5 0 0 1-.707.707l-1.268-1.268ZM10 8.5a1.5 1.5 0 1 1-3 0 1.5 1.5 0 0 1 3 0Z"/>
  <path fill="currentColor" d="M8.5 4h2a.5.5 0 0 1 0 1h-7c-.28 0-.5.22-.5.5s.22.5.5.5h1.024c.358 0 .562.46.387.772A.433.433 0 0 1 4.539 7H3.5c-.28 0-.5.22-.5.5s.22.5.5.5h1.063C4.81 8 5 8.22 5 8.467 5 8.748 4.787 9 4.506 9H3.5c-.28 0-.5.22-.5.5s.22.5.5.5H5a1 1 0 1 1 0 2H2c-.55 0-1-.45-1-1V1c0-.55.45-1 1-1h4.5c.28 0 .5.22.5.5v2C7 3.33 7.67 4 8.5 4Z"/>
  <path fill="currentColor" d="M8 2V.5c0-.44.54-.67.85-.35l2 2c.32.31.1.85-.35.85H9c-.55 0-1-.45-1-1Z"/>
</svg>
