<svg xmlns="http://www.w3.org/2000/svg" width="12" height="12" focusable="false" viewBox="0 0 12 12">
  <path fill="currentColor" d="M6 12A6 6 0 1 0 6 0a6 6 0 0 0 0 12ZM3.77 5.53c-.51 0-.92-.23-1.1-.39a.505.505 0 0 1-.05-.71c.18-.21.5-.23.71-.05 0 0 .27.21.64.12a.77.77 0 0 0 .5-.43.504.504 0 0 1 .95.33c-.1.31-.47.87-1.18 1.06-.16.04-.33.07-.47.07Zm4.07-.06c-.71-.19-1.08-.76-1.18-1.06-.09-.26.05-.55.31-.63.26-.09.55.05.63.31 0 0 .13.32.49.42.37.1.63-.11.64-.12.21-.17.52-.15.7.06.18.21.16.52-.05.7-.19.17-.59.38-1.09.38-.14 0-.29-.02-.45-.06Zm1.097 2.787a.5.5 0 0 1-.874.486C7.63 7.964 6.878 7.5 6 7.5c-.879 0-1.63.464-2.063 1.243a.5.5 0 0 1-.874-.486C3.668 7.168 4.75 6.5 6 6.5c1.25 0 2.332.668 2.937 1.757Z"/>
</svg>
