<svg xmlns="http://www.w3.org/2000/svg" width="12" height="12" focusable="false" viewBox="0 0 12 12">
  <path fill="currentColor" d="M2.67 5.39c.18.16.59.39 1.1.39.14 0 .31-.03.47-.07.71-.19 1.08-.75 1.18-1.06a.504.504 0 0 0-.95-.33.77.77 0 0 1-.5.43c-.37.09-.64-.12-.64-.12a.505.505 0 0 0-.71.05c-.18.21-.16.53.05.71Zm5.62.39c-.14 0-.29-.02-.45-.06-.71-.19-1.08-.76-1.18-1.06-.09-.26.05-.55.31-.63.26-.09.55.05.63.31 0 0 .13.32.49.42.37.1.63-.11.64-.12.21-.17.52-.15.7.06.18.21.16.52-.05.7-.19.17-.59.38-1.09.38Zm.453 3.157a.5.5 0 0 0 .194-.68C8.332 7.168 7.25 6.5 6 6.5c-1.25 0-2.332.668-2.937 1.757a.5.5 0 0 0 .874.486C4.369 7.964 5.121 7.5 6 7.5c.878 0 1.63.464 2.063 1.243a.5.5 0 0 0 .68.194ZM12 6A6 6 0 1 1 0 6a6 6 0 0 1 12 0Zm-1 0A5 5 0 1 0 1 6a5 5 0 0 0 10 0Z"/>
</svg>
