<svg xmlns="http://www.w3.org/2000/svg" width="12" height="12" focusable="false" viewBox="0 0 12 12">
  <path fill="currentColor" d="M6 12A6 6 0 1 0 6 0a6 6 0 0 0 0 12ZM4.75 5.49c-.16 0-.32-.07-.42-.21 0 0-.2-.28-.58-.28-.38 0-.58.27-.58.28-.15.23-.46.29-.69.14a.513.513 0 0 1-.15-.7c.18-.27.68-.72 1.42-.72.74 0 1.24.45 1.42.72.15.23.09.54-.14.69a.46.46 0 0 1-.28.08Zm4.08-.21S8.63 5 8.25 5c-.356 0-.554.238-.586.275l-.004.005c-.16.22-.47.28-.69.12-.22-.16-.29-.46-.13-.68.18-.27.68-.72 1.42-.72.74 0 1.24.45 1.42.72.15.23.09.54-.14.69a.46.46 0 0 1-.28.08.53.53 0 0 1-.43-.21ZM3.063 7.743a.5.5 0 1 1 .874-.486C4.369 8.035 5.12 8.5 6 8.5c.878 0 1.63-.465 2.063-1.243a.5.5 0 1 1 .874.486C8.332 8.832 7.25 9.5 6 9.5c-1.25 0-2.332-.668-2.937-1.757Z"/>
</svg>
