<svg xmlns="http://www.w3.org/2000/svg" width="12" height="12" focusable="false" viewBox="0 0 12 12">
  <path fill="currentColor" d="M8.58 5.28c.1.14.27.21.43.21.1 0 .2-.02.28-.08.23-.15.29-.46.14-.69C9.25 4.45 8.75 4 8.01 4c-.74 0-1.24.45-1.42.72-.16.22-.09.52.13.68.22.16.53.1.69-.12l.004-.005C7.446 5.238 7.644 5 8 5c.38 0 .58.28.58.28ZM5 5.49c-.16 0-.32-.07-.42-.21 0 0-.2-.28-.58-.28-.38 0-.58.27-.58.28-.15.23-.46.29-.69.14a.513.513 0 0 1-.15-.7C2.76 4.45 3.26 4 4 4c.74 0 1.24.45 1.42.72.15.23.09.54-.14.69a.46.46 0 0 1-.28.08ZM3.257 7.063a.5.5 0 0 0-.194.68C3.668 8.832 4.75 9.5 6 9.5c1.25 0 2.332-.668 2.937-1.757a.5.5 0 0 0-.874-.486C7.63 8.035 6.878 8.5 6 8.5c-.879 0-1.63-.465-2.063-1.243a.5.5 0 0 0-.68-.194ZM12 6A6 6 0 1 1 0 6a6 6 0 0 1 12 0Zm-1 0A5 5 0 1 0 1 6a5 5 0 0 0 10 0Z"/>
</svg>
