<svg xmlns="http://www.w3.org/2000/svg" width="12" height="12" focusable="false" viewBox="0 0 12 12">
  <path fill="currentColor" d="M10.5 4h-2C7.67 4 7 3.33 7 2.5v-2c0-.28-.22-.5-.5-.5H2c-.55 0-1 .45-1 1v10c0 .55.45 1 1 1h8c.55 0 1-.45 1-1V4.5c0-.28-.22-.5-.5-.5zm-2 6h-5c-.28 0-.5-.22-.5-.5s.22-.5.5-.5h5c.28 0 .5.22.5.5s-.22.5-.5.5zM9 7.5c0 .28-.22.5-.5.5h-5c-.28 0-.5-.22-.5-.5v-2c0-.28.22-.5.5-.5h5c.28 0 .5.22.5.5v2zm-1-7V2c0 .55.45 1 1 1h1.5c.45 0 .67-.54.35-.85l-2-2C8.54-.17 8 .06 8 .5z"/>
</svg>
