<svg xmlns="http://www.w3.org/2000/svg" width="12" height="12" focusable="false" viewBox="0 0 12 12">
  <path fill="currentColor" d="M2 0a.4.4 0 0 1 .38.278l.205.638a.808.808 0 0 0 .505.506l.63.2a.4.4 0 0 1 .002.762l-.632.202a.805.805 0 0 0-.505.506l-.201.63a.4.4 0 0 1-.76.006l-.213-.632a.827.827 0 0 0-.508-.51l-.626-.203a.4.4 0 0 1-.001-.76l.635-.208a.818.818 0 0 0 .51-.507l.198-.629A.4.4 0 0 1 1.999 0Zm4.986 2.875A2.75 2.75 0 0 1 9.724 5.25H9.5a.5.5 0 0 0-.5.5v3a.5.5 0 0 0 .5.5h.003c-.166.503-.459.763-.716.909a1.733 1.733 0 0 1-.723.216H8.06h.003v.042A.999.999 0 0 0 6.25 11a1 1 0 0 0 1.93.37l.007-.001a2.734 2.734 0 0 0 1.094-.34c.534-.304 1.05-.851 1.258-1.78A1.5 1.5 0 0 0 12 7.75v-1a1.5 1.5 0 0 0-1.267-1.482A3.755 3.755 0 0 0 8.458 2.17a3.75 3.75 0 0 0-4.13.824c.256.167.473.424.58.783l.015.046a2.74 2.74 0 0 1 .982-.72 2.75 2.75 0 0 1 1.08-.228ZM10 6.25h.5a.5.5 0 0 1 .5.5v1a.5.5 0 0 1-.5.5H10v-2ZM4.34 5.286c.179.535.612.968 1.141 1.147l1.199.375c.427.121.427.77 0 .892-.13.048-.294.096-.47.149-.52.154-1.16.344-1.436.672-.329.28-.526.939-.682 1.463-.05.166-.096.319-.14.441a.47.47 0 0 1-.44.325.467.467 0 0 1-.446-.318l-.402-1.198a1.857 1.857 0 0 0-1.147-1.152L.325 7.7A.472.472 0 0 1 0 7.254c0-.204.127-.382.325-.446.12-.04.247-.079.376-.118.81-.248 1.724-.527 1.982-1.423L3.06 4.07c.085-.297.425-.387.665-.27.105.05.19.14.228.27l.389 1.216Zm-.837 3.355c.128-.28.307-.587.56-.826.233-.25.53-.427.804-.554a2.848 2.848 0 0 1-1.355-1.359c-.306.667-.847 1.064-1.347 1.311l-.06.03A2.866 2.866 0 0 1 3.504 8.64Z"/>
</svg>
