<svg xmlns="http://www.w3.org/2000/svg" width="12" height="12" focusable="false" viewBox="0 0 12 12">
  <path fill="currentColor" d="M7.378 2.283A3.5 3.5 0 0 0 2.536 5c.26.02.464.24.464.499v3c0 .28-.225.5-.503.5H1.5A1.5 1.5 0 0 1 0 7.5v-1A1.5 1.5 0 0 1 1.5 5h.028a4.5 4.5 0 0 1 8.944 0h.028A1.5 1.5 0 0 1 12 6.5v1a1.5 1.5 0 0 1-1.394 1.496c-.091.64-.339 1.14-.685 1.52a2.929 2.929 0 0 1-1.283.796 4.166 4.166 0 0 1-.758.164 1 1 0 1 1-.031-1.005 3.1 3.1 0 0 0 .483-.111c.321-.104.622-.267.85-.519A1.72 1.72 0 0 0 9.592 9h-.09A.504.504 0 0 1 9 8.5v-3c0-.268.205-.48.464-.499a3.5 3.5 0 0 0-2.086-2.718Z"/>
</svg>
