<svg xmlns="http://www.w3.org/2000/svg" width="12" height="12" focusable="false" viewBox="0 0 12 12">
  <path fill="currentColor" d="M2 0a.4.4 0 0 1 .38.278l.205.638a.808.808 0 0 0 .505.506l.63.2a.4.4 0 0 1 .002.762l-.632.202a.805.805 0 0 0-.505.506l-.201.63a.4.4 0 0 1-.76.006l-.213-.632a.827.827 0 0 0-.508-.51l-.626-.203a.4.4 0 0 1-.001-.76l.635-.208a.818.818 0 0 0 .51-.507l.198-.629A.4.4 0 0 1 1.999 0Zm6.07 3.091a2.75 2.75 0 0 0-3.147.732l-.015-.046a1.39 1.39 0 0 0-.58-.783 3.75 3.75 0 0 1 6.405 2.274A1.5 1.5 0 0 1 12 6.75v1a1.5 1.5 0 0 1-1.46 1.5c-.21.928-.725 1.475-1.26 1.779a2.734 2.734 0 0 1-1.093.34H8.18a1 1 0 1 1-.118-.952v-.042H8.06h.005l.039-.003a1.733 1.733 0 0 0 .684-.213c.257-.146.55-.406.716-.909H9.5a.5.5 0 0 1-.5-.5v-3a.5.5 0 0 1 .5-.5h.224A2.75 2.75 0 0 0 8.07 3.091ZM3.952 4.07l.389 1.216c.178.535.611.968 1.14 1.147l1.199.375c.427.121.427.77 0 .892-.13.048-.294.096-.47.149-.52.154-1.16.344-1.436.672-.329.28-.526.939-.682 1.463-.05.166-.096.319-.14.441a.47.47 0 0 1-.44.325.467.467 0 0 1-.446-.318l-.402-1.198a1.857 1.857 0 0 0-1.147-1.152L.325 7.7A.472.472 0 0 1 0 7.254c0-.204.127-.382.325-.446.12-.04.247-.079.376-.118.81-.248 1.724-.527 1.982-1.423L3.06 4.07c.085-.297.425-.387.665-.27.105.05.19.14.228.27Z"/>
</svg>
