<svg xmlns="http://www.w3.org/2000/svg" width="12" height="12" focusable="false" viewBox="0 0 12 12">
  <path fill="currentColor" d="M2.938 3.375A9.887 9.887 0 0 1 3.78.429 6.023 6.023 0 0 0 .606 3.375zm8.456 0A6.023 6.023 0 0 0 8.22.429a9.887 9.887 0 0 1 .842 2.946zm-3.594 0C7.471 1.379 6.79 0 6 0S4.529 1.379 4.2 3.375zm1.4 4h2.625A5.986 5.986 0 0 0 12 6a5.986 5.986 0 0 0-.176-1.375H9.2c.033.461.051.923.051 1.375s-.019.914-.051 1.375zm-.138 1.25a9.887 9.887 0 0 1-.842 2.946 6.023 6.023 0 0 0 3.174-2.946zm-1.117-1.25a17.414 17.414 0 0 0 0-2.75h-3.89a17.414 17.414 0 0 0 0 2.75zM4.2 8.625C4.529 10.621 5.21 12 6 12s1.471-1.379 1.8-3.375zm-3.594 0a6.023 6.023 0 0 0 3.174 2.946 9.887 9.887 0 0 1-.842-2.946zM2.8 7.375c-.032-.461-.05-.923-.05-1.375s.018-.914.051-1.375H.176A5.986 5.986 0 0 0 0 6a5.986 5.986 0 0 0 .176 1.375z"/>
</svg>
