<svg xmlns="http://www.w3.org/2000/svg" width="12" height="12" focusable="false" viewBox="0 0 12 12">
  <path fill="currentColor" d="M6 0a6 6 0 1 0 6 6 6 6 0 0 0-6-6zm4.5 8.62h-2c-.36 1.73-1.14 3.13-2.5 3.13s-2.14-1.4-2.5-3.13h-2a.62.62 0 1 1 0-1.24h1.82A12.88 12.88 0 0 1 3.25 6a12.88 12.88 0 0 1 .07-1.38H1.5a.62.62 0 0 1 0-1.24h2C3.86 1.65 4.64.25 6 .25s2.14 1.4 2.5 3.13h2a.62.62 0 1 1 0 1.24H8.68A12.88 12.88 0 0 1 8.75 6a12.88 12.88 0 0 1-.07 1.38h1.82a.62.62 0 0 1 0 1.24zM6 10.5c.5 0 .94-.74 1.21-1.88H4.79C5.06 9.76 5.5 10.5 6 10.5zM4.58 4.62a11.94 11.94 0 0 0 0 2.76h2.84A12.2 12.2 0 0 0 7.5 6a12.2 12.2 0 0 0-.08-1.38zM6 1.5c-.5 0-.94.74-1.21 1.88h2.42C6.94 2.24 6.5 1.5 6 1.5z"/>
</svg>
