<svg xmlns="http://www.w3.org/2000/svg" width="12" height="12" focusable="false" viewBox="0 0 12 12">
  <path fill="currentColor" d="M4.24 3.38h3.52C7.42 1.66 6.76.5 6 .5S4.58 1.66 4.24 3.38zm3.52 5.24H4.24c.34 1.72 1 2.88 1.76 2.88s1.42-1.16 1.76-2.88zm-3.69-4A12.38 12.38 0 0 0 4 6a12.38 12.38 0 0 0 .07 1.38h3.86A12.38 12.38 0 0 0 8 6a12.38 12.38 0 0 0-.07-1.38zM9 3.38h1.8A5.43 5.43 0 0 0 8.3 1 9 9 0 0 1 9 3.38zm.19 1.24q.06.69.06 1.38t-.06 1.38h2.13A5.74 5.74 0 0 0 11.5 6a5.74 5.74 0 0 0-.18-1.38zM3 8.62H1.17A5.43 5.43 0 0 0 3.7 11 9 9 0 0 1 3 8.62zm6 0A9 9 0 0 1 8.3 11a5.43 5.43 0 0 0 2.53-2.37zM2.81 7.38Q2.75 6.69 2.75 6t.06-1.38H.68A5.74 5.74 0 0 0 .5 6a5.74 5.74 0 0 0 .18 1.38zm.19-4A9 9 0 0 1 3.7 1a5.43 5.43 0 0 0-2.53 2.38z"/>
</svg>
