<svg xmlns="http://www.w3.org/2000/svg" width="12" height="12" focusable="false" viewBox="0 0 12 12">
  <path fill="currentColor" d="M4.46 3.58c.15.15.37.21.56.13.31-.13.63-.21.98-.21s.67.08.97.21c.19.08.41.02.56-.13l1.82-1.83c.23-.23.18-.61-.09-.78A5.95 5.95 0 006 0C4.8 0 3.67.36 2.73.97c-.27.18-.32.56-.09.79l1.82 1.82zm5.78-.94L8.42 4.46c-.15.15-.21.38-.13.57.13.3.21.62.21.97s-.08.67-.21.97c-.08.19-.02.42.13.57l1.83 1.83c.23.23.61.18.78-.09a6.009 6.009 0 000-6.55.514.514 0 00-.79-.09zm-2.7 5.78a.532.532 0 00-.57-.13c-.3.13-.62.21-.97.21s-.67-.08-.97-.21a.532.532 0 00-.57.13l-1.83 1.83c-.23.23-.18.61.09.78a6.009 6.009 0 006.55 0c.27-.18.32-.55.09-.78L7.54 8.42zm-3.96-.88c.15-.15.21-.37.13-.56-.13-.31-.21-.63-.21-.98s.08-.67.21-.97c.08-.19.02-.41-.13-.56L1.76 2.64a.514.514 0 00-.79.09C.36 3.67 0 4.8 0 6c0 1.2.36 2.33.97 3.27.18.27.55.32.78.09l1.83-1.82z"/>
</svg>
