<svg xmlns="http://www.w3.org/2000/svg" width="12" height="12" focusable="false" viewBox="0 0 12 12">
  <path fill="currentColor" d="M6 .25c3.309 0 6 2.197 6 4.897 0 1.08-.417 2.054-1.286 3.012C9.455 9.617 6.641 11.392 6 11.664a.891.891 0 01-.33.086c-.272 0-.21-.294-.19-.412l.085-.516c.021-.155.042-.394-.018-.545-.067-.17-.334-.256-.529-.298C2.135 9.595 0 7.567 0 5.147 0 2.447 2.691.25 6 .25zM4.781 3.842h-.42a.117.117 0 00-.118.117v2.63c0 .065.053.117.117.117h.421a.117.117 0 00.116-.117v-2.63a.116.116 0 00-.116-.117zm1.068 0h-.425a.117.117 0 00-.117.117v2.63c0 .065.053.117.117.117h.42a.117.117 0 00.118-.117V5.028L7.16 6.656a.118.118 0 00.03.03h.002l.006.004.003.002.006.003.006.002.003.002.009.002v.001c.01.002.02.004.03.004h.422a.117.117 0 00.117-.117v-2.63a.117.117 0 00-.117-.117h-.421a.117.117 0 00-.117.117v1.563L5.942 3.894c-.002-.004-.006-.008-.01-.012l-.007-.008-.002-.002-.008-.007-.008-.004-.002-.002-.007-.004-.003-.002a.049.049 0 01-.007-.003l-.004-.001-.007-.002-.004-.002-.007-.001-.004-.001-.013-.001zm4.153 0H8.32a.12.12 0 00-.081.033l-.001.001-.002.002a.118.118 0 00-.032.08v2.63a.117.117 0 00.116.118h1.682a.118.118 0 00.116-.118v-.423a.117.117 0 00-.116-.117H8.858v-.445h1.144a.117.117 0 00.116-.118v-.422a.116.116 0 00-.116-.118H8.858V4.5h1.144a.116.116 0 00.116-.117V3.96a.117.117 0 00-.116-.118zm-7.496 0h-.421a.116.116 0 00-.116.117v2.63c0 .031.012.06.032.08l.003.004a.12.12 0 00.08.033h1.683a.117.117 0 00.116-.118v-.423a.116.116 0 00-.116-.117H2.623v-2.09a.116.116 0 00-.117-.116z"/>
</svg>
