<svg xmlns="http://www.w3.org/2000/svg" width="12" height="12" focusable="false" viewBox="0 0 12 12">
  <path fill="currentColor" d="M6 .25c3.309 0 6 2.197 6 4.897 0 1.08-.417 2.054-1.286 3.012C9.455 9.617 6.641 11.392 6 11.664a.891.891 0 01-.33.086c-.272 0-.21-.294-.19-.412l.085-.516c.021-.155.042-.394-.018-.545-.067-.17-.334-.256-.529-.298C2.135 9.595 0 7.567 0 5.147 0 2.447 2.691.25 6 .25zm0 1.006C3.243 1.256 1 3 1 5.147 1 7.05 2.745 8.661 5.148 8.981l.041.006.04.008c.641.139 1.06.444 1.246.905.036.093.063.19.082.294 1.034-.652 2.59-1.753 3.402-2.693C10.675 6.71 11 5.969 11 5.147c0-2.146-2.243-3.891-5-3.891zM4.781 3.842c.064 0 .116.052.116.117v2.63a.117.117 0 01-.116.117h-.42a.117.117 0 01-.118-.117v-2.63c0-.065.053-.117.117-.117zm1.068 0h.006c.008 0 .01.002.01.002h.008l.01.005.005.001a.049.049 0 00.007.003l.003.002.007.004.002.002a.049.049 0 00.007.003l.001.001c.009.007.009.008.01.01.003.001.005.004.007.006v.001a.053.053 0 01.01.012L7.14 5.522V3.959c0-.065.053-.117.117-.117h.42c.065 0 .118.052.118.117v2.63a.117.117 0 01-.117.117h-.421c-.011 0-.02-.002-.03-.004-.004 0-.007-.002-.01-.003-.001 0-.002 0-.003-.002l-.006-.002-.01-.005-.007-.005a.118.118 0 01-.03-.029l-1.2-1.628v1.56a.117.117 0 01-.116.118h-.421a.117.117 0 01-.117-.117v-2.63c0-.065.053-.117.117-.117zm4.153 0c.064 0 .116.053.116.118v.423a.116.116 0 01-.116.117H8.858v.445h1.144c.064 0 .116.052.116.118v.422a.117.117 0 01-.116.118H8.858v.445h1.144c.064 0 .116.052.116.117v.423a.118.118 0 01-.116.118H8.32a.12.12 0 01-.081-.033l-.001-.002a.114.114 0 01-.034-.082v-2.63c0-.032.012-.059.032-.08 0-.002.001-.002.002-.003a.12.12 0 01.082-.034zm-7.496 0c.065 0 .117.052.117.117v2.089h1.144c.064 0 .116.052.116.117v.423a.117.117 0 01-.116.118H2.085a.12.12 0 01-.081-.033l-.001-.002a.116.116 0 01-.034-.082v-2.63c0-.065.052-.117.116-.117z"/>
</svg>
