<svg xmlns="http://www.w3.org/2000/svg" width="12" height="12" focusable="false" viewBox="0 0 12 12">
  <path fill="currentColor" d="M3.328 5.176l.673.673-.701.715-.325-.326-1.397 1.396a1.975 1.975 0 000 2.792l.108.1c.776.67 1.95.637 2.685-.1l1.396-1.395-.345-.346.7-.715.706.706a.5.5 0 010 .708l-1.75 1.75A2.975 2.975 0 01.871 6.926l1.75-1.75a.5.5 0 01.707 0zm4.892-2.09a.5.5 0 01.689.702l-.059.07-2.525 2.474L3.857 8.85l-.069.059a.5.5 0 01-.702-.69l.057-.069 2.475-2.525L8.15 3.143l.07-.057zM11.134.87a2.975 2.975 0 010 4.207l-1.75 1.75a.5.5 0 01-.708 0l-.705-.705.715-.701.344.345 1.396-1.396a1.975 1.975 0 000-2.793l-.108-.1a1.975 1.975 0 00-2.684.1L6.238 2.974l.326.327-.715.7-.673-.673a.5.5 0 010-.707l1.75-1.75a2.975 2.975 0 014.208 0z"/>
</svg>
