<svg xmlns="http://www.w3.org/2000/svg" width="12" height="12" focusable="false" viewBox="0 0 12 12">
  <path fill="currentColor" d="M1.196 1.647l.084.073 3.968 3.967 2.218-2.219.084-.073a.75.75 0 011.05 1.05l-.073.083-2.218 2.219 3.972 3.973a.75.75 0 01-.976 1.133l-.084-.073-2.223-2.22-1.495 1.497-.133.126A3.224 3.224 0 01.81 6.64l.134-.143L2.44 5.001.22 2.781a.75.75 0 01.976-1.134zM3.5 6.061L2.004 7.558l-.1.11a1.724 1.724 0 002.416 2.44l.122-.112 1.496-1.497-.691-.691-.719.718-.084.073A.75.75 0 013.395 7.55l.073-.084.719-.718-.687-.687zM6.63.818a3.224 3.224 0 014.56 4.542l-.134.143-1.514 1.514-.09.077a.8.8 0 01-.951 0l-.09-.077-.495-.495 2.08-2.08.1-.11a1.724 1.724 0 00-2.416-2.44l-.122.112-2.08 2.08-.495-.495a.8.8 0 01-.077-1.041l.077-.09L6.497.944 6.63.818z"/>
</svg>
