<svg xmlns="http://www.w3.org/2000/svg" width="12" height="12" focusable="false" viewBox="0 0 12 12">
  <path fill="currentColor" d="M2.548 4.906a.8.8 0 011.04.077l.496.495-2.08 2.08-.1.11a1.724 1.724 0 002.538 2.328l2.08-2.08.495.495a.8.8 0 010 1.131l-1.514 1.514-.133.126A3.224 3.224 0 01.944 6.497l1.514-1.514zm5.002-1.51a.75.75 0 01.976 1.132L4.528 8.526l-.084.073a.75.75 0 01-.976-1.133l3.998-3.998zM6.63.817a3.224 3.224 0 014.426 4.685L9.542 7.017l-.09.077a.8.8 0 01-1.04-.077l-.496-.495 2.08-2.08.1-.11a1.724 1.724 0 00-2.538-2.328l-2.08 2.08-.495-.495a.8.8 0 010-1.13L6.497.943z"/>
</svg>
