<svg xmlns="http://www.w3.org/2000/svg" width="12" height="12" focusable="false" viewBox="0 0 12 12">
  <path fill="currentColor" d="M.146 1.146a.5.5 0 01.708 0l10 10 .057.07a.5.5 0 01-.765.638l-2.89-2.891-2.167 2.169A2.981 2.981 0 01.74 7.059l.134-.143 2.168-2.168L.146 1.854l-.057-.07a.5.5 0 01.057-.638zm3.603 4.31L1.582 7.624a1.979 1.979 0 002.673 2.915l.125-.116 2.168-2.168L5.5 7.207 3.854 8.854l-.07.057a.5.5 0 01-.638-.765L4.793 6.5 3.749 5.456zM11.126.874a2.986 2.986 0 010 4.223L9.369 6.853a.502.502 0 01-.71 0l-.692-.692.711-.71.336.336 1.402-1.4a1.982 1.982 0 000-2.803l-.109-.1a1.982 1.982 0 00-2.694.1l-1.401 1.4.337.338-.711.71-.691-.692a.502.502 0 010-.71L6.903.875a2.986 2.986 0 014.223 0zM8.872 3.147a.501.501 0 01.058.639l-.058.07-1.608 1.606-.707-.708 1.607-1.607.069-.058a.501.501 0 01.64.058z"/>
</svg>
