<svg xmlns="http://www.w3.org/2000/svg" width="12" height="12" focusable="false" viewBox="0 0 12 12">
  <path fill="currentColor" d="M1.49 3.21c-.13 0-.21-.08-.21-.22V2.9c0-.13.08-.21.21-.21h.28V1.56l-.05.05c-.05.04-.1.07-.15.07-.04 0-.1-.01-.15-.08l-.07-.06a.224.224 0 0 1-.06-.15c0-.04.01-.09.07-.15l.41-.39c.07-.06.14-.09.22-.09h.14c.13 0 .21.08.21.22V2.7h.28c.13 0 .22.08.22.21V3c0 .13-.08.22-.22.22H1.49zm-.12 4.04c-.14 0-.23-.09-.23-.22 0-.58.38-.85.69-1.06.21-.14.39-.27.39-.42 0-.18-.14-.24-.27-.24-.15 0-.24.1-.28.14-.05.07-.11.09-.17.09a.21.21 0 0 1-.13-.05l-.08-.06c-.1-.08-.12-.19-.05-.29.13-.18.36-.38.75-.38.49 0 .83.31.83.76 0 .46-.37.71-.66.9-.17.11-.31.2-.37.31h.84c.13 0 .22.08.22.21v.09c0 .14-.08.22-.22.22H1.37zm.59 3.99c-.32 0-.56-.13-.71-.24-.1-.08-.12-.19-.04-.3l.06-.1c.05-.08.12-.1.16-.1.04 0 .09.01.13.04.08.06.21.13.37.13.19 0 .33-.11.33-.26 0-.25-.31-.28-.41-.28-.15 0-.22-.04-.27-.14a.227.227 0 0 1 .03-.27s.37-.44.38-.45h-.56c-.13 0-.21-.08-.21-.21v-.09c0-.13.08-.22.21-.22h1.13c.13 0 .22.08.22.21s-.03.19-.08.26l-.41.47c.3.09.56.33.56.72-.01.41-.31.83-.89.83z"/>
  <path fill="none" stroke="currentColor" stroke-linecap="round" stroke-width="2" d="M5 1.98h5M5 6h5m-5 4h5"/>
</svg>
