<svg xmlns="http://www.w3.org/2000/svg" width="12" height="12" focusable="false" viewBox="0 0 12 12">
  <path fill="currentColor" d="M11 1L1 1.01c-.55 0-1 .45-1 1V10c0 .55.45 1 1 1h10c.55 0 1-.45 1-1V2c0-.55-.45-1-1-1zM3.94 7.56c.24.24.24.64 0 .88-.12.12-.28.18-.44.18s-.32-.06-.44-.18L1.41 6.8c-.44-.44-.44-1.15 0-1.59l1.65-1.65c.24-.24.64-.24.88 0s.24.64 0 .88L2.38 6l1.56 1.56zM7.6 2.67l-2 7c-.08.28-.33.45-.6.45-.06 0-.11-.01-.17-.02a.619.619 0 01-.43-.77l2-7c.09-.33.44-.52.77-.43.33.09.53.44.43.77zm2.99 4.13L8.94 8.44c-.12.12-.28.18-.44.18s-.32-.06-.44-.18a.628.628 0 010-.88L9.62 6 8.06 4.44a.628.628 0 010-.88c.24-.24.64-.24.88 0l1.65 1.65c.44.43.44 1.15 0 1.59z"/>
</svg>
