<svg xmlns="http://www.w3.org/2000/svg" width="12" height="12" focusable="false" viewBox="0 0 12 12">
  <path fill="currentColor" d="M11 12H8.5c-.2 0-.38-.12-.46-.31-.08-.19-.04-.4.11-.54l3-3c.14-.15.35-.19.54-.11.19.08.31.26.31.46V11c0 .55-.45 1-1 1zM1 12h2.5a.499.499 0 00.35-.85l-3-3a.474.474 0 00-.54-.11C.12 8.12 0 8.3 0 8.5V11c0 .55.45 1 1 1zM1 0h2.5c.2 0 .38.12.46.31.08.19.04.4-.11.54l-3 3c-.14.15-.35.19-.54.11A.499.499 0 010 3.5V1c0-.55.45-1 1-1zm10 0H8.5c-.2 0-.38.12-.46.31-.08.19-.04.4.11.54l3 3c.14.15.35.19.54.11.19-.08.31-.26.31-.46V1c0-.55-.45-1-1-1z"/>
</svg>
