<svg xmlns="http://www.w3.org/2000/svg" width="12" height="12" fill="none" focusable="false" viewBox="0 0 12 12">
  <path fill="currentColor" d="M2.29037 10.7997C2.38278 10.9314 2.5228 11.0206 2.67917 11.0585C3.3122 11.212 3.88664 10.4426 3.63743 9.84074C3.15062 8.66513 2.73646 7.20022 2.73646 5.99468C2.73646 4.78981 3.14565 3.33075 3.62864 2.16278C3.87553 1.56575 3.29977 0.790926 2.6719 0.943142C2.5201 0.979943 2.38385 1.06578 2.29297 1.19282C1.41882 2.41482 1 4.06949 1 5.99468C1 7.89347 1.41393 9.55056 2.29037 10.7997Z"/>
  <path fill="currentColor" d="M9.32103 11.0585C9.47724 11.0206 9.61702 10.9313 9.70908 10.7995C10.5818 9.55043 11 7.89339 11 5.99468C11 4.06998 10.5771 2.42039 9.70704 1.19447C9.61617 1.06645 9.47939 0.979818 9.32681 0.94283C8.69978 0.790816 8.12445 1.56519 8.37052 2.16162C8.85253 3.32993 9.2588 4.78861 9.2588 5.99468C9.2588 7.20029 8.84836 8.66529 8.36311 9.84094C8.11532 10.4413 8.68985 11.2115 9.32103 11.0585Z"/>
</svg>
