<?xml version="1.0" encoding="UTF-8"?>
<svg xmlns="http://www.w3.org/2000/svg" xmlns:xlink="http://www.w3.org/1999/xlink" width="12px" height="12px" viewBox="0 0 12 12">
  <path fill="currentColor" d="M7,7.58578644 L7.29289322,7.29289322 C7.68341751,6.90236893 8.31658249,6.90236893 8.70710678,7.29289322 L10.7071068,9.29289322 C11.0976311,9.68341751 11.0976311,10.3165825 10.7071068,10.7071068 L10.4748737,10.9393398 C9.10803871,12.3061748 6.89196129,12.3061748 5.52512627,10.9393398 L1.06066017,6.47487373 C-0.306174849,5.10803871 -0.306174849,2.89196129 1.06066017,1.52512627 L1.29289322,1.29289322 C1.68341751,0.902368927 2.31658249,0.902368927 2.70710678,1.29289322 L4.70710678,3.29289322 C5.09763107,3.68341751 5.09763107,4.31658249 4.70710678,4.70710678 L4.41421356,5 L7,7.58578644 Z M2,2 L1.76776695,2.23223305 C0.791456224,3.20854378 0.791456224,4.79145622 1.76776695,5.76776695 L6.23223305,10.232233 C7.20854378,11.2085438 8.79145622,11.2085438 9.76776695,10.232233 L10,10 L8,8 L7,9 L3,5 L4,4 L2,2 Z M8.85355339,0.146446609 C9.02711974,0.320012961 9.04640489,0.589437362 8.91140884,0.784305503 L8.85355339,0.853553391 L7.70708038,1.999 L11.4545455,2 C12.1435407,2 12.1798036,2.89750693 11.5633342,2.99198134 L11.4545455,3 L7.70508038,2.999 L8.85355339,4.14644661 C9.02711974,4.32001296 9.04640489,4.58943736 8.91140884,4.7843055 L8.85355339,4.85355339 C8.67998704,5.02711974 8.41056264,5.04640489 8.2156945,4.91140884 L8.14644661,4.85355339 L6.14644661,2.85355339 C6.12360893,2.83071571 6.10344233,2.80621844 6.0859468,2.78044979 C5.98784525,2.63821305 5.97383075,2.44963844 6.04363137,2.29353591 L6.09558852,2.20437287 L6.14644661,2.14644661 L8.14644661,0.146446609 C8.34170876,-0.0488155365 8.65829124,-0.0488155365 8.85355339,0.146446609 Z"/>
</svg>
