<?xml version="1.0" encoding="UTF-8"?>
<svg xmlns="http://www.w3.org/2000/svg" xmlns:xlink="http://www.w3.org/1999/xlink" width="12px" height="12px" viewBox="0 0 12 12">
  <path fill="currentColor" d="M7,7.58578644 L7.29289322,7.29289322 C7.68341751,6.90236893 8.31658249,6.90236893 8.70710678,7.29289322 L10.7071068,9.29289322 C11.0976311,9.68341751 11.0976311,10.3165825 10.7071068,10.7071068 L10.4748737,10.9393398 C9.10803871,12.3061748 6.89196129,12.3061748 5.52512627,10.9393398 L1.06066017,6.47487373 C-0.306174849,5.10803871 -0.306174849,2.89196129 1.06066017,1.52512627 L1.29289322,1.29289322 C1.68341751,0.902368927 2.31658249,0.902368927 2.70710678,1.29289322 L4.70710678,3.29289322 C5.09763107,3.68341751 5.09763107,4.31658249 4.70710678,4.70710678 L4.41421356,5 L7,7.58578644 Z M8.14639271,0.147448987 C8.44037631,-0.146534615 8.92913037,0.0281969029 8.99299098,0.414970352 L8.9999461,0.501002377 L8.99902648,2.001 L11.4544916,2.00100238 C12.1434868,2.00100238 12.1797497,2.8985093 11.5632803,2.99298372 L11.4544916,3.00100238 L8.99902648,3.001 L8.9999461,4.50100238 C8.9999461,4.91675797 8.53079096,5.13880544 8.21214455,4.91047158 L8.14639271,4.85455577 L6.11500548,2.82117553 L6.11500548,2.82117553 L6.0858929,2.78145217 L6.0858929,2.78145217 C5.9714411,2.6155093 5.9714411,2.38649545 6.08546112,2.21955789 L6.11501916,2.18074351 L6.11501916,2.18074351 L8.14639271,0.147448987 Z"/>
</svg>
