<svg xmlns="http://www.w3.org/2000/svg" width="12" height="12" focusable="false" viewBox="0 0 12 12">
  <path fill="currentColor" d="M2.707 1.293l2 2a1 1 0 010 1.414L4.414 5 7 7.586l.293-.293a1 1 0 011.414 0l2 2a1 1 0 010 1.414l-.232.232a3.5 3.5 0 01-4.95 0L1.061 6.475a3.5 3.5 0 010-4.95l.232-.232a1 1 0 011.414 0zM2 2l-.232.232a2.5 2.5 0 000 3.536l4.464 4.464a2.5 2.5 0 003.536 0L10 10 8 8 7 9 3 5l1-1-2-2zm8.5-1a.5.5 0 01.492.41L11 1.5v4a.5.5 0 01-.992.09L10 5.5V2H6.5a.5.5 0 01-.492-.41L6 1.5a.5.5 0 01.41-.492L6.5 1h4z"/>
</svg>
