<svg xmlns="http://www.w3.org/2000/svg" width="12" height="12" focusable="false" viewBox="0 0 12 12">
  <path fill="currentColor" d="M7.86 12c-.71 0-1.42-.27-1.95-.81l-5.1-5.1a2.764 2.764 0 010-3.91l1.04-1.04c.2-.2.51-.2.71 0L4.82 3.4c.09.1.15.23.15.36s-.06.26-.15.36l-.78.77L7.1 7.95l.78-.78c.2-.2.51-.2.71 0l2.26 2.26c.2.2.2.51 0 .71l-1.04 1.04c-.54.55-1.24.82-1.95.82zm2.64-5a.47.47 0 01-.35-.15l-5-5a.474.474 0 01-.11-.54c.08-.19.26-.31.46-.31H10c.55 0 1 .45 1 1v4.5c0 .2-.12.38-.31.46-.06.03-.13.04-.19.04z"/>
</svg>
