<svg xmlns="http://www.w3.org/2000/svg" width="12" height="12" focusable="false" viewBox="0 0 12 12">
  <path fill="currentColor" d="M7.86 12c-.71 0-1.42-.27-1.95-.81l-5.1-5.1a2.764 2.764 0 0 1 0-3.91l1.04-1.04c.2-.2.51-.2.71 0L4.82 3.4c.09.1.15.23.15.36s-.06.26-.15.36l-.78.77L7.1 7.95l.78-.78c.2-.2.51-.2.71 0l2.26 2.26c.2.2.2.51 0 .71l-1.04 1.04c-.54.55-1.24.82-1.95.82zM9.5 5c-.06 0-.13-.01-.19-.04A.499.499 0 0 1 9 4.5v-4c0-.2.12-.38.31-.46.19-.08.4-.04.54.11L11.5 1.8c.39.39.39 1.02 0 1.41L9.85 4.85A.47.47 0 0 1 9.5 5z"/>
  <path stroke="currentColor" stroke-linecap="round" d="M11 2.5H6.5"/>
</svg>
