<svg xmlns="http://www.w3.org/2000/svg" width="12" height="12" focusable="false" viewBox="0 0 12 12">
  <path fill="currentColor" d="M5.93064009,0.0181702344 C6.11414009,-0.0310609656 6.30996009,0.0213773344 6.44430009,0.155721034 L11.8443001,5.55572003 C11.9786001,5.69006003 12.0311001,5.88589003 11.9818001,6.06939003 C11.9326001,6.25289003 11.7892001,6.39617003 11.6056001,6.44523003 L9.90494009,6.89978003 C9.72157009,6.94879003 9.52597009,6.89631003 9.39176009,6.76210003 L8.91884009,6.28918003 L8.37881009,7.61104003 L4.38893009,3.62116003 L5.71080009,3.08113003 L5.23793009,2.60825003 C5.10371009,2.47404003 5.05124009,2.27844003 5.10025009,2.09507003 L5.55480009,0.394366034 C5.60385009,0.210818034 5.74713009,0.0674015344 5.93064009,0.0181702344 ZM1.87886009,4.64663003 L7.35335009,10.1211 L6.72086009,11.6693 C6.57715009,12.021 6.12150009,12.1128 5.85281009,11.8441 L3.38025009,9.37157003 L1.16987009,11.582 C0.962257094,11.7896 0.625653094,11.7896 0.418042094,11.582 C0.210430094,11.3743 0.210430094,11.0377 0.418042094,10.8301 L2.62842009,8.61974003 L0.155862094,6.14717003 C-0.112826906,5.87848003 -0.0210430059,5.42282003 0.330717094,5.27911003 L1.87886009,4.64663003 ZM1.8535495,2.1464525 C1.6582895,1.9511825 1.3417095,1.9511825 1.1464495,2.1464525 C0.9511835,2.3417125 0.9511835,2.6582925 1.1464495,2.8535525 L9.1464495,10.8536025 C9.3417095,11.0488025 9.6582895,11.0488025 9.8535495,10.8536025 C10.0487995,10.6583025 10.0487995,10.3417025 9.8535495,10.1464025 L1.8535495,2.1464525 Z"/>
</svg>
