<?xml version="1.0" encoding="UTF-8"?>
<svg xmlns="http://www.w3.org/2000/svg" xmlns:xlink="http://www.w3.org/1999/xlink" width="12px" height="12px" focusable="false" viewBox="0 0 12 12">
  <g>
    <path fill="currentColor" d="M6.44430009,0.155721034 L11.8443001,5.55572003 C11.9786001,5.69006003 12.0311001,5.88589003 11.9818001,6.06939003 C11.9326001,6.25289003 11.7892001,6.39617003 11.6056001,6.44523003 L9.90494009,6.89978003 C9.72157009,6.94879003 9.52597009,6.89631003 9.39176009,6.76210003 L8.91884009,6.28918003 L8.37881009,7.61104003 L7.56339009,6.79562003 L8.10342009,5.47376003 L6.52622009,3.89655003 L5.20435009,4.43659003 L4.38893009,3.62116003 L5.71080009,3.08113003 L5.23793009,2.60825003 C5.10371009,2.47404003 5.05124009,2.27844003 5.10025009,2.09507003 L5.55480009,0.394366034 C5.60385009,0.210818034 5.74713009,0.0674015344 5.93064009,0.0181702344 C6.11414009,-0.0310609656 6.30996009,0.0213773344 6.44430009,0.155721034 Z M6.34405009,1.55908003 L6.20663009,2.07325003 L9.92671009,5.79334003 L10.4409001,5.65592003 L6.34405009,1.55908003 Z"/>
    <path fill="currentColor" d="M6.53793009,9.30569003 L7.35335009,10.1211 L6.72086009,11.6693 C6.57715009,12.021 6.12150009,12.1128 5.85281009,11.8441 L3.38025009,9.37157003 L1.16987009,11.582 C0.962257094,11.7896 0.625653094,11.7896 0.418042094,11.582 C0.210430094,11.3743 0.210430094,11.0377 0.418042094,10.8301 L2.62842009,8.61974003 L0.155862094,6.14717003 C-0.112826906,5.87848003 -0.0210430059,5.42282003 0.330717094,5.27911003 L1.87886009,4.64663003 L2.69429009,5.46205003 L1.47325009,5.96090003 L6.03908009,10.5267 L6.53793009,9.30569003 Z"/>
    <path fill="currentColor" d="M1.85355009,2.14645003 C1.65829009,1.95118003 1.34171009,1.95118003 1.14645009,2.14645003 C0.951184094,2.34171003 0.951184094,2.65829003 1.14645009,2.85355003 L9.14645009,10.8536 C9.34171009,11.0488 9.65829009,11.0488 9.85355009,10.8536 C10.0488001,10.6583 10.0488001,10.3417 9.85355009,10.1464 L1.85355009,2.14645003 Z"/>
  </g>
</svg>
