<?xml version="1.0" encoding="UTF-8"?>
<svg xmlns="http://www.w3.org/2000/svg" xmlns:xlink="http://www.w3.org/1999/xlink" width="12px" height="12px" focusable="false" viewBox="0 0 12 12">
  <g>
    <path fill="currentColor" d="M5.93064009,0.0181702344 C6.11414009,-0.0310609656 6.30996009,0.0213773344 6.44430009,0.155721034 L11.8443001,5.55572003 C11.9786001,5.69006003 12.0311001,5.88589003 11.9818001,6.06939003 C11.9326001,6.25289003 11.7892001,6.39617003 11.6056001,6.44523003 L9.90494009,6.89978003 C9.72157009,6.94879003 9.52597009,6.89631003 9.39176009,6.76210003 L8.91884009,6.28918003 L6.72086009,11.6693 C6.57715009,12.021 6.12150009,12.1128 5.85281009,11.8441 L3.38025009,9.37157003 L1.16987009,11.582 C0.962257094,11.7896 0.625653094,11.7896 0.418042094,11.582 C0.210430094,11.3743 0.210430094,11.0377 0.418042094,10.8301 L2.62842009,8.61974003 L0.155862094,6.14717003 C-0.112826906,5.87848003 -0.0210430059,5.42282003 0.330717094,5.27911003 L5.71080009,3.08113003 L5.23793009,2.60825003 C5.10371009,2.47404003 5.05124009,2.27844003 5.10025009,2.09507003 L5.55480009,0.394366034 C5.60385009,0.210818034 5.74713009,0.0674015344 5.93064009,0.0181702344 Z"/>
  </g>
</svg>
