<svg xmlns="http://www.w3.org/2000/svg" width="12" height="12" focusable="false" viewBox="0 0 12 12">
  <path fill="currentColor" d="M1.804 8.393a1.804 1.804 0 0 1 0 3.607H.602A.602.602 0 0 1 0 11.4v-1.202C0 9.2.808 8.393 1.804 8.393ZM10.77.004a1.131 1.131 0 0 1 1.226 1.227c-.194 2.232-1.373 3.953-2.978 5.47v2.215c0 .633-.333 1.22-.876 1.545l-1.511.908a1.203 1.203 0 0 1-1.821-1.032V9.244L2.757 7.19H1.663A1.203 1.203 0 0 1 .632 5.37l.907-1.511a1.804 1.804 0 0 1 1.547-.876h2.213C6.816 1.378 8.537.198 10.769.004Zm-8.966 9.39a.804.804 0 0 0-.804.803V11h.804a.804.804 0 0 0 0-1.608Zm3.995-.283a.98.98 0 0 1 .01.133v1.093c0 .158.172.255.307.174l1.512-.907a.804.804 0 0 0 .39-.688V7.402L5.798 9.11ZM10.856 1c-1.738.151-3.151 1-4.477 2.308l-2.65 3.44L5.25 8.27l3.438-2.65C9.998 4.297 10.85 2.884 11 1.145a.13.13 0 0 0-.143-.143Zm-7.77 2.982a.804.804 0 0 0-.69.39L1.49 5.884a.203.203 0 0 0 .174.307h1.094a1 1 0 0 1 .13.01l1.71-2.218H3.087Z"/>
</svg>
