<svg xmlns="http://www.w3.org/2000/svg" width="12" height="12" focusable="false" viewBox="0 0 12 12">
  <path fill="currentColor" d="M7.815 7.74 6.012 9.271v1.065l1.511-.907a.601.601 0 0 0 .292-.515V7.739ZM4.81 9.242 2.757 7.191H1.663A1.202 1.202 0 0 1 .632 5.37l.907-1.512a1.804 1.804 0 0 1 1.546-.876H5.3C6.817 1.377 8.537.198 10.77.004a1.13 1.13 0 0 1 1.227 1.226c-.194 2.233-1.373 3.953-2.978 5.47v2.215c0 .633-.333 1.22-.876 1.546l-1.512.907a1.202 1.202 0 0 1-1.82-1.031V9.243Zm-.548-5.058H3.085a.601.601 0 0 0-.515.292l-.907 1.511h1.065L4.26 4.185ZM0 10.197A1.804 1.804 0 1 1 1.804 12H.6a.601.601 0 0 1-.6-.601v-1.202Z"/>
</svg>
