<?xml version="1.0" encoding="UTF-8"?>
<svg xmlns="http://www.w3.org/2000/svg" xmlns:xlink="http://www.w3.org/1999/xlink" width="12px" height="12px" viewBox="0 0 12 12">
  <path fill="currentColor" d="M2.00014733,1 L1.88352621,1.00672773 C1.38618752,1.06449284 1.00014733,1.48716416 1.00014733,2 L1.00014733,3.931 L0.00786945395,10.8759653 C-0.0667371896,11.4728184 0.398649341,12 1.00014733,12 L4.00014733,12 C4.55243208,12 5.00014733,11.5522847 5.00014733,11 L5.00014733,9 L5.00495838,8.88746517 C5.04120131,8.40547321 5.47582387,8 6.00014733,8 L6.11268216,8.00481105 C6.59467412,8.04105398 7.00014733,8.47567654 7.00014733,9 L7.00014733,11 C7.00014733,11.5522847 7.44786258,12 8.00014733,12 L11.0001473,12 L11.1185124,11.9931065 C11.6612969,11.9293995 12.0620581,11.4330282 11.9924252,10.8759653 L11.0001473,3.939 L11.0001473,2 C11.0001473,1.44771525 10.5524321,1 10.0001473,1 L9.00014733,1 L8.88352621,1.00672773 C8.38618752,1.06449284 8.00014733,1.48716416 8.00014733,2 L8.00014733,3 L7.50014733,3 L7.50014733,2 C7.50014733,1.44771525 7.05243208,1 6.50014733,1 L5.50014733,1 L5.38352621,1.00672773 C4.88618752,1.06449284 4.50014733,1.48716416 4.50014733,2 L4.50014733,3 L4.00014733,3 L4.00014733,2 C4.00014733,1.44771525 3.55243208,1 3.00014733,1 L2.00014733,1 Z M3.00014733,2 L3.00014733,4 L5.50014733,4 L5.50014733,2 L6.50014733,2 L6.50014733,4 L9.00014733,4 L9.00014733,2 L10.0001473,2 L10.0001473,4 L11.0001473,11 L8.00014733,11 L8.00014733,9 C8.00014733,7.9456382 7.18426954,7.08183488 6.14940968,7.00548574 L6.00014733,7 C4.94578554,7 4.08198221,7.81587779 4.00563307,8.85073766 L4.00014733,9 L4.00014733,11 L1.00014733,11 L2.00014733,4 L2.00014733,2 L3.00014733,2 Z"/>
</svg>
