<svg xmlns="http://www.w3.org/2000/svg" width="12" height="12" focusable="false" viewBox="0 0 12 12">
  <path fill="currentColor" d="M7.304 0c1.069 0 1.96.806 2.08 1.915l.007.172v.588A2.087 2.087 0 0112 4.696c0 .49-.17.943-.46 1.3.288.358.46.813.46 1.308 0 1.069-.806 1.96-1.915 2.08l-.172.007h-.588A2.087 2.087 0 017.304 12c-.49 0-.943-.17-1.3-.46a2.08 2.08 0 01-1.308.46c-1.069 0-1.96-.806-2.08-1.915l-.007-.172v-.588A2.087 2.087 0 010 7.304c0-.49.17-.943.46-1.3A2.078 2.078 0 010 4.695c0-1.069.806-1.96 1.915-2.08l.172-.007h.588A2.087 2.087 0 014.696 0c.49 0 .943.17 1.3.46C6.355.172 6.81 0 7.305 0zM4.696 6.217c-.56 0-1.022.424-1.08.969l-.007.118v2.609l.006.119a1.087 1.087 0 002.161 0l.007-.119V7.304l-.007-.118a1.087 1.087 0 00-1.08-.969zm2.608 2.61H6.217v1.086l.007.119a1.087 1.087 0 101.08-1.206zm-4.13-2.61H2.087l-.119.007a1.087 1.087 0 101.2 1.199l.006-.119V6.217zm6.739 0H7.304l-.118.007a1.087 1.087 0 000 2.16l.118.007h2.609l.119-.006a1.087 1.087 0 00-.119-2.168zM7.304 1c-.56 0-1.021.424-1.08.968l-.007.119v2.609l.007.118a1.087 1.087 0 002.16 0l.007-.118V2.087l-.006-.119A1.087 1.087 0 007.305 1zM4.696 3.609H2.087l-.119.006a1.087 1.087 0 000 2.161l.119.007h2.609l.118-.007a1.087 1.087 0 00-.118-2.167zm5.217 0c-.56 0-1.022.424-1.08.968l-.007.119v1.087h1.087l.119-.007a1.087 1.087 0 00-.119-2.167zM4.696 1a1.087 1.087 0 100 2.174h1.087V2.087l-.007-.119A1.087 1.087 0 004.696 1z"/>
</svg>
