<svg xmlns="http://www.w3.org/2000/svg" width="12" height="12" focusable="false" viewBox="0 0 12 12">
  <path fill="currentColor" d="m2.241 4.655 1.835-.622a3.113 3.113 0 0 0 1.957-1.957L6.655.24a.367.367 0 0 1 .69 0l.622 1.835a3.113 3.113 0 0 0 1.957 1.957l1.835.622a.367.367 0 0 1 0 .69l-1.835.622a3.113 3.113 0 0 0-1.957 1.957L7.345 9.76a.367.367 0 0 1-.69 0l-.622-1.835a3.113 3.113 0 0 0-1.957-1.957L2.24 5.345a.367.367 0 0 1 0-.69ZM.12 9.328l.918-.312a1.556 1.556 0 0 0 .978-.978l.312-.917a.183.183 0 0 1 .344 0l.312.917a1.557 1.557 0 0 0 .978.978l.917.312a.183.183 0 0 1 0 .344l-.917.312a1.557 1.557 0 0 0-.978.978l-.312.917a.183.183 0 0 1-.277.088.183.183 0 0 1-.067-.088l-.312-.917a1.556 1.556 0 0 0-.978-.978L.12 9.672a.183.183 0 0 1 0-.344Z"/>
</svg>
