<svg xmlns="http://www.w3.org/2000/svg" width="12" height="12" focusable="false" viewBox="0 0 12 12">
  <path fill="currentColor" d="M0 1v10a1 1 0 0 0 1 1h10a1 1 0 0 0 1-1V1a1 1 0 0 0-1-1H1a1 1 0 0 0-1 1Zm3.193 3.724 1.468-.498a2.49 2.49 0 0 0 1.565-1.565l.498-1.468a.293.293 0 0 1 .552 0l.498 1.468a2.49 2.49 0 0 0 1.565 1.565l1.468.498a.293.293 0 0 1 0 .552l-1.468.498a2.49 2.49 0 0 0-1.565 1.565l-.498 1.468a.293.293 0 0 1-.552 0L6.226 7.34a2.49 2.49 0 0 0-1.565-1.565l-1.468-.498a.293.293 0 0 1 0-.552ZM1.83 8.614a1.245 1.245 0 0 0 .783-.784l.25-.734a.147.147 0 0 1 .275 0l.249.734a1.245 1.245 0 0 0 .783.783l.734.25a.147.147 0 0 1 0 .275l-.734.249a1.245 1.245 0 0 0-.783.783l-.25.734a.147.147 0 0 1-.275 0l-.249-.734a1.245 1.245 0 0 0-.783-.783l-.734-.25a.147.147 0 0 1 0-.275l.734-.249Z"/>
</svg>
