<svg xmlns="http://www.w3.org/2000/svg" width="12" height="12" focusable="false" viewBox="0 0 12 12">
  <path fill="currentColor" d="M2 9v-.5a.5.5 0 0 1 1 0V9h.5a.5.5 0 0 1 0 1H3v.5a.5.5 0 0 1-1 0V10h-.5a.5.5 0 0 1 0-1H2ZM1 5.51a1 1 0 0 1 .69-.953l1.786-.584a2.427 2.427 0 0 0 1.512-1.506L5.546.7A1 1 0 0 1 7.452.695l.576 1.796a2.397 2.397 0 0 0 1.497 1.502l1.776.56a1 1 0 0 1 .004 1.907l-1.778.569a2.39 2.39 0 0 0-1.5 1.502l-.567 1.774a1 1 0 0 1-1.9.014l-.6-1.776V8.54a2.441 2.441 0 0 0-1.507-1.514l-1.76-.566A1 1 0 0 1 1 5.51Z"/>
</svg>
