<svg xmlns="http://www.w3.org/2000/svg" width="12" height="12" focusable="false" viewBox="0 0 12 12">
  <path fill="currentColor" d="m.12 9.328.918-.312a1.556 1.556 0 0 0 .978-.978l.312-.917a.183.183 0 0 1 .344 0l.312.917a1.557 1.557 0 0 0 .978.978l.917.312a.183.183 0 0 1 0 .344l-.917.312a1.557 1.557 0 0 0-.978.978l-.312.917a.183.183 0 0 1-.277.088.183.183 0 0 1-.067-.088l-.312-.917a1.556 1.556 0 0 0-.978-.978L.12 9.672a.183.183 0 0 1 0-.344Zm2.74-5.547 1.481-.503a1.49 1.49 0 0 0 .937-.937l.001-.002.502-1.478.004-.01a1.294 1.294 0 0 1 2.43 0l.004.01.503 1.48a1.49 1.49 0 0 0 .937.937l.002.001 1.478.502.01.004a1.294 1.294 0 0 1 0 2.43l-.01.004-1.48.503a1.49 1.49 0 0 0-.937.937l-.001.002-.502 1.478-.004.01a1.293 1.293 0 0 1-2.43 0l-.004-.01-.503-1.48a1.49 1.49 0 0 0-.937-.937L4.34 6.72l-1.478-.502-.01-.004a1.293 1.293 0 0 1 0-2.43l.01-.004Zm1.8 1.993a2.49 2.49 0 0 1 1.566 1.565l.498 1.468a.293.293 0 0 0 .552 0l.498-1.468a2.49 2.49 0 0 1 1.565-1.565l1.468-.498a.293.293 0 0 0 0-.552L9.34 4.226a2.49 2.49 0 0 1-1.565-1.565l-.498-1.468a.293.293 0 0 0-.552 0L6.226 2.66a2.49 2.49 0 0 1-1.565 1.565l-1.468.498a.293.293 0 0 0 0 .552l1.468.498Z"/>
</svg>
