<svg xmlns="http://www.w3.org/2000/svg" width="12" height="12" focusable="false" viewBox="0 0 12 12">
  <path fill="currentColor" d="M2 10.5a.5.5 0 0 1 .5-.5h7a.5.5 0 0 1 0 1h-7a.5.5 0 0 1-.5-.5Zm4.75-7.22-.064.237c-.101.37-.186.802-.186 1.233 0 .483.045.972.095 1.375l.11.875H8.75c.605 0 1.11.43 1.225 1h-7.95c.116-.57.62-1 1.225-1h2.045l.11-.875c.05-.403.095-.892.095-1.375 0-.43-.085-.863-.186-1.233L5.25 3.28l-.167-.18a1.25 1.25 0 1 1 1.834 0l-.167.18Zm.9.5a2.25 2.25 0 1 0-3.301 0c.089.324.151.662.151.97 0 .427-.04.87-.087 1.25H3.25A2.25 2.25 0 0 0 1 8.25c0 .414.336.75.75.75h8.5a.75.75 0 0 0 .75-.75A2.25 2.25 0 0 0 8.75 6H7.587C7.54 5.62 7.5 5.177 7.5 4.75c0-.308.062-.646.15-.97Z"/>
</svg>
