<svg xmlns="http://www.w3.org/2000/svg" width="12" height="12" focusable="false" viewBox="0 0 12 12">
  <circle cx="6" cy="6" r="3.5" fill="none" stroke="currentColor"/>
  <path fill="currentColor" d="M6 0C6.27614 0 6.5.223858 6.5.5V1H5.5V.5C5.5.223858 5.72386 0 6 0ZM6 12C5.72386 12 5.5 11.7761 5.5 11.5V11H6.5V11.5C6.5 11.7761 6.27614 12 6 12ZM.5 5.5C.223858 5.5 0 5.72386 0 6 0 6.27614.223858 6.5.5 6.5H1V5.5H.5ZM12 6C12 6.27614 11.7761 6.5 11.5 6.5H11V5.5H11.5C11.7761 5.5 12 5.72386 12 6ZM3.68292.986968C3.54485.747821 3.23905.665884 2.99991.803955 2.76076.942026 2.67882 1.24782 2.81689 1.48697L3.06689 1.91998 3.93292 1.41998 3.68292.986968ZM9.00009 11.196C8.76095 11.3341 8.45515 11.2522 8.31708 11.013L8.06708 10.58 8.93311 10.08 9.18311 10.513C9.32118 10.7522 9.23924 11.058 9.00009 11.196ZM.986724 8.31708C.747577 8.45515.66564 8.76095.803711 9.00009.941782 9.23924 1.24758 9.32118 1.48672 9.18311L1.91974 8.93311 1.41974 8.06708.986724 8.31708ZM11.1963 2.99991C11.3344 3.23905 11.2524 3.54485 11.0133 3.68292L10.5803 3.93292 10.0803 3.06689 10.5133 2.81689C10.7524 2.67882 11.0582 2.76076 11.1963 2.99991ZM1.48672 2.81708C1.24758 2.67901.941782 2.76095.803711 3.00009.66564 3.23924.747577 3.54503.986724 3.68311L1.41974 3.93311 1.91974 3.06708 1.48672 2.81708ZM11.1963 8.99991C11.0582 9.23905 10.7524 9.32099 10.5133 9.18292L10.0803 8.93292 10.5803 8.06689 11.0133 8.31689C11.2524 8.45497 11.3344 8.76076 11.1963 8.99991ZM2.81708 10.5133C2.67901 10.7524 2.76095 11.0582 3.00009 11.1963 3.23924 11.3344 3.54503 11.2524 3.68311 11.0133L3.93311 10.5803 3.06708 10.0803 2.81708 10.5133ZM8.99991.803711C9.23905.941782 9.32099 1.24758 9.18292 1.48672L8.93292 1.91974 8.06689 1.41974 8.31689.986724C8.45497.747577 8.76076.66564 8.99991.803711Z"/>
</svg>
