<svg xmlns="http://www.w3.org/2000/svg" width="12" height="12" focusable="false" viewBox="0 0 12 12">
  <path fill="currentColor" d="M8.96 5.803l1.5 3.5a.5.5 0 01-.92.394L9.242 9H7.758l-.298.697a.5.5 0 01-.92-.394l1.5-3.5a.5.5 0 01.92 0zM6 0a1 1 0 011 1v.5a.5.5 0 01-1 0V1H1v7h2.5a.5.5 0 010 1H1a1 1 0 01-1-1V1a1 1 0 011-1h5zm2.5 7.27L8.186 8h.627L8.5 7.27zm-5-5.77A.5.5 0 014 2h.5a.5.5 0 01.5.5c0 .156-.015.414-.058.741a6.722 6.722 0 01-.41 1.605c-.124.311-.272.6-.444.862.181.132.381.242.595.327a.5.5 0 11-.366.93 3.717 3.717 0 01-.884-.497 3.253 3.253 0 01-.71.48.5.5 0 01-.447-.895c.161-.08.31-.179.448-.294a3.702 3.702 0 01-.718-1.682.5.5 0 11.988-.154c.058.37.19.718.383 1.026a3.76 3.76 0 00.227-.475A5.742 5.742 0 003.964 3H2.5a.5.5 0 010-1H3a.5.5 0 01.5-.5zM6 4v7h5V4H6zm0-1h5a1 1 0 011 1v7a1 1 0 01-1 1H6a1 1 0 01-1-1V4a1 1 0 011-1z"/>
</svg>
