<svg xmlns="http://www.w3.org/2000/svg" width="12" height="12" focusable="false" viewBox="0 0 12 12">
  <path fill="currentColor" d="M6 0H1C.45 0 0 .45 0 1v7c0 .55.45 1 1 1h5c.55 0 1-.45 1-1V1c0-.55-.45-1-1-1zM4.67 6.03A.501.501 0 014.5 7c-.06 0-.11-.01-.17-.03a3.51 3.51 0 01-.9-.5c-.21.18-.44.34-.71.48a.505.505 0 01-.67-.23.506.506 0 01.23-.67c.16-.08.31-.18.44-.29-.6-.8-.71-1.64-.72-1.7-.03-.27.17-.52.44-.56.27-.04.52.16.56.44 0 .04.08.51.38 1.01.38-.68.53-1.46.58-1.95H2.5c-.28 0-.5-.22-.5-.5s.22-.5.5-.5H3c0-.28.22-.5.5-.5s.5.22.5.5h.5c.28 0 .5.22.5.5 0 .1-.02 1.85-.92 3.21.17.13.36.24.59.32zM10.5 9c-.06 0-.13-.01-.19-.04A.499.499 0 0110 8.5v-2a.499.499 0 01.85-.35l1 1c.2.2.2.51 0 .71l-1 1a.5.5 0 01-.35.14zm-2 3a.47.47 0 01-.35-.15l-1-1c-.2-.2-.2-.51 0-.71l1-1c.14-.14.36-.18.54-.1.19.08.31.26.31.46v2c0 .2-.12.38-.31.46-.06.03-.13.04-.19.04z"/>
  <path stroke="currentColor" stroke-linecap="round" d="M8.5 10.5h2M8.62 7.48h2"/>
</svg>
