<svg xmlns="http://www.w3.org/2000/svg" width="12" height="12" focusable="false" viewBox="0 0 12 12">
  <path fill="currentColor" d="M8.854 9.146a.5.5 0 010 .708L8.706 10H10.5a.5.5 0 010 1H8.707l.147.146a.5.5 0 01-.708.708l-1-1a.5.5 0 010-.708l1-1a.5.5 0 01.708 0zM6 0a1 1 0 011 1v7a1 1 0 01-1 1H1a1 1 0 01-1-1V1a1 1 0 011-1h5zm4.854 6.146l1 1a.5.5 0 010 .708l-1 1a.5.5 0 01-.708-.708l.167-.167-1.693.001a.5.5 0 010-1l1.652-.001-.126-.125a.5.5 0 01.708-.708zM6 1H1v7h5V1zm-2.5.5A.5.5 0 014 2h.5a.5.5 0 01.5.5c0 .156-.015.414-.058.741a6.722 6.722 0 01-.41 1.605c-.124.311-.272.6-.444.862.181.132.381.242.595.327a.5.5 0 11-.366.93 3.717 3.717 0 01-.884-.497 3.253 3.253 0 01-.71.48.5.5 0 11-.447-.895c.161-.08.31-.179.448-.294a3.702 3.702 0 01-.718-1.682.5.5 0 01.988-.154c.058.37.19.718.383 1.026.084-.147.16-.306.227-.475A5.742 5.742 0 003.964 3H2.5a.5.5 0 010-1H3a.5.5 0 01.5-.5z"/>
</svg>
