<svg xmlns="http://www.w3.org/2000/svg" width="12" height="12" focusable="false" viewBox="0 0 12 12">
  <path fill="currentColor" d="M4 6.82c-.21-.11-.4-.22-.57-.35-.21.18-.44.34-.71.48a.505.505 0 01-.67-.23.506.506 0 01.23-.67c.16-.08.31-.18.44-.29-.6-.8-.71-1.64-.72-1.7-.03-.27.17-.52.44-.56.27-.04.52.16.56.44 0 .04.08.51.38 1.01.38-.68.53-1.46.58-1.95H2.5c-.28 0-.5-.22-.5-.5s.22-.5.5-.5H3c0-.28.22-.5.5-.5s.5.22.5.5h3V1c0-.55-.45-1-1-1H1C.45 0 0 .45 0 1v7c0 .55.45 1 1 1h3V6.82zM11 3H6c-.55 0-1 .45-1 1v7c0 .55.45 1 1 1h5c.55 0 1-.45 1-1V4c0-.55-.45-1-1-1zm-.8 6.96a.5.5 0 01-.66-.26l-.3-.7H7.76l-.3.7c-.11.25-.4.37-.66.26a.503.503 0 01-.26-.66l1.5-3.5c.16-.37.76-.37.92 0l1.5 3.5c.11.26-.01.55-.26.66zM8.19 8h.62l-.31-.73z"/>
</svg>
