<svg xmlns="http://www.w3.org/2000/svg" width="12" height="12" focusable="false" viewBox="0 0 12 12">
  <path fill="currentColor" d="M4 8.5c0-.55.11-1.06.29-1.55-.34-.13-.61-.3-.86-.48-.21.18-.44.34-.71.48a.505.505 0 01-.67-.23.506.506 0 01.23-.67c.16-.08.31-.18.44-.29-.6-.8-.71-1.64-.72-1.7-.03-.27.17-.52.44-.56.27-.04.52.16.56.44 0 .04.08.51.38 1.01.38-.68.53-1.46.58-1.95H2.5c-.28 0-.5-.22-.5-.5s.22-.5.5-.5H3c0-.28.22-.5.5-.5s.5.22.5.5h.5c.28 0 .5.22.5.5 0 .1-.02 1.85-.92 3.21.17.12.36.23.59.32l.06.03A4.41 4.41 0 016.69 4.4c.18-.08.31-.26.31-.46V1c0-.55-.45-1-1-1H1C.45 0 0 .45 0 1v7c0 .55.45 1 1 1h2.5c.28 0 .5-.22.5-.5zM8.5 5C6.57 5 5 6.57 5 8.5S6.57 12 8.5 12 12 10.43 12 8.5 10.43 5 8.5 5zm1 4h-1c-.28 0-.5-.22-.5-.5V7c0-.28.22-.5.5-.5s.5.22.5.5v1h.5c.28 0 .5.22.5.5s-.22.5-.5.5z"/>
</svg>
