<svg xmlns="http://www.w3.org/2000/svg" width="12" height="12" focusable="false" viewBox="0 0 12 12">
  <path fill="currentColor" d="M12 2.184a4.83 4.83 0 01-1.415.397 2.52 2.52 0 001.083-1.396 4.87 4.87 0 01-1.564.612A2.428 2.428 0 008.308 1c-1.36 0-2.463 1.13-2.463 2.524 0 .198.023.39.065.576C3.863 3.994 2.05 2.99.835 1.46a2.564 2.564 0 00-.332 1.27 2.54 2.54 0 001.094 2.102 2.413 2.413 0 01-1.115-.316v.032c0 1.224.849 2.243 1.974 2.476-.363.1-.743.115-1.112.042.314 1.002 1.223 1.734 2.3 1.754A4.857 4.857 0 010 9.866 6.83 6.83 0 003.774 11c4.528 0 7.005-3.847 7.005-7.182 0-.11-.003-.22-.007-.327.482-.358.898-.8 1.228-1.308z"/>
</svg>
