<svg xmlns="http://www.w3.org/2000/svg" width="12" height="12" focusable="false" viewBox="0 0 12 12">
  <path fill="currentColor" d="M4 8c2 0 3.698 1.45 3.995 3.41a.518.518 0 01-.413.582L7.491 12H.509a.516.516 0 01-.504-.59A4.031 4.031 0 014 8zm0 1l-.196.006A3.04 3.04 0 001.132 11h5.733A3.04 3.04 0 004 9zm-.05-7a2.5 2.5 0 110 5 2.5 2.5 0 010-5zm0 1a1.5 1.5 0 100 3 1.5 1.5 0 000-3zM9.5 0a.5.5 0 01.492.41L10 .5V2h1.5a.5.5 0 01.492.41L12 2.5a.5.5 0 01-.5.5H10v1.5a.5.5 0 01-.992.09L9 4.5V3H7.5a.5.5 0 01-.492-.41L7 2.5a.5.5 0 01.5-.5H9V.5a.5.5 0 01.5-.5z"/>
</svg>
