<svg xmlns="http://www.w3.org/2000/svg" width="12" height="12" focusable="false" viewBox="0 0 12 12">
  <path fill="currentColor" d="M6 0a6 6 0 11-3.002 11.196l-2.34.778a.5.5 0 01-.632-.632l.78-2.339A6 6 0 016 0zM3.932 3.003a.524.524 0 00-.394.2c-.135.158-.516.543-.516 1.325 0 .783.529 1.54.603 1.646.073.104 1.041 1.71 2.522 2.4.275.128.555.24.84.335.354.12.677.104.932.064.284-.045.873-.384.996-.757.122-.37.122-.689.085-.755-.036-.067-.135-.107-.284-.188a23.573 23.573 0 00-1.008-.516c-.135-.054-.234-.08-.332.08-.099.159-.38.518-.467.624-.085.103-.172.118-.32.039-.148-.079-.623-.248-1.187-.79a4.734 4.734 0 01-.82-1.102c-.088-.16-.01-.245.063-.325.067-.07.148-.185.222-.279.073-.09.099-.157.148-.264.049-.106.024-.2-.013-.278-.037-.08-.332-.864-.456-1.183-.12-.31-.241-.266-.332-.272-.085-.004-.183-.004-.282-.004z"/>
</svg>
