<svg xmlns="http://www.w3.org/2000/svg" width="12" height="12" focusable="false" viewBox="0 0 12 12">
  <path fill="currentColor" d="M6 0a6 6 0 11-3.002 11.196l-2.34.778a.5.5 0 01-.632-.632l.779-2.339A6 6 0 016 0zm0 1a5 5 0 00-4.226 7.674.5.5 0 01.053.426l-.537 1.61 1.611-.536a.5.5 0 01.426.052A5 5 0 106 1zM3.93 3.003c.099 0 .197 0 .282.004.09.006.212-.038.333.272.123.319.418 1.104.455 1.183.037.078.062.172.013.278-.05.107-.075.173-.148.264-.074.094-.155.209-.222.28-.074.079-.15.164-.064.324.085.158.382.68.821 1.101.564.543 1.04.712 1.188.791.147.08.234.064.319-.04.086-.105.368-.464.467-.624.098-.158.197-.133.332-.079.135.053.862.437 1.009.516.148.081.247.121.283.188.038.066.038.385-.085.755-.123.373-.712.712-.996.757a1.91 1.91 0 01-.931-.064 7.96 7.96 0 01-.84-.335c-1.482-.69-2.45-2.296-2.523-2.4-.074-.106-.603-.863-.603-1.646 0-.782.38-1.167.516-1.325.135-.16.296-.2.394-.2z"/>
</svg>
