<svg xmlns="http://www.w3.org/2000/svg" width="20" height="20" focusable="false" viewBox="0 0 20 20">
  <path fill="currentColor" d="M4.786 13.333a.418.418 0 0 1 .333.666l-.39.52a.95.95 0 0 1 .416.277c.182.21.262.492.258.818-.009.674-.664 1.052-1.25 1.052a2 2 0 0 1-.72-.143 3 3 0 0 1-.282-.129l-.02-.011-.006-.003-.003-.003a.417.417 0 1 1 .43-.713l.035.018a2 2 0 0 0 .143.063c.126.048.278.088.422.088a.55.55 0 0 0 .334-.1c.07-.055.084-.103.084-.13.003-.184-.042-.248-.055-.263-.015-.017-.044-.038-.114-.05a.8.8 0 0 0-.243.005q-.06.009-.102.018l-.02.005-.02.004-.027.006c-.004 0-.04.009-.082.009a.419.419 0 0 1-.333-.668l.378-.503h-.62a.416.416 0 0 1 0-.833zm11.881.833a.834.834 0 0 1 0 1.667H8.333a.834.834 0 0 1 0-1.667zM4.16 8.333a1.12 1.12 0 0 1 1.128 1.11c0 .36-.159.637-.354.843-.184.196-.42.348-.608.468l-.122.079H5a.417.417 0 0 1 0 .833H3.333a.416.416 0 0 1-.416-.416c0-.35.185-.603.373-.777.179-.167.412-.309.589-.421.196-.126.346-.228.45-.338.093-.1.126-.181.126-.27a.29.29 0 0 0-.296-.278.7.7 0 0 0-.304.083 1 1 0 0 0-.112.063l-.03.019h-.002v.002a.418.418 0 0 1-.5-.666l.207.273-.206-.274v-.001l.004-.002.005-.004.018-.012q.021-.016.057-.039a2 2 0 0 1 .196-.108 1.6 1.6 0 0 1 .667-.167m12.508.833a.834.834 0 0 1 0 1.667H8.333a.834.834 0 0 1 0-1.667zM4.161 3.392a.417.417 0 0 1 .63.358v2.5a.417.417 0 0 1-.833 0V4.484l-.202.122a.416.416 0 1 1-.428-.714zm12.506.774a.834.834 0 0 1 0 1.667H8.333a.834.834 0 0 1 0-1.667z"/>
</svg>
