<svg xmlns="http://www.w3.org/2000/svg" width="20" height="20" focusable="false" viewBox="0 0 20 20">
  <path fill="currentColor" fill-rule="evenodd" d="M9.998 1.666c4.694 0 8.334 3.442 8.334 8.086s-3.64 8.084-8.334 8.084a9 9 0 0 1-2.412-.321.67.67 0 0 0-.446.034l-1.655.728a.668.668 0 0 1-.935-.59l-.046-1.483a.66.66 0 0 0-.223-.475c-1.62-1.45-2.617-3.55-2.617-5.979 0-4.644 3.64-8.084 8.334-8.084m5.007 6.222c.233-.373-.225-.794-.575-.528L11.8 9.356a.5.5 0 0 1-.602.002L9.25 7.898a1.25 1.25 0 0 0-1.809.333l-2.448 3.883c-.235.373.223.792.573.526l2.63-1.996a.5.5 0 0 1 .602-.002l1.948 1.46a1.25 1.25 0 0 0 1.809-.333z"/>
</svg>
