<svg xmlns="http://www.w3.org/2000/svg" width="14" height="14" focusable="false" viewBox="0 0 14 14">
  <path fill="currentColor" d="M6.02 9.48v-.9c0-.24.01-.45.04-.61a1.479 1.479 0 0 1 .42-.86l.42-.45 1.26-1.28c.28-.28.41-.63.41-1.07 0-.43-.14-.77-.42-1.04-.27-.27-.63-.4-1.05-.4-.46 0-.84.16-1.13.47-.3.31-.47.69-.51 1.14l-2.1-.16c.07-.52.2-.99.41-1.4.21-.42.48-.77.81-1.05.33-.28.72-.5 1.16-.65.43-.15.92-.22 1.44-.22.49 0 .95.07 1.37.21.42.14.79.35 1.1.61.31.27.55.6.73 1 .17.4.26.86.26 1.37 0 .36-.05.68-.15.95-.1.27-.23.52-.39.75-.17.24-.35.46-.57.67-.21.21-.44.42-.68.65-.15.15-.28.27-.39.38-.11.11-.2.22-.27.34-.07.11-.12.24-.16.39-.03.15-.05.33-.05.53v.62H6.02zm-.33 2.27c0-.35.13-.65.39-.9.25-.25.56-.37.92-.37.35 0 .66.12.92.36s.39.54.39.89-.13.65-.39.9c-.25.24-.56.37-.92.37-.17 0-.34-.03-.5-.1-.16-.07-.3-.15-.42-.26-.12-.11-.22-.24-.29-.39-.07-.16-.1-.32-.1-.5z"/>
</svg>
