<svg xmlns="http://www.w3.org/2000/svg" width="14" height="14" focusable="false" viewBox="0 0 14 14">
  <path fill="currentColor" d="M7 13c-.47 0-.93-.05-1.38-.16a.49.49 0 0 1-.37-.6.49.49 0 0 1 .6-.37c.58.14 1.2.17 1.78.09.28-.04.52.16.56.43a.51.51 0 0 1-.43.56c-.25.03-.51.05-.76.05zm3.39-1.17c-.15 0-.29-.07-.39-.19a.504.504 0 0 1 .08-.7c.47-.37.87-.82 1.19-1.33a.49.49 0 0 1 .69-.16c.24.14.31.45.16.69a6.38 6.38 0 0 1-1.42 1.6c-.1.06-.21.09-.31.09zm-7.22-.38c-.13 0-.25-.05-.35-.14-.52-.5-.94-1.09-1.25-1.74-.11-.25-.01-.55.24-.67s.55-.01.67.24c.26.54.61 1.03 1.04 1.45.2.19.2.51.01.71-.1.1-.23.15-.36.15zm9.33-3.92c-.28 0-.5-.19-.5-.47V7c0-.6-.11-1.19-.32-1.75-.1-.26.04-.55.29-.64.26-.1.55.03.64.29.26.67.39 1.38.39 2.1 0 .28-.22.53-.5.53zM1.52 6.98h-.05a.502.502 0 0 1-.44-.55c.07-.72.26-1.41.58-2.06a.496.496 0 1 1 .89.44c-.26.54-.42 1.11-.48 1.71-.02.26-.24.46-.5.46zm8.92-3.77a.51.51 0 0 1-.31-.11c-.47-.38-1-.66-1.57-.85a.5.5 0 0 1-.32-.64c.08-.26.37-.4.63-.31.68.23 1.32.57 1.88 1.02.22.17.25.49.08.7-.1.12-.25.19-.39.19zM3.99 2.9c-.16 0-.32-.08-.42-.23a.498.498 0 0 1 .14-.69c.61-.4 1.27-.68 1.97-.83a.503.503 0 0 1 .22.98c-.58.12-1.13.35-1.64.69a.53.53 0 0 1-.27.08z"/>
</svg>
