<svg xmlns="http://www.w3.org/2000/svg" width="14" height="14" focusable="false" viewBox="0 0 14 14">
  <path fill="currentColor" d="M12.4 11.3l-1.1 1.1c-.4.4-.9.6-1.5.6s-1.1-.2-1.5-.6l-1.5-1.5c-.4-.4-.6-.9-.6-1.5s.2-1.1.6-1.5l-.6-.7c-.4.4-1 .6-1.6.6-.6 0-1.1-.2-1.5-.6L1.6 5.7c-.4-.4-.6-1-.6-1.5 0-.6.2-1.1.6-1.5l1.1-1.1c.4-.4.9-.6 1.5-.6s1.1.2 1.5.6l1.5 1.5c.4.4.6.9.6 1.5s-.2 1.1-.6 1.5l.6.6c.4-.4.9-.6 1.5-.6s1.1.2 1.5.6l1.5 1.5c.5.5.7 1 .7 1.6 0 .6-.2 1.1-.6 1.5zM6.2 4.1L4.7 2.6c-.1-.1-.3-.2-.5-.2s-.4.1-.5.2L2.6 3.7c-.1.1-.2.3-.2.5s.1.4.2.5l1.5 1.5c.1.1.3.2.5.2s.4-.1.5-.2c-.2-.2-.4-.5-.4-.8s.3-.7.7-.7c.4 0 .6.3.8.5.1-.2.2-.3.2-.6 0-.1-.1-.3-.2-.5zm5.2 5.2L9.8 7.8c-.1-.1-.3-.2-.5-.2s-.3.1-.5.2c.2.3.5.5.5.8s-.3.8-.7.8c-.4 0-.6-.3-.8-.5-.2.1-.2.2-.2.5 0 .2.1.4.2.5l1.5 1.5c.1.1.3.2.5.2s.4-.1.5-.2l1.1-1.1c.1-.1.2-.3.2-.5s-.1-.3-.2-.5z"/>
</svg>
