<svg xmlns="http://www.w3.org/2000/svg" width="14" height="14" focusable="false" viewBox="0 0 14 14">
  <path stroke="currentColor" stroke-linecap="round" d="M5.5 11.5h7m-7-5h7m-7-5h7"/>
  <path fill="currentColor" d="M2.5 4c-.2 0-.5-.2-.5-.5V1.3l-.3.1c-.2.1-.5 0-.7-.2s0-.5.2-.7l1-.5c.3 0 .5 0 .6.1.1.1.2.2.2.4v3c0 .3-.2.5-.5.5zm.3 10H1.5c-.3 0-.5-.2-.5-.5s.2-.5.5-.5h1.3c.1 0 .2-.1.2-.2s-.1-.2-.2-.2c-.3 0-.5-.2-.5-.5s.2-.5.5-.5c.1 0 .2-.1.2-.2s-.1-.4-.2-.4H1.5c-.2 0-.5-.2-.5-.5s.3-.5.5-.5h1.2c.8 0 1.3.6 1.3 1.2 0 .3-.1.5-.3.8.2.2.3.5.3.8 0 .6-.5 1.2-1.2 1.2zm.7-5h-2c-.2 0-.4-.1-.4-.3-.1-.2-.1-.4.1-.6C2.1 7.3 3 6.3 3 6c-.1-.2-.7-.2-1.3 0-.3.1-.6-.1-.7-.4 0-.2.1-.5.4-.6.3-.1 1.6-.4 2.2.2.3.2.4.5.4.8 0 .5-.6 1.3-1.3 2h.8c.3 0 .5.2.5.5s-.2.5-.5.5z"/>
</svg>
