<svg xmlns="http://www.w3.org/2000/svg" width="14" height="14" focusable="false" viewBox="0 0 14 14">
  <path fill="none" stroke="currentColor" stroke-linecap="round" stroke-linejoin="round" stroke-width="2" d="M4 13h9V4"/>
  <path fill="currentColor" d="M10 0H1a1.003 1.003 0 0 0-1 1v9a1.003 1.003 0 0 0 1 1h9a1.003 1.003 0 0 0 1-1V1a1.003 1.003 0 0 0-1-1zM8.59 3.86l-3.3 4.2a.734.734 0 0 1-.54.29H4.7a.75.75 0 0 1-.53-.22l-1.7-1.7a.75.75 0 1 1 1.06-1.06l1.1 1.1 2.78-3.53a.748.748 0 0 1 1.18.92z"/>
</svg>
