<svg xmlns="http://www.w3.org/2000/svg" width="14" height="14" focusable="false" viewBox="0 0 14 14">
  <path fill="currentColor" d="M11.07 9.29c0-.82.66-1.48 1.48-1.48.13 0 .26.02.39.05a6.11 6.11 0 0 0 0-1.72 1.477 1.477 0 0 1-1.89-1.42c0-.56.31-1.05.77-1.3-.35-.46-.76-.88-1.22-1.22-.26.44-.73.74-1.28.74-.82 0-1.48-.66-1.48-1.48 0-.14.02-.27.05-.39C7.59 1.02 7.3 1 7 1c-.3 0-.58.02-.87.06.03.13.05.26.05.39 0 .82-.66 1.48-1.48 1.48-.55 0-1.03-.3-1.29-.75-.46.36-.88.77-1.22 1.24.46.25.76.74.76 1.3a1.477 1.477 0 0 1-1.89 1.42 6.11 6.11 0 0 0 0 1.72 1.477 1.477 0 0 1 1.86 1.43c0 .55-.3 1.03-.74 1.28.35.47.77.89 1.24 1.24.26-.44.73-.74 1.28-.74a1.477 1.477 0 0 1 1.43 1.86c.29.05.58.07.87.07.3 0 .59-.02.88-.06a1.477 1.477 0 0 1 1.43-1.86c.55 0 1.02.3 1.28.74.47-.35.88-.76 1.23-1.23-.45-.27-.75-.75-.75-1.3zM7 10c-1.66 0-3-1.34-3-3s1.34-3 3-3 3 1.34 3 3-1.34 3-3 3z"/>
</svg>
