<svg xmlns="http://www.w3.org/2000/svg" width="14" height="14" focusable="false" viewBox="0 0 14 14">
  <path fill="currentColor" d="M5.7 1.1c-1 .2-1.8.7-2.6 1.3l1.8 1.8c.4-.3.8-.5 1.3-.6 1-.2 2.1 0 2.9.7L11 2.5C9.5 1.2 7.6.7 5.7 1.1zM1.1 8.3c.2.9.6 1.8 1.3 2.5L4.2 9c-.3-.4-.5-.8-.6-1.2-.2-1 0-2.1.7-2.9L2.4 3.1C1.2 4.5.7 6.4 1.1 8.3zm11.8-2.6c-.2-.9-.6-1.8-1.3-2.5L9.8 5c.3.4.5.8.6 1.3.2 1 0 2-.6 2.8l1.8 1.8c1.2-1.5 1.7-3.4 1.3-5.2zm-4.6 7.2c1-.2 1.9-.7 2.6-1.3L9.2 9.7c-.4.3-.9.6-1.4.7-.2.1-.5.1-.8.1-.8 0-1.5-.3-2.1-.8l-1.8 1.8c1.4 1.3 3.3 1.8 5.2 1.4z"/>
</svg>
